<svg xmlns="http://www.w3.org/2000/svg" version="1.1" xmlns:xlink="http://www.w3.org/1999/xlink" width="512" height="512" x="0" y="0" viewBox="0 0 243.852 243.852" style="enable-background:new 0 0 512 512" xml:space="preserve"><g><path d="M45.213 211.003v-61.364c3.273.319 7.133.485 11.346.485 25.676 0 46.436-6.773 60.043-19.594 11.146-10.589 17.287-26.365 17.287-44.42 0-17.536-7.334-33.392-20.109-43.494-12.559-10.045-31.014-14.929-56.42-14.929-22.008 0-40.605 1.266-55.279 3.764A2.498 2.498 0 0 0 0 33.915v177.088a2.5 2.5 0 0 0 2.5 2.5h40.213a2.5 2.5 0 0 0 2.5-2.5zm0-97.664V64.405c2.455-.471 7.066-1.094 14.275-1.094 18.551 0 29.19 8.698 29.19 23.863 0 16.776-12.105 26.793-32.385 26.793-4.865 0-8.33-.192-11.08-.628zM206.76 129.02c-16.568-5.798-19.363-8.559-19.363-12.553 0-7.093 8.109-8.152 12.945-8.152 10.268 0 20.979 3.852 27.031 7.15a2.5 2.5 0 0 0 3.617-1.572l7.191-27.959a2.5 2.5 0 0 0-1.303-2.858c-7.465-3.732-21.332-7.721-37.869-7.721-32.674 0-55.494 18.549-55.494 45.065-.221 12.937 6.317 30.649 38.725 41.558 15.742 5.248 17.465 7.975 17.465 12.542 0 2.082 0 8.418-14.809 8.418-11.094 0-26.072-4.927-33.588-9.491a2.5 2.5 0 0 0-3.725 1.536l-7.189 29.028a2.5 2.5 0 0 0 1.238 2.8c10.998 5.944 26.768 9.354 43.264 9.354 36.365 0 58.955-17.08 58.955-44.608-.288-20.691-11.732-33.811-37.091-42.537z" fill="#ffffff" opacity="1" data-original="#000000"></path></g></svg>