<svg xmlns="http://www.w3.org/2000/svg" version="1.1" xmlns:xlink="http://www.w3.org/1999/xlink" width="512" height="512" x="0" y="0" viewBox="0 0 231.597 231.597" style="enable-background:new 0 0 512 512" xml:space="preserve" class=""><g><path d="M2.499 211.77h42.076a2.502 2.502 0 0 0 2.41-1.832l12.271-44.237h47.637l13.313 44.289a2.5 2.5 0 0 0 2.395 1.78h43.692a2.5 2.5 0 0 0 2.277-3.534l-55.564-179.19a2.501 2.501 0 0 0-2.389-1.76h-53.26a2.5 2.5 0 0 0-2.391 1.769L.109 208.539a2.5 2.5 0 0 0 2.39 3.231zm97.055-81.428H66.511l9.764-34.902c1.773-6.289 3.449-13.731 5.07-20.928.371-1.653.736-3.275 1.098-4.861 2.145 8.622 4.504 17.937 6.869 25.815l10.242 34.876zM187.288 76.551a2.5 2.5 0 0 0-2.5 2.5V209.27a2.5 2.5 0 0 0 2.5 2.5h40.477a2.5 2.5 0 0 0 2.5-2.5V79.051a2.5 2.5 0 0 0-2.5-2.5h-40.477zM207.261 65.571c14.102 0 24.336-9.563 24.336-22.795-.307-13.512-10.205-22.949-24.07-22.949-7.078 0-13.363 2.442-17.697 6.878-4.067 4.16-6.234 9.886-6.108 16.127-.129 6.043 2.043 11.666 6.119 15.84 4.344 4.449 10.531 6.899 17.42 6.899z" fill="#ffffff" opacity="1" data-original="#000000" class=""></path></g></svg>