<svg xmlns="http://www.w3.org/2000/svg" version="1.1" xmlns:xlink="http://www.w3.org/1999/xlink" width="512" height="512" x="0" y="0" viewBox="0 0 512.002 512.002" style="enable-background:new 0 0 512 512" xml:space="preserve" class=""><g><path d="m15.834 236.859 78.7-78.7c7.778-7.778 20.506-7.778 28.284 0l78.7 78.7c7.778 7.778 7.778 20.506 0 28.284l-78.7 78.7c-7.778 7.778-20.506 7.778-28.284 0l-78.7-78.7c-7.778-7.778-7.778-20.506 0-28.284zM241.859 491.168l-78.7-78.7c-7.778-7.778-7.778-20.506 0-28.284l78.7-78.7c7.778-7.778 20.506-7.778 28.284 0l78.7 78.7c7.778 7.778 7.778 20.506 0 28.284l-78.7 78.7c-7.778 7.779-20.506 7.779-28.284 0zM496.168 265.143l-78.7 78.7c-7.778 7.778-20.506 7.778-28.284 0l-78.7-78.7c-7.778-7.778-7.778-20.506 0-28.284l78.7-78.7c7.778-7.778 20.506-7.778 28.284 0l78.7 78.7c7.779 7.778 7.779 20.506 0 28.284z" style="fill-rule:evenodd;clip-rule:evenodd;stroke-width:20.0001;stroke-linecap:round;stroke-linejoin:round;stroke-miterlimit:22.9256;" fill-rule="evenodd" clip-rule="evenodd" fill="none" stroke="#ffffff" stroke-width="20.0001" stroke-linecap="round" stroke-linejoin="round" stroke-miterlimit="22.9256" data-original="#020288" opacity="1"></path><path d="m270.143 10.834 78.7 78.7c7.778 7.778 7.778 20.506 0 28.284l-78.7 78.7c-7.778 7.778-20.506 7.778-28.284 0l-78.7-78.7c-7.778-7.778-7.778-20.506 0-28.284l78.7-78.7c7.778-7.779 20.506-7.779 28.284 0z" style="fill-rule:evenodd;clip-rule:evenodd;" fill="#ffffff" data-original="#ffbebc" class="" opacity="1"></path></g></svg>