<svg xmlns="http://www.w3.org/2000/svg" version="1.1" xmlns:xlink="http://www.w3.org/1999/xlink" width="512" height="512" x="0" y="0" viewBox="0 0 512 512" style="enable-background:new 0 0 512 512" xml:space="preserve"><g><linearGradient id="a" x1="256" x2="256" y1="8" y2="504" gradientUnits="userSpaceOnUse"><stop offset="0" stop-color="#fcc210"></stop><stop offset="1" stop-color="#ea453a"></stop></linearGradient><path fill="url(#a)" d="M150.136 328.108c-.633 0-1.272-.04-1.918-.122-35.574-4.541-67.795-20.358-93.18-45.744-30.335-30.335-47.041-70.675-47.041-113.59s16.706-83.255 47.041-113.59C85.386 24.714 125.731 8 168.642 8s83.255 16.714 113.604 47.062c25.382 25.351 41.202 57.565 45.743 93.152 1.049 8.218-4.763 15.729-12.98 16.778-8.222 1.047-15.729-4.763-16.777-12.98-3.692-28.929-16.553-55.116-37.192-75.73C236.352 51.593 203.54 38 168.644 38s-67.709 13.593-92.391 38.275c-24.668 24.668-38.254 57.475-38.254 92.376s13.586 67.708 38.254 92.376c20.644 20.644 46.843 33.507 75.766 37.198 8.217 1.049 14.028 8.561 12.979 16.779-.966 7.573-7.422 13.103-14.86 13.103zm137.092 175.884c10.487-.241 19.347-6.847 22.568-16.809l43.615-133.776 133.773-43.614c9.919-3.232 16.518-12.071 16.81-22.517l.003-.103c.22-10.415-5.918-19.553-15.641-23.281l-312.92-119.883c-9.1-3.422-19.012-1.292-25.921 5.618-6.848 6.923-8.941 16.848-5.47 25.892l119.823 312.837c3.614 9.428 12.689 15.645 22.729 15.644.209 0 .42-.003.63-.008zm-5.964-26.075.006-.02zm181.481-191.71-125.882 41.041a14.997 14.997 0 0 0-9.611 9.612l-41.054 125.92-109.624-286.209 286.171 109.635z" opacity="1" data-original="url(#a)"></path></g></svg>