<svg id="Layer_1" data-name="Layer 1" xmlns="http://www.w3.org/2000/svg" viewBox="0 0 240.53 330.92">
  <defs>
    <style>
      .cls-1 {
        fill: #fff;
      }
    </style>
  </defs>
  <g>
    <path class="cls-1" d="M11.81,111.67c-4-1.84-7.54-3.26-10.4-4.33Q.51,100.6.1,93.83a60.86,60.86,0,0,1,.36-11c2.43.4,5.87,1,10.15,1.83a99.14,99.14,0,0,0,0,16.17Q11,106.29,11.81,111.67Zm40,23.59a234.82,234.82,0,0,0-28.16-17.77A136.66,136.66,0,0,1,21.83,87c7.71,1.7,16.83,3.9,26.86,6.69-.66,13.11.57,27.21,3.08,41.57Zm105,5.47c-.1,1.13-.23,2.28-.35,3.43A151.45,151.45,0,0,0,116,174.53c-4,4.28-7.72,8.58-11.09,12.86q-5.67-7.17-12.09-14.48-2.88-3.25-5.78-6.34A492.65,492.65,0,0,1,81.44,104C106.29,112.8,133.12,124.77,156.73,140.73Z" transform="translate(0 0)"/>
    <path class="cls-1" d="M14.86,63.78a90.92,90.92,0,0,0-4.25,20.89C6.33,83.84,2.89,83.24.46,82.84a63,63,0,0,1,1.19-6.72A137.07,137.07,0,0,1,14.86,63.78Z" transform="translate(0 0)"/>
    <path class="cls-1" d="M63.49,36.38C56.14,49.86,50.25,68,48.76,92.27c0,.47,0,1-.07,1.42-10-2.79-19.14-5-26.85-6.69,0-.33,0-.64.06-1A85.31,85.31,0,0,1,32.28,51.31,162.66,162.66,0,0,1,63.49,36.38Z" transform="translate(0 0)"/>
    <path class="cls-1" d="M156.73,140.73c-23.61-16-50.44-27.93-75.29-36.75C81,80.3,82.8,58.53,87.7,40.49c.13-.5.27-1,.41-1.47,19.71,11.65,45.39,24.64,69.77,30.34,2.13,21.5,1.49,45.93-1.15,71.37Z" transform="translate(0 0)"/>
    <path class="cls-1" d="M240.42,93.83a187,187,0,0,1-4.25,29.8c-2.81.11-6,.29-9.64.6a190.91,190.91,0,0,0,3.38-23.39A91.75,91.75,0,0,0,213.4,39.47c2.93.83,5.71,1.65,8.3,2.45C232.93,56.16,241.6,74.46,240.42,93.83Zm-25,31.69a195.48,195.48,0,0,0-26,5.54,179.29,179.29,0,0,0,2.32-38.79c-1.7-27.91-9.26-47.76-18.15-61.7,8.36,1.38,16.29,3,23.61,4.72,11.67,13.78,19.93,31,21.41,50.75C219.56,98.64,218.21,112.08,215.43,125.52Z" transform="translate(0 0)"/>
    <path class="cls-1" d="M157.88,69.36C133.5,63.65,107.82,50.66,88.11,39a83.74,83.74,0,0,1,3.48-9.87q5.41-.93,11.16-1.51a249.07,249.07,0,0,1,45.42-.22,87.07,87.07,0,0,1,4.65,13.07A176.63,176.63,0,0,1,157.88,69.36Z" transform="translate(0 0)"/>
    <path class="cls-1" d="M52.63,14.42c-.81.5-27,16.62-37.77,49.35A136.83,136.83,0,0,0,1.66,76.11C8.78,45.23,37.2,20,52.63,14.42ZM69.2,27.16a94,94,0,0,0-5.71,9.22A162.36,162.36,0,0,0,32.28,51.32,101.81,101.81,0,0,1,59.05,20.2C61.57,22,65,24.39,69.2,27.16Z" transform="translate(0 0)"/>
    <path class="cls-1" d="M221.7,41.92c-2.59-.8-5.37-1.62-8.3-2.45-11.82-16.82-25.53-25.06-25.53-25.06C197,17.7,210.59,27.83,221.7,41.92Zm-24.49-6.63C189.9,33.58,182,32,173.61,30.57,158.61,7,139.77.32,138.85,0,159,4.06,181.3,16.51,197.21,35.29Zm-49-7.87a248.18,248.18,0,0,0-45.42.22c-3.83.39-7.54.89-11.16,1.51C102.41,3.65,120,0,120,0h.5S137.31,3.48,148.17,27.42ZM101.68,0c-.87.3-17.91,6.35-32.48,27.15C65,24.4,61.57,22,59.05,20.21,72.33,9.83,87.51,2.85,101.68,0Z" transform="translate(0 0)"/>
    <path class="cls-1" d="M120.26,330.92h18.09l6.69-29.2H95.48l6.69,29.2Z" transform="translate(0 0)"/>
  </g>
  <path class="cls-1" d="M52,200.22c3.48,7.19,6.8,13.61,9.66,19A265.81,265.81,0,0,0,76,243.26,151.22,151.22,0,0,1,81.26,228c-3.73-8.55-7.47-17.74-11-27.31-7.74-20.79-14.61-43.41-18.45-65.38A234.63,234.63,0,0,0,23.62,117.5c4.77,29.57,17.34,60,28.33,82.72Z" transform="translate(0 0)"/>
  <path class="cls-1" d="M35.61,199.85q3,5.16,6.14,10.39a369.26,369.26,0,0,0,31.61,43.54c.3-1.48.65-3,1-4.56-4.13-5.68-8.16-11.44-11.63-16.79-5-7.65-12.16-18.74-19.66-32.39-12.84-23.41-26.55-54.36-31.31-88.36-4-1.84-7.54-3.26-10.39-4.33,4.11,30.47,15.77,60.39,34.2,92.5Z" transform="translate(0 0)"/>
  <path class="cls-1" d="M88.86,177.92c1.29,7.7,2.8,15.52,4.43,23.25.16.74.31,1.47.47,2.21a176.3,176.3,0,0,1,11.17-16q-5.85-7.4-12.09-14.49-2.88-3.25-5.78-6.33C87.63,170.35,88.22,174.13,88.86,177.92Z" transform="translate(0 0)"/>
  <path class="cls-1" d="M226.52,124.23c-4.6,22.34-12.7,43-21.32,60.73,1.74,1.75,3.44,3.5,5.09,5.22,12.28-22.83,21-44.67,25.88-66.55C233.35,123.74,230.12,123.91,226.52,124.23Zm-37.08,6.83a303.9,303.9,0,0,1-7.06,32.3c5.08,4.58,10.63,9.71,16.09,15,6.83-16.3,13.21-34.57,17-52.81a198.36,198.36,0,0,0-26,5.54Z" transform="translate(0 0)"/>
  <path class="cls-1" d="M116,174.52c-4,4.28-7.72,8.58-11.09,12.87a345,345,0,0,1,33.52,51c2.87-11.1,5.85-23.39,8.52-36,1.73-8.12,3.32-16.35,4.68-24.46,1.91-11.32,3.5-22.63,4.72-33.76A151.24,151.24,0,0,0,116,174.52ZM205.2,185l-1,2a441.22,441.22,0,0,1-26.47,45.44c-7.47,11.51-17.54,25-25.52,35.3l.83,2.15c12.36-13.46,30.78-35.15,45.71-59.63q5.63-9.23,10.52-18.19c.34-.62.68-1.24,1-1.87q-2.47-2.6-5.09-5.22Zm-22.82-21.6-.39,1.4c-9.47,34.19-23.89,67.31-35.3,90.13,1.24,2.71,2.37,5.24,3.36,7.56,10.54-12.54,19.22-25.24,28.86-43.26,5.29-9.92,12.15-23.44,18.7-38.82l.86-2C193,173.07,187.46,167.94,182.38,163.36Z" transform="translate(0 0)"/>
  <path class="cls-1" d="M129.77,284.65c7.7-8,14.29-15.06,20.28-22.2q-1.49-3.48-3.36-7.56C138.61,271.07,132,282.07,129.77,284.65Z" transform="translate(0 0)"/>
  <path class="cls-1" d="M139.23,284.17c.41-.4,5.87-5.65,13.83-14.3-.27-.68-.54-1.39-.83-2.15C145.09,277,139.65,283.67,139.23,284.17Z" transform="translate(0 0)"/>
  <path class="cls-1" d="M93.76,203.37c9.1,42.57,21.58,81.61,21.58,81.61h9.84s6.33-19.83,13.28-46.63a345.53,345.53,0,0,0-33.52-51A176,176,0,0,0,93.76,203.37Z" transform="translate(0 0)"/>
  <path class="cls-1" d="M76,243.26c10,14.77,20.43,26.52,34.77,41.39-3.34-3.82-16.28-26.31-29.49-56.69A150.24,150.24,0,0,0,76,243.26Z" transform="translate(0 0)"/>
  <path class="cls-1" d="M73.36,253.77a405.93,405.93,0,0,0,27.94,30.4c-.66-.82-14.21-17.48-26.9-35C74,250.76,73.67,252.29,73.36,253.77Z" transform="translate(0 0)"/>
</svg>
