<svg xmlns="http://www.w3.org/2000/svg" version="1.1" xmlns:xlink="http://www.w3.org/1999/xlink" width="512" height="512" x="0" y="0" viewBox="0 0 512 512" style="enable-background:new 0 0 512 512" xml:space="preserve"><g><path d="M232.535 510.934c5.106.476 10.297.796 15.43.953l.457-14.992c-4.824-.149-9.7-.45-14.496-.895zM151.508 488.844a243.828 243.828 0 0 0 14.222 6.148l5.508-13.953a230.323 230.323 0 0 1-13.34-5.766zM191.078 503.422a247.703 247.703 0 0 0 15.047 3.59l3.016-14.696a228.832 228.832 0 0 1-14.118-3.367zM26.418 181.867l14.047 5.254a230.33 230.33 0 0 1 5.52-13.434l-13.688-6.136a242.019 242.019 0 0 0-5.879 14.316zM349.809 476.793l6.171 13.672a244.92 244.92 0 0 0 13.872-6.8l-7.024-13.255a230.606 230.606 0 0 1-13.02 6.383zM312.496 489.867l3.715 14.535a244.626 244.626 0 0 0 14.86-4.308l-4.633-14.266a225.693 225.693 0 0 1-13.942 4.04zM273.484 496.305l1.16 14.957a246.09 246.09 0 0 0 15.372-1.68l-2.098-14.855a228.233 228.233 0 0 1-14.434 1.578zM115.063 467.672A246.434 246.434 0 0 0 128 476.164l7.832-12.793c-4.11-2.516-8.195-5.2-12.144-7.973zM11.02 264.414l15 .188c.058-4.836.27-9.72.632-14.512l-14.96-1.121c-.383 5.101-.61 10.3-.672 15.445zM34.203 328.535l-14.465 3.98a246.534 246.534 0 0 0 4.578 14.778l14.18-4.895a227.452 227.452 0 0 1-4.293-13.863zM27.055 289.648l-14.934 1.43a246.718 246.718 0 0 0 1.957 15.34l14.817-2.367a228.45 228.45 0 0 1-1.84-14.403zM15.137 222.488l14.746 2.746a228.725 228.725 0 0 1 3.11-14.18l-14.544-3.675a241.074 241.074 0 0 0-3.312 15.11zM79.313 97.977a248.436 248.436 0 0 0-10.372 11.476l11.442 9.7c3.113-3.673 6.39-7.301 9.738-10.778zM111.02 70.234a245.642 245.642 0 0 0-12.176 9.54l9.617 11.511a230.36 230.36 0 0 1 11.43-8.957zM34.402 372.02a245.124 245.124 0 0 0 7.055 13.75l13.121-7.27a227.895 227.895 0 0 1-6.613-12.898zM82.8 440.574a248.955 248.955 0 0 0 11.286 10.578l9.906-11.265a229.279 229.279 0 0 1-10.597-9.93zM55.645 408.383c2.957 4.187 6.09 8.34 9.312 12.34l11.684-9.407a234.146 234.146 0 0 1-8.743-11.586zM65.23 139.129l-12.425-8.399a246.735 246.735 0 0 0-8.254 13.083l12.93 7.601a232.445 232.445 0 0 1 7.75-12.285zM499.566 252.8a246.062 246.062 0 0 0-1.402-15.398l-14.887 1.828a234.136 234.136 0 0 1 1.317 14.461zM460.336 163.89c2.18 4.301 4.25 8.723 6.148 13.145l13.782-5.918a243.774 243.774 0 0 0-6.551-14.008zM475.086 200.555a232.041 232.041 0 0 1 3.781 14.007l14.598-3.449c-1.18-5-2.535-10.02-4.031-14.925zM423.414 111.055l10.977-10.227a248.96 248.96 0 0 0-10.899-10.976l-10.308 10.894a233.564 233.564 0 0 1 10.23 10.309zM439.484 130.293a229.358 229.358 0 0 1 8.32 11.902l12.56-8.203a246.221 246.221 0 0 0-8.86-12.676zM440.96 402.71l12.114 8.849a247.39 247.39 0 0 0 8.73-12.782l-12.648-8.062a231.965 231.965 0 0 1-8.195 11.996zM483.57 293.238l14.91 1.664a250.05 250.05 0 0 0 1.23-15.414l-14.983-.722c-.23 4.82-.622 9.691-1.157 14.472zM461.457 368.875l13.453 6.633c2.274-4.613 4.43-9.36 6.406-14.102l-13.847-5.765a231.327 231.327 0 0 1-6.012 13.234zM475.813 332.004l14.398 4.21a244.047 244.047 0 0 0 3.863-14.98l-14.637-3.28a228.61 228.61 0 0 1-3.625 14.05zM414.977 432.54l10.425 10.784a248.747 248.747 0 0 0 10.774-11.094l-11.078-10.109a235.756 235.756 0 0 1-10.121 10.418zM147.008 48.332a241.612 241.612 0 0 0-13.633 7.309l7.5 12.988a226.097 226.097 0 0 1 12.797-6.86zM353.508 43.438l-6.016 13.742c4.406 1.93 8.82 4.03 13.11 6.246l6.878-13.332a244.255 244.255 0 0 0-13.972-6.657zM390.512 63.625l-8.293 12.5c4.015 2.664 8 5.492 11.844 8.406l9.066-11.949a247.24 247.24 0 0 0-12.617-8.957zM384.29 457.484l8.433 12.407a246.318 246.318 0 0 0 12.504-9.086l-9.192-11.852a231.921 231.921 0 0 1-11.746 8.531zm0 0" fill="#ffffff" opacity="1" data-original="#000000"></path><path d="M484.5 0c-12.563 0-23.18 8.473-26.453 20H283V0h-55v20H53.953C50.68 8.473 40.063 0 27.5 0 12.336 0 0 12.336 0 27.5S12.336 55 27.5 55c12.563 0 23.18-8.473 26.453-20H228v20h55V35h175.047c3.273 11.527 13.89 20 26.453 20 15.164 0 27.5-12.336 27.5-27.5S499.664 0 484.5 0zm-457 40C20.605 40 15 34.395 15 27.5S20.605 15 27.5 15 40 20.605 40 27.5 34.395 40 27.5 40zM268 40h-25V15h25zm216.5 0c-6.895 0-12.5-5.605-12.5-12.5S477.605 15 484.5 15 497 20.605 497 27.5 491.395 40 484.5 40zM395.727 286.594 255.5 66.543l-140.227 220.05 5.993 4.098A126.74 126.74 0 0 1 176.5 395.367V456.5h15V436h128v20.5h15v-61.133a126.736 126.736 0 0 1 55.23-104.676zM273 271.5c0 9.648-7.852 17.5-17.5 17.5s-17.5-7.852-17.5-17.5 7.852-17.5 17.5-17.5 17.5 7.852 17.5 17.5zM319.5 421h-128v-16h128zm.113-31H191.387a141.722 141.722 0 0 0-55.758-107.438L248 106.227v133.656c-14.316 3.394-25 16.277-25 31.617 0 17.922 14.578 32.5 32.5 32.5s32.5-14.578 32.5-32.5c0-15.34-10.684-28.223-25-31.617V106.227l112.371 176.335A141.722 141.722 0 0 0 319.613 390zm0 0" fill="#ffffff" opacity="1" data-original="#000000"></path><path d="M248 351.5h15v15h-15zM248 321.5h15v15h-15zm0 0" fill="#ffffff" opacity="1" data-original="#000000"></path></g></svg>