<svg xmlns="http://www.w3.org/2000/svg" viewBox="0 0 42.62 42.25"><g id="Layer_2" data-name="Layer 2"><g id="OBJECTS"><path d="M0,11.32A16.3,16.3,0,0,1,1.78,5.68C4.2,1.73,8,.21,12.36.11q8.92-.22,17.86,0C34.27.21,37.86,1.54,40.33,5a13.12,13.12,0,0,1,2.21,7.51c.09,5.72.13,11.45,0,17.17-.11,4.6-1.71,8.54-6,10.88a13.65,13.65,0,0,1-6.4,1.58c-5.88.06-11.76.12-17.64,0-4.41-.1-8.24-1.59-10.69-5.59A16.18,16.18,0,0,1,0,31ZM21.33,4.14c-2.92,0-5.85,0-8.76,0C8,4.26,5.2,6.4,4.37,10.32a13.77,13.77,0,0,0-.31,2.55c0,5.53-.1,11.06,0,16.58s2.9,8.44,8.2,8.64c6,.22,12,.2,18,0,4.41-.14,7-2.27,7.89-6.09a9.74,9.74,0,0,0,.29-2.08c0-6.3.38-12.61-.19-18.9a7.11,7.11,0,0,0-6.54-6.67C28.26,3.88,24.78,4.21,21.33,4.14Z"/><path d="M32.31,21.2a11,11,0,0,1-22.09-.14,11,11,0,0,1,22.09.14Zm-4.1-.05a6.95,6.95,0,1,0-7,6.86A6.94,6.94,0,0,0,28.21,21.15Z"/><path d="M32.61,7.29A2.67,2.67,0,0,1,35.3,9.92a2.68,2.68,0,0,1-5.36,0A2.64,2.64,0,0,1,32.61,7.29Z"/></g></g></svg>