<svg xmlns="http://www.w3.org/2000/svg" viewBox="0 0 598.41 744.09"><defs><style>.cls-1{fill:#231f20;}.cls-2{fill:#252525;}.cls-3{fill:#6d6d6d;}.cls-4{fill:#464646;}.cls-5{fill:#696969;}.cls-6{fill:#161616;}.cls-7{fill:#191818;}.cls-8{fill:#393939;}.cls-9{fill:#1b1c1c;}.cls-10{fill:#2b2b2b;}.cls-11{fill:#969696;}.cls-12{fill:#2c2c2c;}.cls-13{fill:#818182;}.cls-14{fill:#262626;}.cls-15{fill:#b7b7b8;}.cls-16{fill:#282827;}.cls-17{fill:#212120;}.cls-18{fill:#8a8a8a;}.cls-19{fill:#494848;}.cls-20{fill:#1a1a1a;}.cls-21{fill:#232323;}.cls-22{fill:#181818;}.cls-23{fill:#20201f;}.cls-24{fill:#131313;}.cls-25{fill:#141414;}.cls-26{fill:#171717;}.cls-27{fill:#7f7f7f;}.cls-28{fill:#8d8d8d;}.cls-29{fill:#545554;}.cls-30{fill:#3e3e3d;}.cls-31{fill:#7d7d7d;}.cls-32{fill:#787878;}.cls-33{fill:#a7a7a7;}.cls-34{fill:#444;}.cls-35{fill:#292929;}.cls-36{fill:#414141;}.cls-37{fill:#636464;}.cls-38{fill:#30302f;}.cls-39{fill:#898989;}.cls-40{fill:#878787;}.cls-41{fill:#8c8c8c;}.cls-42{fill:#444445;}.cls-43{fill:#1d1d1d;}.cls-44{fill:#4b4a4b;}.cls-45{fill:#9e9e9e;}.cls-46{fill:#9c9c9c;}.cls-47{fill:#838383;}.cls-48{fill:#961b1e;}.cls-49{fill:#888;}.cls-50{fill:#b3b3b3;}.cls-51{fill:#cecece;}.cls-52{fill:#2f2f2f;}.cls-53{fill:#272727;}.cls-54{fill:#5b5b5c;}.cls-55{fill:#212222;}.cls-56{fill:#5e5e5e;}.cls-57{fill:#5a5b5b;}.cls-58{fill:#b4b4b5;}.cls-59{fill:#242424;}.cls-60{fill:#535353;}.cls-61{fill:#676767;}.cls-62{fill:#595a5a;}.cls-63{fill:#3e3e3e;}.cls-64{fill:#3a3a3a;}.cls-65{fill:#575757;}.cls-66{fill:#2a2a2a;}.cls-67{fill:#555;}.cls-68{fill:#868586;}.cls-69{fill:#535352;}.cls-70{fill:none;stroke:#fff;stroke-miterlimit:10;}.cls-71{fill:gray;}.cls-72{fill:#828383;}.cls-73{fill:#8b8b8b;}.cls-74{fill:#3f4040;}.cls-75{fill:#5e5f5e;}.cls-76{fill:#323232;}.cls-77{fill:#030303;}.cls-78{fill:#333;}.cls-79{fill:#aeaeae;}.cls-80{fill:#363636;}.cls-81{fill:#4e4e4f;}.cls-82{fill:#414242;}.cls-83{fill:#686868;}.cls-84{fill:#6f6f6f;}.cls-85{fill:#909090;}.cls-86{fill:#2d2d2d;}.cls-87{fill:#1f1f1f;}.cls-88{fill:#989898;}.cls-89{fill:#6f6e6f;}.cls-90{fill:#b9b8b9;}.cls-91{fill:#737373;}.cls-92{fill:#b6b6b7;}.cls-93{fill:#979696;}.cls-94{fill:#959595;}.cls-95{fill:#8f8f8f;}.cls-96{fill:#bcbcbc;}.cls-97{fill:#b5b5b6;}.cls-98{fill:#bab9ba;}.cls-99{fill:#abacac;}.cls-100{fill:#515252;}</style></defs><g id="Layer_2" data-name="Layer 2"><rect class="cls-1" width="598.41" height="744.09"/></g><g id="Layer_4" data-name="Layer 4"><path class="cls-2" d="M264.29,112.74h4.39s.84,2.37,1.07,2.37,0,4,0,4l-.34,2.79-2.34.65-2,.73-1.53-3.9.35-2.33.42-4Z"/><polygon class="cls-3" points="236.22 115.45 222.71 106.78 222.71 101.27 220.19 99.67 220.99 95.31 223.65 93.13 223.65 91.07 217.72 88.89 220.87 84.76 220.19 75.71 224.54 72.95 223.65 68.83 227.75 70.2 229.59 65.5 232.34 65.5 229.59 63.67 231.88 60.23 234.97 62.87 235.66 58.85 239.22 55.19 242.43 57.13 240.59 60 243.57 62.87 246.44 60.69 243.8 58.17 244.03 54.04 246.44 55.87 246.44 53.01 251.25 51.06 256.07 52.66 257.33 49.11 259.51 49.11 260.77 53.35 263.52 50.6 265.01 51.63 265.7 52.89 268.45 49.11 270.98 52.32 270.98 55.3 273.15 53.81 275.9 55.53 275.9 57.02 278.66 56.79 282.9 58.85 282.9 63.67 288.86 68.14 287.48 71.12 277.74 71.12 275.68 71.12 275.1 76.39 274.76 84.19 275.79 87.4 273.27 90.04 271.55 93.82 274.87 95.54 277.85 92.22 280.72 95.2 283.81 94.28 284.73 95.2 282.44 97.61 285.76 95.77 289.66 98.18 291.38 101.05 290.01 104.94 287.25 106.78 282.55 105.97 276.02 100.47 271.32 97.72 263.52 96.8 260.43 99.55 255.15 102.65 255.38 107.81 259.85 115.45 259.04 118.7 245.87 118.7 236.22 115.45"/><polygon class="cls-4" points="224.31 106.78 224.31 103.22 228.17 103.22 226.24 94.36 223.65 91.61 228.17 91.61 228.17 87.63 224.81 87.63 223.65 83.81 225.91 77.85 231.23 77.85 229.59 74.03 227.44 74.03 231.23 71.43 233.83 72.04 235.97 69.75 237.5 72.95 233.83 76.93 231.53 79.99 227.69 80.9 227.69 84.11 231.23 84.27 231.84 89.16 233.83 90.69 237.5 89.01 233.22 85.95 236.66 85.03 239.09 86.07 240.25 86.56 239.48 89.47 245.25 93.13 245.75 88.26 246.97 86.25 236.66 81.36 243.31 82.13 246.97 80.14 251.71 81.82 250.45 84.11 253.09 86.71 256.45 82.74 256.45 81.06 264.55 80.6 266.85 78.61 271.89 77.54 271.89 83.35 274.95 83.81 273.88 77.08 275.71 75.1 275.71 72.04 279.08 70.66 282.44 70.66 287.48 71.58 289.01 68.22 282.44 63.94 282.59 59.35 279.99 56.29 275.71 57.36 274.95 54.84 273.04 54.53 271.51 54.53 270.75 52.32 268.07 50.02 266.39 53.08 264.63 51.25 262.03 53.62 260.12 50.41 257.22 50.02 256.33 52.7 253.17 51.71 249.8 51.4 246.13 53.54 245.98 55.99 243.84 53.69 243.92 58.13 245.45 59.73 245.9 61.95 243.53 63.48 240.78 61.49 240.17 59.73 242.16 57.52 241.32 56.29 238.3 55.68 236.66 58.05 234.9 58.97 234.75 63.25 231.99 59.81 230.08 62.94 232.45 65.24 230.08 66.15 229.09 69.59 224.2 68.98 223.65 72.57 220.91 75.94 220.91 83.96 220.6 89.08 223.59 93.06 221.75 94.59 220.6 98.41 223.28 101.16 222.53 105.95 224.31 106.78"/><polygon class="cls-5" points="219.5 84.82 217.83 88.15 219.15 89.18 224.25 87.86 222.71 85.39 219.5 84.82"/><path class="cls-6" d="M225.63,88.89c.12.29,1.15,3.21,1.15,3.21l1.37.86,2.3-2.86-.35-2.24Z"/><polygon class="cls-7" points="228.84 93.99 227.52 96.06 230.45 98.47 233.14 95.25 228.84 93.99"/><polygon class="cls-8" points="234.69 93.99 235.09 98.01 238.93 98.01 238.3 94.51 234.69 93.99"/><polygon class="cls-9" points="239.16 94.28 243.06 94.57 242.71 98.01 238.93 98.01 239.16 94.28"/><polygon class="cls-10" points="231.25 100.24 232.8 103.85 236.29 101.73 233.14 99.55 231.25 100.24"/><polygon class="cls-11" points="233.14 105.63 237.04 104.45 237.04 108.5 238.01 109.87 240.99 108.55 242.37 105.75 245.98 107.16 247.3 106.78 244.55 103.85 239.73 102.94 241.97 100.13 237.1 99.21 236.81 102.65 232.8 103.85 233.14 105.63"/><polygon class="cls-12" points="243.06 107.58 242.2 108.84 243.06 111.99 246.61 109.87 243.06 107.58"/><polygon class="cls-13" points="248.45 110.16 247.3 111.08 248.85 114.75 251.88 114 249.82 112.74 248.45 110.16"/><polygon class="cls-14" points="249.59 109.3 253.15 110.16 252.75 112.45 249.59 113.66 249.59 109.3"/><polygon class="cls-15" points="254.12 110.45 253.47 117.17 257.86 118.72 258.15 114.58 254.12 110.45"/><polygon class="cls-3" points="263 113.03 263 118.19 257.86 118.72 258.15 115.45 262.26 112.74 263 113.03"/><polygon class="cls-16" points="242.2 99.21 244.4 98.87 245.25 100.7 245.25 103.85 241.93 103.36 242.2 99.21"/><polygon class="cls-17" points="247.3 102.36 247.01 106.78 248.62 107.87 252.34 104.54 247.3 102.36"/><polygon class="cls-18" points="246.38 98.47 245.58 101.36 251.37 103.51 251.88 100.99 246.38 98.47"/><polygon class="cls-14" points="246.61 95.43 251.88 96.46 250.05 100.99 247.3 100.3 246.61 95.43"/><polygon class="cls-17" points="247.85 89.18 247.85 93.19 249.25 93.99 252.34 92.05 247.85 89.18"/><polygon class="cls-19" points="251.37 89.81 253.89 92.05 255.55 91.24 261.63 92.56 256.13 86.71 251.37 89.81"/><polygon class="cls-20" points="264.55 90.04 263.92 92.56 264.55 94.28 267.36 94.57 269.37 91.59 264.55 90.04"/><polygon class="cls-9" points="256.13 92.3 255.15 94.8 258.65 97.49 262.09 93.31 256.13 92.3"/><polygon class="cls-20" points="270.29 83.62 267.65 86.71 271.72 90.41 273.73 86.03 270.29 83.62"/><polygon class="cls-21" points="267.25 75.31 264.78 78.4 269.02 81.78 271.09 77.08 267.25 75.31"/><polygon class="cls-20" points="251.05 83.03 255.81 83.5 253.09 86.71 250.72 84.38 251.05 83.03"/><polygon class="cls-22" points="239.47 86.23 245.58 87.52 243.95 92.3 239.47 89.64 239.47 86.23"/><polygon class="cls-16" points="227.69 80.9 227.69 83.62 230.45 84.42 230.79 81.78 227.69 80.9"/><polygon class="cls-23" points="232.8 78.31 232.8 87.4 235.03 87.86 237.21 85.8 237.21 81.43 232.8 78.31"/><polygon class="cls-9" points="226.95 75.31 231.25 74.67 232.4 77.43 227.69 77.85 226.95 75.31"/><polygon class="cls-9" points="236.66 81.03 236.29 78.75 237.21 76.05 240.36 76.05 240.99 79.72 236.66 81.03"/><polygon class="cls-7" points="242.68 84.22 245.25 84.02 245.58 79.43 240.05 79.43 240.05 82.66 242.68 84.22"/><polygon class="cls-24" points="247.01 76.26 246.97 80.14 250.37 81.34 252.34 77.85 247.01 76.26"/><polygon class="cls-6" points="253.89 76.97 253.89 79.43 256.76 82.13 259.28 78.8 253.89 76.97"/><polygon class="cls-24" points="230.79 68.14 230.79 71.06 233.43 72.44 235.83 68.89 230.79 68.14"/><polygon class="cls-7" points="235 62.87 234.34 65.27 238.93 68.14 240.05 63.67 235 62.87"/><path class="cls-9" d="M237.2,71v3.67L241,72.84l1.82.46.25-1.66,2.92-1,2.75-1.43.52-3.21,4-1-.92,3.44,3.9.41,1,1.4,1.61-.43,3.61-1.09L261.63,66l-3.38-2.24-3.84-.46-3-2.23-.29-1.72,1.61-2.18L247,56.85l.62,4.81-1.27,2.24-3.26,1.6s-2.64.18-2.07.58a14.25,14.25,0,0,1,1.82,3.09Z"/><path class="cls-9" d="M255.15,54c-.05.92-1.89,4.07-1.89,4.07l6,2.23.4-4.3Z"/><polygon class="cls-25" points="261.63 54.84 261.63 58.97 265.76 58.97 265.47 54.84 261.63 54.84"/><polygon class="cls-24" points="268.97 56.85 267.31 58.05 269.66 61.49 273.73 59.17 268.97 56.85"/><polygon class="cls-26" points="274.3 60.34 279.52 59.77 279.92 63.33 283.47 66.65 279.8 68.14 277.62 64.99 273.73 63.95 274.3 60.34"/><polygon class="cls-20" points="258.36 62.06 262.49 65.5 270.52 65.16 266.22 62.06 258.36 62.06"/><polygon class="cls-27" points="249.25 68.83 252.69 70.61 249.66 66.31 249.25 68.83"/><polygon class="cls-6" points="247.3 71.41 253.26 71.98 250.28 75.31 247.3 71.41"/><polygon class="cls-26" points="258.99 72.44 258.62 75.31 263.18 74.67 258.99 72.44"/><polygon class="cls-25" points="266.39 66.99 263.69 70.29 267.94 72.67 270.52 69.17 266.39 66.99"/><polygon class="cls-22" points="272.64 65.5 271.09 67.51 274.41 70.29 276.59 66.71 272.64 65.5"/><polygon class="cls-27" points="271.09 69.83 271.43 74.67 273.5 76.97 273.73 71.64 271.09 69.83"/><polygon class="cls-28" points="284.45 66.31 284.16 67.9 285.48 70.61 287.6 68.45 284.45 66.31"/><polygon class="cls-29" points="256.59 73.87 257.45 76.97 262.49 78.31 266.65 76.05 266.05 72.67 262.09 70.89 262.49 72.44 264.78 74.6 261.12 76.26 258.02 75.08 256.59 73.87"/><polygon class="cls-30" points="289.01 73.87 285.88 73.87 285.88 77.85 291.27 82.66 295.62 82.13 296.77 76.97 295.05 70.89 291.9 72.67 289.01 73.87"/><path class="cls-31" d="M290.16,73.36c0,.13-2.56,3.34-2.56,3.34l3.78,4.64,2.45.49,2.37-3-1.38-4.2Z"/><polygon class="cls-32" points="285.88 96.14 279 100.99 282.75 103.51 288.25 104.54 290.39 102.76 289.47 99.21 285.88 96.14"/><polygon class="cls-33" points="285.88 97.49 281.83 99.86 285.04 101.7 286.8 100.99 285.88 97.49"/></g><g id="Layer_3" data-name="Layer 3"><polygon class="cls-3" points="128.81 245.45 130.8 253.49 135.99 267.8 140.73 284.75 174.9 362.1 182.31 373.19 191.47 386.24 174.36 434.18 115.36 474.99 114.13 486.76 137.52 489.76 143.54 495.84 131.25 504.57 198.36 557.54 229.4 528.5 282.59 486.15 248.04 477.48 252.48 459.86 261.5 457.41 280.3 456.95 317.45 454.66 279.19 388.13 267 380.02 324.78 339.48 353.77 291.4 368.66 245.45 350.46 171.4 323.14 128.6 261.8 112.74 252.94 110.56 244.76 106.13 238.3 109.95 235.05 104.45 231.76 105.21 207.84 112.74 169.32 143.24 158.5 180.65 150.97 204.88 147.29 225.44 141.34 241.57 128.81 245.45"/><polygon class="cls-34" points="148.07 219.55 148.07 212.52 150.06 210.69 149.06 206.87 150.06 205.64 150.06 201.67 150.06 198.31 151.59 198.31 150.97 188.06 156.32 175.99 157.4 169.72 157.4 167.27 161.37 156.42 163.81 148.17 166.57 143.88 166.57 139.45 179.56 125.69 181.4 125.69 189.8 116.06 194.85 114.38 194.85 110.41 198.36 111.02 202.19 110.41 203.41 107.2 209.37 106.59 209.37 104.45 210.59 104.45 210.59 106.43 215.79 105.97 217.47 105.97 217.47 104.45 223.13 106.13 225.34 107.35 228.25 107.43 228.25 106.51 229.7 106.36 230.39 104.45 234.21 108.27 230.31 109.41 230.47 114.08 233.14 114.31 233.29 113.31 234.97 113.47 236.66 116.14 235.81 117.36 236.12 119.35 231.53 118.59 229.01 115.3 223.2 113.01 222.13 113.16 222.13 114.76 218.08 114.23 218.16 115.83 212.81 115.61 212.35 118.13 208.15 118.36 207.69 121.8 206.69 123.94 205.7 122.41 203.79 122.33 203.48 123.4 202.57 123.33 201.57 122.56 198.29 124.55 198.21 126 198.97 126.53 198.82 130.2 196.05 132.57 193.64 130.91 190.72 132.23 190.89 136.41 189.46 137.33 189.17 139.4 187.51 140.48 188.08 141.57 190.83 141.4 188.03 144.9 186.53 141.52 186.25 144.9 185.5 145.01 185.5 146.22 183.84 146.56 183.78 148.57 182.58 149.54 182.47 151.78 179.08 154.59 179.25 155.56 181.72 155.45 181.78 157.57 180.12 158.48 180.06 160.15 175.47 160.49 173.06 159.97 173.12 162 174.78 163.24 173.64 165.02 174.73 165.36 176.56 164.62 178.11 162.32 190.32 162.67 193.47 164.5 196.97 164.68 201.32 166.91 206.08 167.03 209.22 167.73 214.41 169.87 216.32 173.27 223.17 176.22 223.78 184.62 220.15 184.66 213.65 183.1 208.8 182.14 202.72 177.4 200.04 177.36 200.04 178.13 196.3 177.59 189.8 176.45 188.31 175.8 181.7 176.37 175.66 177.97 171.76 179.5 166.87 183.13 164.69 186.53 163.85 189.32 163.74 191.01 162.52 192.08 161.45 191.81 161.64 188.41 162.21 187.99 162.21 182.94 160.15 182.94 159.46 184.55 159.8 185.88 160.57 186.38 160.26 189.78 159.38 189.55 158.92 187.49 157.74 186.19 157.2 188.68 155.41 190.28 155.14 191.92 154.91 195.21 154.45 195.44 154.45 199.22 154.15 199.07 153.65 202.59 152.66 203.01 152.81 208.7 152.01 208.59 151.97 210.99 151.78 210.99 151.85 213.48 149.94 213.25 149.59 217.56 149.07 217.79 148.84 222.29 148.21 222.29 148.3 224.69 147.15 224.47 147.75 228.88 146.72 229.11 146.39 241.64 147.46 241.64 147.31 251.12 148.99 252.57 148.99 253.81 149.68 257.71 150.13 260.52 150.42 262.81 151.57 264.65 151.51 265.91 152.48 268.89 153.4 271.64 152.14 272.27 150.59 267.52 148.24 269.58 146.39 269.46 144.12 267.17 142.05 264.19 144 262.19 144.23 259.09 143.08 258.57 143.83 256.45 144.46 256.39 145.32 254.33 144.57 252.38 144.06 251.12 143.88 246.65 143.66 245.73 138.21 247.11 138.55 248.66 137.24 249.23 137.24 253.01 136.55 253.07 135.75 250.09 134.77 247.97 134.31 248.25 134.31 249.69 133.68 249.17 132.42 245.39 129.73 245.39 129.73 230.6 130.76 231.17 131.04 233.06 132.31 233.24 133.22 234.32 134.08 234.04 135.23 234.32 136.49 232.95 138.61 234.21 140.73 234.27 141.71 233.18 142.45 236.1 143.66 235.7 143.83 232.38 144.86 231.12 145.38 228.88 144.97 226.87 145.89 225.55 147.32 220.28 148.07 219.55"/><path class="cls-16" d="M167.14,180.65l1.53-1.07.38-1.34,1.15-.84.91-1.72,1.11-1.64a9.74,9.74,0,0,0,1.76.27c0-.12.46-1.23.46-1.23h2.33l1.15-.8,2-.19,1.07-1-.53-1.19-.84-.26-.88-1-1.42.35v.84l-1.41,0L174.08,168l-.29,1.34-1.57,1.56s-2,.35-1.91.54-.88,1.26-.88,1.26l-.3,1.07-1.3,2.18-.12,2.14-.42,1Z"/><polygon class="cls-35" points="188.27 167.5 188.27 169.07 188.96 169.07 188.62 172.4 189.99 172.74 190.19 172.17 191.75 172.32 191.75 171.1 190.68 169.19 190.72 168.27 189.84 167.5 188.27 167.5"/><polygon class="cls-10" points="192.29 167.27 192.52 168.27 191.75 169.19 192.52 169.72 193.78 169.72 193.78 171.21 194.85 170.9 194.85 169.68 197.56 170.6 197.94 172.74 199.43 172.43 198.97 169.38 197.29 169.34 196.45 168 194.43 168 193.97 166.85 192.29 167.27"/><path class="cls-36" d="M256.45,290.94l-2.44.77-.54,1.45-1.76.46v1.22l4.13.31,3.13-1.69,2.3-1.91,3.13.62,5.43.87.53-1,1.15.15,3.67,1.84,1.53-2,1.53-.69,3.74-3.21h5.35l.38,1.15,1.61-.69,3.59-3.29,2.14-2.9,2.06-1.3v-3.75l-.68-1.68.07-3.82-2.44-5.35L291,260.45l-2.52-6.12-1.61-2.44-1.53-.39-1.22,2-1.91-.69h-2.06l-.77,1.07-1.68-.07-.46-1.07,2.22-1.76,2.6-1.15.15-1.22L280,245.39l3.52,1.37-.54-5.19.92-1.07,1.15.61.38-1.91,1.07-2.68.61-1.68-.53-2.45L286,229.8,284.58,228l-.61-1h2l.22-1,2.37.77,2.53.15.61,1.61,2,1.22h.53l.69.53,2.21.08.53-.84,2.23-.23,1.68,1.07,1.3.08,2.14,1.83,3.51,1.15v-.77l.54-.7,2.41.63,2.92.8,1.83.86,2.47,1.38.46-.63,2.06-.06v-.46l4.24.11.52-1.09,2.75-.4,2.75-.8,1.44-1.2,1.2-1.15,2-.86,3.21-.29v-.68l1.37.17,1.09-.8.29-1.48,1.83-.47v-5.33l2.7-.35,2.35-1.49,1.09-2,1.72-.45.51,2.52,2.12.69.8,2.75h1.44v3.61l1.77,1.78.92,2v1.67l-1.89,1,.4,1.38,1,1.08-.17,2.3L356.27,239l2,1,1,.06-.51,1.83-2.07,1-.86,1.55.06,1.26-.57.29.11,1.32-.57.8-.12,4.47L353,254.33l-.4,6.36-1.09,2-.69,3-1,.35.34,2.46-2.35-.06-2.52,4.76-2.46,5-4.07,4.64-3.27,5.28-2.64,2.46.17,2.29,1.49.92v1.38h-1.66l-1-.86-.52,1.89-.11,1.83-.4,2.58h1l.06,2h-.86V306l-1.49-.46-.92-.74-.11,1.77-.69,2.13L326.29,311H324.8l-.23,3.09-1.43.46v2.87l-4.41,1.6.45,4.7-2.52.92-1.09,2.29-1.66,1.21-.46,1.49-1.6.86-.29,3.61-2.41-.69-.19,2.89-2,3-3.66,5.5-3.14.61.23,2.37L298,349.57l-2.75,3.36-1.83,3-.16,2.37-1.85,1-2.47,2.3-4.64,2-1.6,2L279,367.38l-2.46,2.23-2.13,1.09h-3l-3.21,2.18-2.29,1.6-.17,1.44h-1.61l-.34-.86-2,.86s.06.63-.34.74-2.92.58-2.92.58l-1.5.57-1,.86L254,377l-3-.12-1.43.35-2.81.11L245.29,376l-1.37.18-1.95,1.2-2,1-2.75-.17-.86-.17-.74,1.72,1.14.4,1.78,1.6,2.64.69h11.54l-.27.71h4.66v.73l10.82-.2,1,.92,1.76.23,0,1.22,1.45,1.07,1.18,1.57.69,1.72,1.57.42a8.72,8.72,0,0,0,1.07,1.22,4.13,4.13,0,0,0,1.45-.49,12.33,12.33,0,0,1,.8-1.3l1.11-.73,1.57-.88.68.46-.11,1.07-.11,1,2.36,1s-.87.27-.87.54-.46,1.26,0,1.26h1.92l.34,7.89H284.1l-.11-.86-3.33.06.63,1.2,1.09.46.69,4.53,3.44.4v.69h-1l.17,3.33h2.06s-.51-2.76.18-2.41l2.69,1.32.46-1.15h2.75s-1.38,1,.92,1,3.26-.05,3.26.52,2.35,1.09,2.35,1.09l.75-1.2.63-.92.23-1.43-1.15-.81,2.81-2.23-.8-.06.46-2.69,1.72-.81,1.66,3.16-.92,4.64s-2.12.23-1.89.4a3.75,3.75,0,0,1,.52,1.15l-1.49.11.4,3.21h1.09l1-.8,1.72-.17,2.41,3.09,2,2.07,1.43,2a16.16,16.16,0,0,0-1.89.75,28.53,28.53,0,0,1,2.69,2.46l.23-1.55,1.95-.34L316,421l1.72-.11,1.9,3.09,2.69,2.7-2.18.57,1.55,2.35.8,2.87-1.89-1.09-2.52,4,1.6.8-3.44,1.95-.05,2,3.44-1.15.8,1.55.74,1.2L320,443.39h-2l-.29-1.15-6.24,2.58.4,2.24-4,.74.46,1.15,1.26.51-1,3.39-1.38.86v2.23l-4.12,1.95-3.39-.86-1.72-.17-1.2-.69-1.38-.06-.34-1-1.83,1.21s-.4,1.09-.58,1.09-3.44.51-3.44.51l-.17-1.55-2.46.41-.86-1.72-2.18,2.12-3.78-1.21-1.61-.63-1.49.35.11.74-3.84-.34-4.53-2.64-4.24,2.64-9.91.69-.41-.86-13.24.68.29-1.43-5.27.06-3-1-3.84-.81-4.46-2.52-7.72-1.3L210,446.25l-5.81-1.14-5.42-6.5-6.81-1.22-2.29-1.53v-3.52l-2.22-2.21-2-.54-3,.16-.63-3.5-.74-.35V421l1.83-2.58-.17-3.84,1.49-1.32.12-1.6,3.21-.17,2.52-3.44-.34-8,1.37.11-.57-6,1.95.41-.63-7.51-.41-.86-.11-2.58h1.43l-1.72-3.5-.45-1.61-.35-.51-.06-2.52,2.24-3.47-3.27-4-1.43,1.31.4,2,.75.4v2.52l-.29-.05-.69.05.52,7.8.68,1.32.35,4.76-1.09-.12-.12,6.19-.8.18.29,4.35-1-.23v3.73l-1.15,1.49-1.26,1.43v1.15l-.52.4-1.2.92.11,1-1,.46-.06,2.24-4.93,4.7-.51,2.52-1,1.83v3.1l.75,2.58-17.31,10.45-8.56,2.91-4.59,4.89-8.56,3.59-1,3.29-3.52-.08-3.29,2.14-.45,3.21-3.14.23-1.14,2.14-6.5,6-2.06.61V469h-2.68l-2.06,3.21v2.52l-1,4.35h-3.51l1.68,3.37-.54,3.67,1.46,2h2.9L114,491l1.91-1.15L117.8,491l5.28.84h6l2.52,1.07,4.66-.69,1.46.69,2.44,1.53.69,3-3.06,1.61-1.22-.76-2.45.15L131,500.52,127,503.81l1.23,2.67,2,4.67H132l3.21,5.19,5.2,3.9,3.51,3.21,5.2,5.51,5.43,5.27,8,5.88,8.56,5,.08,2.06,4.66.77,2.07,2.44,5.82,3.77,7.46,5.5,2.35-2.52,1.54,5.16,1.55-.58.92-1.89,1.37-.46.18,2.93h2.23l-.06,4.3,1.21-1,.63-3.32,1.32-1.26,1.66.46,3.78-1.5,2.47-2.17,4.3-3.21.63-.86-3.21-.63,4.58-1.09.92-3.9,1.61-.86h3l-2.68-2.05-.46-3.17,2.91-1.6.69,3.25,1.72-.2a19.82,19.82,0,0,1,0-2.67c.11,0,2.59.76,2.59.76l-3.32-3.59,2.6-2.18,2.48,4.17v-4.32l1.88,0,.33-.76h1.5l1.22,1.33,1.57-.84,1.41-1.59,3.47-1,.69-3.3,2-1.55,1.26,0,1.37-2.52,3.62-1.92,1.94-2.29,1.9-.46,2.17-3.16,2.41-3.32,3.56-2,1.09-2.86,5.46-4.86,3.29-2.94,1.22-3.94,4.47-3.44,6.08-6.42,3.59-3,2.1-1.6,2.28-2.6,2.52-2.41,4.24-1.32,3.27-2.58,3.95-.68,3.56-2.07.51-1.6-4,2.29-10.55.4-2.46.8-7.11.12-.46,4.24-3.09-1-5.11-3.33-4.18,2.24.57,1-.17,2.06-1.89.63-2.87-1.26L266,474.69l-7.5-2.3-5.34-1.26,2.47-3.32,1.49-3-1.49-3.61,3.32-.86,1.72-2h2.87l2,2.7.51,9.28,1.21.41.34-2.87,3.67-.35L269.54,466l-.4-7.85,2.18,1.83,3-.46,3.95.63,2.18,3.1-.23,6.36,3.33,1.72,1.54-1.72,1.78-8.25,1.43-1.32,5.11-.57,1.14,1.09,1.09,1.37.12-3.55,6,.74,5.85.23-.75,2.75,1.78,1.44-1,2.12.8,1.55L311,466l-1.15-4.41L308.69,457l3.73-.45,4.07.63,3.61,2.17,2.58-1.71,4.13-1.21-1.26-2.46-2.81-.35-1.55-2.52,1.49-1.55,2.7-.91,1.77,1.31,2.12,1.44.75,2.52,1.78.8,1-3.61,2.35,1.15.4-1.32-2.35-1.78-5.45-1.6-.51-1.61,1.37-3.84,2.81.23.8.46.29,1.83,2.35.35.23,1.77,2.52-.86,2.12,2.3.52-2.47.52-1.26-1.32-2.29-.75,2.81-2.75-.69-4.24-4.59,1-3.72.81-3.79,2.17-2.81-1.89-2.92,2.12-1.09,2.3.29-.06-3.84h1.09l.69-3.73-1.61-.86-.63-4.47,1.84-2-.35-3.21,4-1.72.23-4.93,7.11-3.61,1-3.27-1.38-3.27-3.67-3.21-1.32-4.3,4.07.75,2.64,1.89,2,2.52,4.64-3.66,1.83-2.93L359,379.7l1-3.15-2.29-5.05.76-3.59,1.38-3.59-.69-3.44-3.82-3.67.15-6.11L356,348,353,344.22l-3.75-.08,3.14-4.59,2.67-.15-.23-2.52-.53-2.14,2-4.43,4.07-.54,2.2-2.67,1.68.07-1.14-2.52-3.67-2.52-.38,1.6-3.29.61-.23.77-2.68.07-1.14,2-3.59,4.05-.92,4.28.07,1.76-3.36,2.45-1.07,2.9-3.51.54-.92,6.8-1.22,5,.45,1.45h4.06l.76,6,1.76,5.89.46,4.58-2,1-2.37-2.45L338.16,367l-.69-3.21-.23-2-5-2.91.15-5.2.76-.07-.22-5.28-2.91-.07,1-3.59,2.76,1.14-.46-3.74-5.35,3.28-3.9,3.52.23,5.27-1,.16-1.45-3.21L320.66,353l-.08,2.67h-3.52l.08,2.75-3.52,1.23-.76,3.13-3.13-.76-5.89,5-1.22,4.43-3.14.55L298,373.87l-1.3-.53.15,3.59-.92,2.6-4-.31-.77,2.22-1.22,1.6-3.82-.22.07,1.83-3.59-1.38-6.19-1.6-5.43.46-.76-2.6,2.06-1,1.38-.39,4.74-.53.69-2.83,6-1.76L287,371.5l-.46-1.68,5.73-.69,1.68-2.29,2.91-3.06.75-2.6,1.69,1.3,1.45-1.6.23-1,1.61.22,3.13-2.52,2,.16.08-4.36,2.06-.77.84,1.38,3.36-2.29.23,1.83,1.53-.15L316,352l1.47-1,2-.58,3.1-2.63.8-1.89,1.89-.06-.28-2.81,1-2.12,3.5-3,1-1.15,1,.86.58-3.9,3.27-1,.22-3.33,1.9,1,3.49-5.22.69-2.52,1.43-1.49,3-.8.05-2.64,1.32-2.29,2.58-2.47,2.12.46-1.2-3.21.46-2.41,1.43-2.23-.92-4.76,1.78.11.69-4.07,1.26-4.7,1.83-1.89-.17-2.52,2.35-4.53-.11-2.41-.12-1.95,1.38-.34.69-2.69,1.54-2.64-1.43-.8-.34-2.58-.92-1.32v-.46l4-1.72v-1.61l3.46-8.88v-4.53l.52-1.15.46-4.75,1.37-2v-4.93l-.57-2.47-.69-1,.12-13.24-2.18-3.09-1.21-4-.28-2.41-.4-1.66.51-1.83.86-.75s-.92-2.81-.92-3-.28-3.33-.28-3.33l-1.72-1.66-1.84-1.49-1-4.36,2.64-2.06-1.72-4.7-3.78-4.59.45-4.81-6-12.5L347.45,154l-4.82-8.48L337,143.69l2.07-3.32-3-.8-3.67-4.47-1.15-3.67h-1.6L327,128.22,323.48,122l-3.44.57-5.84-4.7-3.9-3.9-3.55-2.18-4.25,1.61-4.86.34-3.05-2-3-4.36-4.13.81-4.81.46-5.39-1.27-12-.68L262.38,108l-1.49,3.78-.58,1-7.68-6.07,6.08,8.6,3.09-2.64s1.95.34,1.84.69-.12,4.7-.12,4.7l-5.39.69-5.84-2.07-4.36-1.83-1.26-.81-.92,1.27-4.13-1.49,1.49,6L239.56,121l6.08.69h5.27l5.73,3.33,4,1.37,5.38-1.83,6.08-2.52,2.06,1.14,1.5-.8,5-.12,3.32.81,5.16,3.9,2.07-.92L294,127.3l1.26,3,1.61-2.75,6.07,1,3.21,3.67.23,2.87,2.52-1.84,1.95,2.18-3.09,2.64L308,140l4.81-1-.34,1.61L310.87,143l.92.8,2.06-.23.35,2.29L312,147.36l-.23,1.38,2.87.69,1.64.19-.69,3.9,4.36-.16,1.22,6.12s4-.54,4-.23,1,3.06,1,3.06v1.45l1.45,3.9-1.83.91-4.59.39-2.29,1-2.91,1-3.51.69h-7.65l-1.6.46h-2.91l-3.05.53-.92.69-5,1.15-4.35,2-2.3,2.82-1.6,2.68-3.29.15-5.58,7.65.92,4-3.06.69-3,6.19-1.83.08.3,5.57-.76,1.38-.16,2.6-.45,2.22-2.91,3-.92,8.79,1.91,6,1.38,6,2.06,5.19-.22,5.74.61.68.3,2.6-.15,5,1.38,4,.07,2.37,1.76,4.51.15,2.9-2.14,5-2.06.15-1.38,2.6-2.21,3.36-3.9,1.84-3.44,1.53-.23,2.44-2.52.77-.31,2.29Z"/><path class="cls-2" d="M267,281.85l1.68,3.9H275s.3-1.23.61-1.23l3.51-.07v-2.6l-2.37-.54-3.7-1.07Z"/><polygon class="cls-37" points="274.8 275.35 276.1 274.59 277.24 273.29 281.45 278.02 277.01 277.19 274.8 275.35"/><polygon class="cls-16" points="281.14 263.5 283.59 267.17 286.41 269.08 285.57 271.83 287.64 277.19 288.1 282 289.47 279.02 291.23 277.03 290.16 274.74 290.54 272.75 289.32 272.75 289.93 266.41 287.48 265.26 288.78 262.81 286.19 259.22 281.14 263.5"/><polygon class="cls-31" points="276.88 263.33 275.85 266.02 276.36 270.15 278.37 272.27 280.38 272.27 280.38 268.03 278.48 264.94 277.74 263.33 276.88 263.33"/><polygon class="cls-38" points="273.41 264.59 274.99 264.39 275.85 269.52 273.81 269.52 273.41 264.59"/><polygon class="cls-39" points="296.2 246.31 293.68 252.65 293.68 256.93 294.94 259.61 294.94 263.33 298.57 271.76 300.1 276.8 299.48 280.93 298.57 285.75 298.26 288.12 300.86 291.02 308.2 291.4 308.2 287.81 311.64 286.28 315.31 282.99 315.69 282.61 319.05 278.41 321.34 281.16 321.34 276.8 322.03 274.59 324.78 273.29 329.45 272.6 329.45 267.8 333.8 266.96 328.91 266.41 333.8 264.88 331.74 258.84 331.43 262.81 329.06 257.54 329.45 262.59 325.01 263.33 322.64 261.13 316.68 253.87 312.71 254.18 308.88 250.51 303.23 248.6 296.2 246.31"/><polygon class="cls-39" points="338.46 267.8 339.69 266.48 340.76 263.81 344.12 262.36 342.36 260.75 338.46 262.74 338.46 267.8"/><polygon class="cls-40" points="181.4 178.2 183.92 178.59 185.45 177.21 188.58 177.9 189.27 180.65 193.55 182.25 194.77 184.4 192.32 184.78 190.01 187.68 188.66 187.15 184.83 187.3 183.19 188.36 181.85 189.59 176.35 185.92 178.49 186 178.95 181.8 181.01 179.73 181.4 178.2"/><path class="cls-41" d="M197.94,158.83l6.08-2,2.75-3.9,1.72-3.09,1.15,2.52,2.86-1.49,5.85.8.57-3.78,3.67-1.95-.8-1.61,3.9-1.14,4.24,3.32,2.75-1.95-1.26,4.24,4.7.58-.69,6.07,4.82-1.72,3,7.46,8.37,5.61,6-.57,8.83-6.88,7-.11,2.18.57v-2.52l6,1.72,7,2.06,8.37,6.38-3.9.5-4.13-2.41.34,4.53-2.52,1.55-1.26,2.65-4.93.67-2.75,4h-5.28l-2.29,3.09v3.44l-4.13-1.6-1.94,3.89-3.9,1.76,5.73,1.23-4.24,1.83L259.17,197l.91,3.67-.8,8.25h-.76l.3,4L256.76,217,255,220.47l1.68,2.75-.92,1.61.69,2.9,3.06,2.91-1.15,9.7.46,7.46,1.38,8.14.34,4.81h-3.21l-.11,3.53,3.09,3.52,2.52,1.72.46,2.75-3.78,1-3.1,2.37,1,2.37h-2.53l-.23,2.21H252.4L250.8,283l-3.39-1L243,278l-3.1-3.18L235.78,277l-8.37,1-2.87-1.23-1.15,2.07,5.05,5.27,4.81,4.7h2.18l7.11,3.9h3.9l1,4.7-2.12,3.21,1.15,4.7H238.3l-8.83,1.26-4.47,1-8.83-3.32-1.26-.12.34-3.21-1.71-3.67-4,.23-3.67-1.83-.68,2.64-1.72.34-3.21-3,1.6-3.1-2.52.81-4.13-2L192,293.89l-2.64-1.5L187.85,289l-7.1.68V287l-4.48-.69-1.72,2.75-.34-3.32L172.49,283l-.69,2.76-4.24-1.15-2.06-13.42-1,1.09v5.11l-1.14-10.9-4.82,1.32,3.9-4.47-2.06-3-1.26-7.79,4.58-3.56,1.72-1.49,1-6.53,12.73-.46,5.73,4.81,6.54,1.72,4.81-.23,4.7,3.33,5.05-1.38-.8-5.84L195.31,241v-3.9h-4.59l-4-.23v-3.55s6.3-1,6.3-.11,4.93.68,4.93.68,2.07-2.86,2.52-1.95,3.44,1.61,3.44,1.61l5.28-1.83L214,230.6l4.7-1.15,1.84,2.41h2.64l2.29-1.38L227,228l2.06-.57,1-2.52.92-3.21,2.18-.81,2.06-.46,2.07-3.32,3.21-.23,1.37-3.9-1.26-3.21-.34-4.12,2.75-.81-1.15-4.24.69-3.32,1.38.11-.92-4.24-2.52-1.26,2.29-3.49-1.26-4.42-2.06-3.29L232,172.74h-3.32l-4.13.76-5-5.5-6.19-.5-6.08-2.25-3.1-3.1-4.7-.34Z"/><polygon class="cls-27" points="159.31 239.73 161.98 237.06 163.59 235.76 163.59 245.92 161.45 241.72 159.31 239.73"/><polygon class="cls-42" points="167.03 211.3 165.42 214.89 169.85 216.42 172.83 219.63 176.35 220.24 180.63 224.37 182.69 224.37 187.43 226.81 195.53 227.5 199.89 226.05 202.95 226.13 208.45 226.43 212.2 225.75 213.5 224.22 218.85 224.83 221.6 223.6 227.69 221.16 231.76 218.56 230.77 216.04 231.46 211.83 230.92 206.33 229.4 206.33 229.09 202.89 224.12 197.69 221.68 193.57 215.18 190.28 207 189.59 201.73 189.59 195.61 190.36 189.12 192.57 184.76 193.11 182.24 194.41 181.93 193.11 179.18 194.18 178.64 196.24 176.35 195.4 175.51 195.48 175.51 199.3 169.62 203.27 169.17 207.94 169.78 211.15 167.03 211.3"/><path class="cls-43" d="M227.69,217.57V220l-4.41.84-3.52,2.07-4.89-.46-8.48.84-2.83,1.45-2.29-.92-3.29.54-3.21-.23-2.52,1.3-1.53.46L188,224.45h-2.41l-4.09-3.21-2.75-1.92-2.06-1.75L176,215.2l-.77,2.37-3-.61-1.3-.85,3.44-2.59,1.61-2.45.38-3.59h-1.53l1.84-3.9.61-2.68.76-2.29,3-.3,1.38-1.84s3.13-.84,3.51-.84a36.07,36.07,0,0,0,3.67-1.45l3.9-.69,2.68-.84,3.67-.69-.51,2v1.53l4.94.61,6.27,2.45,3.28.91,4.13.69.31,2.45,4,2.82,4.13,3.52,3,4.51v2.75Z"/><polygon class="cls-44" points="184.45 208.17 182.16 211.22 183.92 215.12 185.56 216.34 186.67 215.27 186.67 213.44 185.56 210.53 184.45 208.17"/><path class="cls-45" d="M195.69,203.35l3.44-1.3,9.48.65,7.33,4.32,4,3.13,6.26,3.6,1.84,1.14-2.14,3.52-4.13.76h-3.59l-2.83.61-6.65,1.68-6.11,1.3-7.19-1.45-2.06-1.76s-.61-.61,0-.61,2.9-1.91,2.9-1.91l2.37-3.28v-7.57Z"/><polygon class="cls-46" points="199.13 202.74 199.13 214.2 196.83 217.57 197.14 219.94 201.12 220.78 203.33 220.78 200.66 219.32 200.73 215.04 200.16 205.64 200.16 203.58 199.13 202.74"/><polygon class="cls-15" points="200.88 203.5 207.31 204.19 214.49 208.17 213.5 212.98 209.14 212.98 209.06 215.2 212.27 216.88 211.51 218.71 204.48 220.17 201.36 219.71 200.88 213.06 200.5 203.5 200.88 203.5"/><path class="cls-47" d="M218.35,133.2v2l.8.52.63,2.12-2.06.23.4,1h3.27l3.55-.46.69.46,4,.52-.52-5a15.82,15.82,0,0,0-2.52.75,11.58,11.58,0,0,1-1.49,1.12l-2-1.58-1-.06-2-.74Z"/><circle class="cls-48" cx="255.8" cy="156.15" r="11.04"/><polygon class="cls-49" points="214.45 244.3 215.43 245.45 220.64 244.3 220.24 242.64 214.45 244.3"/><polygon class="cls-50" points="186.55 264.12 186.06 270.15 189.92 270.57 190.34 271.3 193.55 271.64 194.2 273.02 197.22 273.02 198.52 270.12 196.3 269.16 192.78 265.72 186.55 264.12"/><polygon class="cls-51" points="249.19 270.5 251.54 272.9 248.02 276 247.13 275 249.19 270.5"/><polygon class="cls-3" points="208.83 284.75 214.45 281.54 216.32 278.41 219.31 278.41 221.68 276.5 223.2 278.02 225.19 275.66 225.5 272.6 229.32 272.6 230.01 269.52 233.75 270.61 240.78 266.56 240.78 261.9 243.61 262.51 243.61 259.76 247.13 254.64 246.21 250.81 244.3 248.37 243.38 246.99 240.4 249.36 239.79 252.96 236.66 255.02 238.3 259.99 235.2 259.22 233.14 254.64 230.16 254.64 232.3 252.42 232.3 248.6 228.63 251.66 228.94 260.22 223.97 269.52 219.61 270.08 219.69 271.07 221.22 272.27 220.99 275.66 219.23 275.66 217.55 272.68 215.48 275.66 213.19 274.89 213.27 276.95 211.36 278.33 209.29 279.17 208.83 284.75"/><polygon class="cls-4" points="229.64 279.15 228.27 281.45 231.94 282.13 231.94 283.22 233.48 283.51 238.76 279.55 229.64 279.15"/><polygon class="cls-52" points="271.83 206.58 272.29 211.74 275.27 208.36 271.83 206.58"/><polygon class="cls-53" points="281.24 202.91 278.71 206.29 279.98 207.04 286.97 202.17 287.25 197.64 285.31 198.55 285.02 200.9 281.24 202.91"/><path class="cls-54" d="M281.52,207.29H283l-.31,3.32-1.49,1.49h-1.87Z"/><path class="cls-55" d="M287.1,185.2l1.61,3.36,6.76-3.13-1,2.44,4.43-.3,1-2.37,8.87.46,2.52-1.69h1.34l-.46,1.57,4.55-.69,5-.3v-2l2.83-1.76,1.83,1,2.76.23.38,1.29,3.21.16,4.13,1.2,2.48,3,6.54,2.87.45-2.23-1.83-3.62-.12-3.94-3.17-2.52-.91-1.53-6.2-2.21-5.57-.85s0-.84-.46-.84-1.76,2.37-1.76,2.37l-2.52.08-.46.76-1.91-.38-.31-1.6-3.82.15.31,1.68-2.45-.61-1.38.92-3.13-1.38-3.13,1.76-1.91-.61-1.92.07-.15,1.46-1.37.07,1.37,1.61-1.53.84-1.6-1.38-1.15-.3-.15,2.44-2.29.46-2.14,2.29-.39-4.12-2.75,2.29,1.07,3.29Z"/><polygon class="cls-56" points="308.24 191.33 308.46 193.74 313.97 193.74 313.97 194.54 320.68 194.54 320.45 196.49 328.59 200.04 329.5 197.64 333.8 195.69 334.15 196.95 335.92 195.69 340.11 193.62 338.68 191.33 336.84 190.07 331.22 187.2 327.5 185.88 324.8 186.52 324.17 188.41 322.8 188.41 321.99 187.72 315.12 187.49 313.91 189.1 308.24 191.33"/><path class="cls-20" d="M272.24,218.33,275.9,217l6.77-5.27L285,207l2.14-1.26,4.51-1.09,2.64-2.35v-2.58a6.7,6.7,0,0,0,1.49,0c.17-.12,2.64-1.21,2.64-1.21h3.26l5.56-.68,1.95-1.15,2.12.92H315l5.1.86s5.1,1.77,5.56,2.4a21.14,21.14,0,0,0,3.33,2.35l3,.18,2.23,3.15h3.44l2.41,5.52h-3.27l1.43,1.47-1.6,2.3,2.29.74-.86,4.24h2.35l-4.93,2.3-6.3,3.72-6.25,2.3-13.53,1.26L297.34,228l-4.7-2.58-5.39-.8-3.38-.63-.46-.86-3.09-.23-1.61-.86-2.17-.46Z"/><polygon class="cls-57" points="285.19 214.09 285.19 216.1 283.81 216.1 284.05 218.96 286.68 221.14 288 221.14 288 217.24 287.25 216.73 286.74 215.24 285.19 214.09"/><polygon class="cls-4" points="300.21 206.58 300.21 207.9 302.22 211.34 301.59 216.32 300.21 219.65 294.76 222.75 295.05 223.72 302.56 224.52 314.83 224.52 320.68 223.03 326.58 217.62 327.55 215.98 319.99 207.96 314.31 206.18 303.88 204.17 300.21 206.58"/><path class="cls-46" d="M303.42,205.83,303.13,218l-3,3.95-.51,1.49,3,.52,13.75-.29,4.7-1.89,2.47-3.84-1.21-4.36s-2.29-3.8-2.46-3.88-7.41-3.86-7.41-3.86Z"/><polygon class="cls-58" points="304.45 210.13 305.08 214.89 305.31 218.73 307.32 215.69 312.13 212.1 315.17 211.74 313.11 209.16 308.69 208.24 306.34 207.96 304.45 210.13"/><polygon class="cls-36" points="317.18 144.1 318.38 150.12 323.14 150.12 321.76 146.16 320.16 147.65 319.01 143.24 317.18 144.1"/><polygon class="cls-59" points="247.78 115.45 246.13 116.18 246.67 117.75 245.25 118.43 245.83 120.19 248.24 120.42 248.88 119.54 250.45 118.59 250.45 116.79 247.78 115.45"/><polygon class="cls-60" points="345.84 342.04 347.16 344.22 347.16 348.46 344.75 348.17 345.84 342.04"/><polygon class="cls-56" points="345.15 362.5 345.44 362.62 349.74 364.34 350.31 368.12 345.95 365.31 345.15 362.5"/><polygon class="cls-12" points="331.22 359.06 334.2 361.36 333.57 366.4 332.31 366.4 332.02 363.94 329.9 362.73 331.22 359.06"/><polygon class="cls-12" points="331.51 377.52 331.51 381.94 333.63 381.94 333.63 379.19 331.51 377.52"/><polygon class="cls-16" points="330.76 383.14 333.17 383.88 333.17 387.38 331.51 388.13 330.76 383.14"/><polygon class="cls-61" points="337.66 368.79 337.47 372.61 336.75 372.61 336.75 375.59 339.5 377.81 340.57 375.98 341.79 374.56 341.24 372.32 337.66 368.79"/><polygon class="cls-61" points="336.98 380.02 336.75 385.63 341.18 387.94 341.98 389.96 345.73 389.2 345.38 387.32 341.98 382.32 336.98 380.02"/><polygon class="cls-61" points="347.68 388.93 345.31 391.49 345.08 394.7 346.8 396.5 348.48 397.07 350.92 395.24 351 392.81 347.68 388.93"/><polygon class="cls-53" points="329.33 405.55 331.97 404.02 333.76 404.79 333.76 412.7 331.32 414.92 330.76 413.35 332.16 411.9 331.28 407.92 329.33 405.55"/><polygon class="cls-62" points="339.27 397.38 339.27 401.35 341.48 401.35 341.48 403.76 339.73 403.76 340.38 405.75 343.2 405.84 343.62 398.83 339.27 397.38"/><polygon class="cls-61" points="349.24 344.14 349.78 347.35 347.73 350.94 349.39 352.55 349.78 355.61 353.22 359.06 355.51 364.47 357.42 367.61 356.2 371.12 354.44 371.12 353.83 368.79 351.31 369.9 353.37 371.5 352.15 375.78 352.58 379.73 352.58 383.88 350.92 384.99 351.86 385.89 354.21 383.14 356.05 382.81 355.74 386.94 359.1 381.44 359.82 376.1 357.73 371.5 359.69 363.44 355.91 357.74 355.97 348.46 352.99 344.22 349.24 344.14"/><polygon class="cls-63" points="357.8 316.47 356.88 317.46 362.31 321.59 365.22 319.83 365.22 315.48 363.08 315.17 361.05 316.62 361.05 317.77 357.8 316.47"/><path class="cls-64" d="M359.64,301l4.12-2h2.14l2.76-2.44,3.44.69v-2.6l-3.52-1.61L364,296.22C363.54,296.52,359.64,301,359.64,301Z"/><polygon class="cls-64" points="356.88 299.73 365.22 291.94 370.72 289.19 377.83 290.1 378.52 294.46 378.52 297.06 379.74 296.45 381.12 293.08 381.8 284.98 385.93 277.34 388.22 271.45 391.05 265.26 390.52 260.14 387.84 261.82 388.22 266.33 384.86 269.62 385.47 261.98 384.4 253.26 380.96 249.13 378.82 252.5 381.5 256.7 381.8 259.76 383.18 260.75 383.25 262.2 381.95 262.36 381.88 268.39 380.05 268.85 380.05 273.21 373.97 279.25 370.41 276.8 368.58 277.34 367.43 279.32 362.24 281.24 363.54 282.54 363.23 291.4 358.87 291.4 358.95 295.61 356.5 297.67 356.88 299.73"/><polygon class="cls-65" points="366.44 286.2 364.61 289.72 367.66 289.72 368.81 289.19 368.81 286.2 366.44 286.2"/><polygon class="cls-66" points="377.06 278.33 379.59 278.64 379.05 282.38 377.06 282.84 377.06 278.33"/><path class="cls-4" d="M201,311.58v6.11H202l-.46,3.52,1.91.31,1.14-4.36,3.52-2.37,4.05-.84,1.45,1.68,5,3.9,8.26,4.81,7.87,3.37,1.22-3-2-.54-.39-2.22h-2.2l-.92-2.33,3.12-1.95,2.69-1,1.68,1.07,3,.46.46,1.41,3-1.33,2.06,1.33,2,1.65,2.6-.77,6-.88,4.59-.95,3.67,1.3,2.59,1.83-.76,1.07h-3.13l-1.38,1.91H260l-.45,2.3-3.44,2.36-2.76-1.68L253,326l2.3-.08-.46-4.28-1.76.16.69,2.44-1.68-1.37-.62.61v1.68l-2.14,1.45s.08,2.14.46,2.37.54,2.06.54,2.06l.15,1.91-2.6.62.92-1.69-2.14.23L245,334.74h6.11l1.3-.84.92.84-1.15,2,4.05-.52,5.28-1.45,2.9.92,3-.62,1.3-1.45,4.4-.23,2.56-.91.46-3.67,5.35-3.75.53,3.36,2,.85-3.29.53-1.53,3.13,6.19-1.37-.76,1.07-4.13,1.15-2.06,1.68s.84,4.05,1.3,4.05,2.29-2,2.29-2l7.64-.78.46-5,2.91-1.22-3.37-.69-.84-1.15,1.38-.68,1.38-.39L292,326s.31-2.76.69-2.22a16,16,0,0,0,1.84,1.72h.68V320.9l3.29-2.75,3.67-6.95.38-6.58L299,301.49l-3.37-2.83-1.07.92.31,3.21-5.73,5.5-4.74.16-3.14-1.38-2.14.15-3.9-.91-4.5.53h-3.14l-.61-.46-3.67.54-7.57,1.6-6.19-.53-12.3-.69-1.45,1.53-3-.61-4.12.3-4,.38-3.28,1-3.9-.15-7.26-4.21-7.11,6.19Z"/><polygon class="cls-59" points="208.3 308.6 207.15 311.96 208.3 312.42 213.73 309.29 213.19 308.6 208.3 308.6"/><path class="cls-55" d="M256.61,312.65v1.76l9.63.46.76-.46,1.91-1.15,2.22.5,1.07-.58h2.9l5.2.58.92,2.63,4-1.37.54,4.74,2-2.22,2-.46,2.45-2.75,6.49-1,2.07-3.44-2.07-3.44-2.44,2.06-5.74,2-2.82-.15L283.05,309l-4.89.38-.77-1.14-3.51.53-.8,1.45H267l-.61,1.3s-1.15-2.14-2.07-1.83-2.67,1.07-2.67,1.07l-.76,1.6-1,.77-.61-1.53Z"/><polygon class="cls-67" points="284.35 338.94 284.35 341.62 286.34 341.62 289.09 339.48 284.35 338.94"/><path class="cls-68" d="M306.06,319.07c-.08.46-4.74,7.57-4.74,7.57v4.43H304l5.2-9.1v-1.75Z"/><polygon class="cls-69" points="202.49 360.65 204.48 363.02 208.07 363.94 208.07 360.27 202.49 360.65"/><polygon class="cls-70" points="226.11 334.59 225.73 341.24 230.08 337.19 226.11 334.59"/><polygon class="cls-70" points="240.1 351.63 243.08 352.17 242.47 356.22 240.1 356.22 240.1 351.63"/><polygon class="cls-71" points="174.9 302.94 174.9 307.3 177.27 309.06 179.33 304.93 174.9 302.94"/><polygon class="cls-71" points="181.47 307.64 182.08 312.42 188.04 309.52 188.04 306 181.47 307.64"/><polygon class="cls-72" points="189.8 309.06 189.8 313.11 188.73 313.11 188.73 315.17 190.57 315.17 191.33 319.76 192.94 320.75 195.31 318 194.54 316.93 195.31 314.41 189.8 309.06"/><path class="cls-73" d="M207.15,318l.92,4.13h-1.76l.84,3,.92,1.61,1.22,3.32-1.22,1.07-.92,1-.84-2.06-2.52,2.06v8.22l1.49,1.34v3.63l1.26,1.83v1.38l5.39,2.06.57,4.13,4.82,4.41h1l1.72,3.67,8.6,4.65v2.52l2.18-1.11,3.67,1.8,5.58-4.19,11.69-7.34-1-1.43,5.81,1,1.07-3-3.44-4.05,1-5.46-3.48-2h-3.86s-9.06-5.66-9.63-5.54-2.75-.92-3.33-.69-7.28-5.16-7.28-5.16l2.39-2.29,2.6,1.83-5-5-1.43,1.6-2.52-3.78-3.44-2.87-8.37-.91,2.75-1.53-3.78-.69L208.07,318Z"/><polygon class="cls-74" points="279.19 391.03 282.06 392.1 281.68 393.63 279.19 393.82 279.19 391.03"/><polygon class="cls-67" points="275.1 401.73 279 405.52 279.19 402.31 276.82 400.32 275.1 401.73"/><polygon class="cls-68" points="205.28 381.94 209.98 377.81 214.57 377.81 216.25 383.14 222.06 384.99 224.2 381.94 227.1 383.88 227.71 393.82 231.38 397.07 232.6 404.02 233.83 397.07 237.19 398.56 234.44 404.02 237.19 406.81 233.52 408.04 237.19 410.02 235.81 413.85 240.1 418.74 240.1 421.03 240.1 425.62 242.54 426.23 242.54 428.83 237.5 431.88 244.99 435.55 244.99 440.75 248.04 443.05 246.97 446.87 245.9 453.59 241.01 449.62 237.65 451.76 228.73 453.36 222.52 449.77 217.17 448.7 209.37 443.66 209.22 437.24 211.36 435.55 207.23 431.58 208.91 429.75 205.28 428.22 205.28 424.7 208.07 425.46 208.07 418.28 203.79 417.21 206.01 412.62 211.2 411.55 208.91 408.65 205.28 407.88 209.06 404.02 209.98 400.32 209.52 396.27 208.07 397.07 205.28 392.43 208.07 392.43 210.13 393 210.13 394.59 213.04 393.82 216.55 391.68 211.66 389.96 210.9 385.63 208.07 383.14 205.28 381.94"/><polygon class="cls-3" points="243.53 427.15 244.45 431.58 248.04 429.98 245.79 425.77 243.53 427.15"/><polygon class="cls-14" points="146.18 489.76 143.54 492.06 143.54 494.06 147.04 495.84 149.16 494.18 149.85 492.8 146.18 489.76"/><path class="cls-53" d="M150.42,489l.4,1.26h1.66v1.55h-1.54l1.54,1.66,3.5,1.09,3.33-.4,2.06-.8,3.55,1.2,3.84.4,1.21-1,2.06-.8,3.21.23,6.77-.75,3.84-1.6,2.92-.06,2.26-.4,2.82.31,5-.16,1.38-2.14,2-.3.54,2.52,1,.3-.3-5-2.3-1.07a14.87,14.87,0,0,1-1.45,2.06,24.93,24.93,0,0,1-2.9-.46l-5,.15-1.45,1.15-2.75-.46-7.19-.61v1l-2.83-.15.08.92-3.75-1.15-.68.92h-1.68l-.16,1.39h-2.44l.68-1.62-3.89.15-.39,1.47-1.68-.78-.23-.76-7-.54-.53,1.45Z"/><polygon class="cls-4" points="141.73 460.93 141.27 465.21 143.54 466.43 144.55 461.69 141.73 460.93"/><path class="cls-56" d="M144,470.56l.53,2.45h2.14l2.07-2.07v4.28l3.82,4.13.53,1.38,1.23-.46.84-2.22-1-2.41.69-1.79,1.76,1.07-.46,5.27,1.91,2.75.69-1.22-1.07-2.83,1.53-2.14,2,1.07.76,2.83,1.61-1.15,2.06-1.14,2.9,1.53,1.46-1.38,2.82-1.38,1.76-1.91,1.68-2.52,2.76,2.14-2.45,1.38-.84,2.6,1.68-.46,2.9-1.23,1,1.53,1.14-1.91,1.08,2,3.28.15.31-2.67L185,474.15l3.82-2,3.13,1.29,2.45.77,2.06,2.9V479l2.3-.84,4,1.37,3.13-1.37,2.14.76,4.82.61,3.06-.61,3.82-.46,2.6-1.22,3-.46,1.14-1,4.05-.23,1.61-1.38-3-1s-1.84-1.53-.92-1.61,2.83-.15,2.83-.15V470l-3.52-.31-3-4.58h-4.58l-5,.91-3.13-2.9-3.6-3.21-2.37,1.07-3.67-1.07L196,456.8l-1.37.84,5.35,3.52-1.38,1.91-2.9-1.45-2.45.76-1-.76-.92-2.3L188,455.43l-.3,1.3-2.45.07-.15-.38-2.9.08-.16-2.91-1.6,1.07-.23-2.37H179.1l-1.68-2.67-2.22,2.67,2.53.46-2.3,1.91h-1.3l-1.3-2.6-4.81.31.53,2.67-.45,1-1.46-1.3-1,1.68-1.68-.69H162.9l-2.22-.76-.23,1.22-1.83-.76.38-1.23-3.44,1.07,1.15,1.53-.54,2.07-.69,4.81-3.66-1.6-.16,1.6,1.45.77.08,3.28-4.36-3.36-1.22.15,1.84,3L147.69,470Z"/><polygon class="cls-29" points="191.03 476.83 192.86 474.99 194.85 477.98 193.09 479.96 191.03 476.83"/><path class="cls-75" d="M224.08,494.92l4.24,3.27,1,3.56,4.58,2.06,1-2.29h3.33l1-.23,4.82,1.72,2.75.8,4.24-1.61,1.38,3.1,2.63,4.47V512h4.13l1.72-4.24a25.82,25.82,0,0,1,2.75-.92c.35,0,7.68-6.42,7.68-6.42l-1.95-3.21,4.13-2.24.5-2.5-4.05-1.91-.23-3.06-3.52-.53-.84-3-3.59-2.07-3.36-4.39-1.46-1-1.37-.76-1.53.3-.23,1.42-1.83-1.72L250.57,478l-2.45-3-6.73,3.14-4.89-1.23,2.83,3.06h-2.22l.46,2.6-1.22.38,2,1.45,1.18,1.69-.15,1.3-1.91,1.52-.15-1.37-1.84.08-.38,1.14-2.37-.38-1.68-.92-.31,1.84,4,.67-3.52,1.24-1.76,1.3-.3,1.75,1.37,2.6-.07,2.6Z"/><polygon class="cls-67" points="202.03 499.22 202.57 501.29 200.2 501.98 202.57 504.57 206.54 502.59 202.03 499.22"/><polygon class="cls-67" points="220.76 497.39 218.24 498 218.24 500.06 221.22 501.9 220.76 497.39"/><polygon class="cls-56" points="311.33 438.57 311.96 441.55 313.62 442.07 313.97 438.57 311.33 438.57"/><polygon class="cls-12" points="337.36 437.71 336.1 440.81 337.36 442.41 339.42 438.75 337.36 437.71"/><polygon class="cls-76" points="155.44 422.29 155.29 423.5 156.73 424.07 156.44 425.1 154.66 425.45 155.18 427.77 157.99 427.91 157.24 429.86 159.97 430.55 161.03 431.64 161.03 433.04 162.83 433.04 162.72 431.58 165.9 429.17 165.61 427.67 164.15 428.08 162.89 427.67 163.12 425.16 165.07 425.68 165.1 423.84 163.29 423.1 161.97 421.69 158.36 420.86 155.44 422.29"/><polygon class="cls-77" points="159.69 435.82 163.36 439.99 168.78 439.99 173.83 442.59 175.28 441.98 173.68 437.69 172.3 435.82 169.24 437.39 169.7 435.02 167.49 433.34 170.08 430.51 170.31 433.04 173.37 433.49 170.92 430.51 175.97 430.51 175.97 432.65 179.79 431.96 175.74 434.71 174.75 437.46 176.96 439.83 177.19 444.95 181.17 445.64 184.38 446.48 185.06 451.07 188.35 452.45 189.27 450.46 190.87 451.3 190.87 452.14 194.54 453.13 195.31 450.54 195.31 447.32 199.66 447.78 200.04 452.29 204.86 449.62 204.86 454.28 202.41 452.98 201.12 454.59 198.44 453.59 197.52 454.59 199.98 458.77 202.19 457.34 203.79 455.81 204.86 458.77 207.84 458.77 210.82 456.88 209.98 455.12 208.3 454.89 208.15 453.59 211.89 451.83 211.89 448.55 208.3 446.56 202.95 445.64 200.5 446.48 198.75 446.02 199.2 444.64 198.82 441.75 197.52 439.99 193.09 440.83 191.03 439.15 189.04 436.62 188.58 434.1 185.79 432.12 183.08 431.58 180.48 429.59 178.64 426.61 175.43 425.77 159.69 435.82"/><polygon class="cls-52" points="179.33 434.02 176.88 437.08 178.11 441.52 179.33 441.52 179.33 440.29 181.01 440.83 181.01 436.85 180.55 434.33 179.33 434.02"/><polygon class="cls-78" points="184.99 439.53 183.31 440.6 184.15 443.73 188.04 446.1 193.24 444.88 193.24 443.66 190.41 442.27 189.34 439.53 188.04 438.31 184.99 439.53"/><polygon class="cls-2" points="212.73 457.19 210.82 459.63 215.71 465.36 221.14 465.06 222.75 462.99 225.04 462 222.97 459.63 224.58 457.19 224.66 453.98 221.55 450.38 215.79 450.38 215.56 451.68 213.12 453.59 213.12 455.05 215.56 455.12 215.71 456.65 216.94 456.73 217.93 454.66 219.69 454.74 220.22 457.11 217.93 458.77 212.73 457.19"/><polygon class="cls-35" points="225.5 459.63 227.03 459.63 227.03 464.45 228.48 466.28 226.99 467.12 224.43 463.68 225.5 459.63"/><polygon class="cls-23" points="227.1 454.05 232.83 454.74 237.04 457.19 240.1 458.41 242.54 456.95 249.65 456.23 250.34 457.19 252.86 457.87 253.4 458.77 251.25 459.63 254.54 461.24 253.17 462.84 250.87 462.84 251.56 469.64 250.11 470.79 246.29 470.18 240.82 468.57 237.65 467.12 236.5 468.04 232.6 468.12 232.07 469.34 229.7 468.73 230.16 466.28 230.92 465.82 230.39 464.22 227.71 462.42 227.64 461.24 228.78 458.77 228.48 456.34 226.45 455.2 227.1 454.05"/><polygon class="cls-38" points="235.89 460.62 236.96 463.38 239.03 462.42 240.5 460.62 235.89 460.62"/><polygon class="cls-55" points="242.31 460.62 241.09 462.42 244.45 463.38 245.79 460.93 242.31 460.62"/><polygon class="cls-27" points="226.11 334.89 226.11 341.31 229.47 337.34 226.11 334.89"/><polygon class="cls-79" points="240.02 351.78 241.4 356.83 243.76 353.39 240.02 351.78"/><polygon class="cls-30" points="498.44 410.48 476.43 399.02 475.05 391.68 478.03 384.99 470.69 377.81 465.19 375.17 462.21 368.79 447.99 362.73 438.13 355.22 436.3 344.14 439.13 340.78 443.71 340.78 449.37 347.35 448.61 351.78 451.81 353.77 455.64 352.7 459.15 347.81 460.07 348.46 460.07 351.02 464.05 349.64 470.31 350.41 471.08 352.85 473.52 352.09 473.83 355.91 477.95 359.58 482.08 360.95 486.98 365.31 489.73 370.43 493.7 374.56 496.76 376.55 497.06 383.12 495.69 383.88 495.84 388.93 498.44 394.43 498.44 399.63 497.22 401.61 497.37 405.84 498.44 410.48"/><polygon class="cls-5" points="437.68 344.27 438.04 354.63 450.17 360.78 451.03 357.8 455.22 360.1 456.08 358.66 448.97 353.85 445.59 352.53 439.97 345.31 437.68 344.27"/><polygon class="cls-72" points="439.34 349.43 439.91 353.73 443.29 353.73 441.57 350.81 439.34 349.43"/><polygon class="cls-8" points="466.11 455.77 470.12 459.44 474.94 459.44 481.7 456.8 491.45 455.77 493.74 456.34 497.41 450.5 502.8 449.12 502.22 447.17 500.05 447.17 499.13 444.19 493.85 438.34 489.15 442.47 485.83 442.47 481.47 450.95 477.69 454.17 471.73 456.46 466.11 455.77"/><polygon class="cls-80" points="478.38 463.8 478.38 470.9 482.39 477.9 484.45 486.15 484.45 489.59 488.24 491.31 488.24 496.7 490.41 500.14 497.18 504.38 500.73 501.63 506.81 493.26 503.25 490.05 502.8 487.76 499.24 481.45 494.2 477.44 494.88 471.71 495.8 469.3 492.59 465.4 485.25 462.54 482.62 461.05 478.38 463.8"/><path class="cls-8" d="M435.61,492.8a11.28,11.28,0,0,0,1.95.81c.34,0,3.9,7.79,3.9,7.79l4.36,3,4.24,1.15,5,3.78,5.51-1,3.78-2.29v3.32l3.67-2.63,3.09-1.5v-4.47l1.84-2.52v-3l4.35-.23-2.63,3.56-.12,2.52,1,1.72-.34,4.58,3.55,1.95v-4.93l2.76-3.32-1.27-8.95-2.63-5.5L477.34,476l-.11-6.19-.46-3.56-3-.91-6.88,6.19-7-2.75-9.86-.23-5.51,6.07-1.14,3.56-4,3-3.78,8.71Z"/><polygon class="cls-81" points="441.46 481.57 441.46 483.4 445.13 481.57 445.13 479.05 441.46 481.57"/><polygon class="cls-10" points="471.38 475.03 473.33 479.05 475.62 479.62 475.62 476.64 471.38 475.03"/><polygon class="cls-35" points="469.32 483.4 470.54 484.78 470.54 495.4 466.11 492.95 469.32 483.4"/><polygon class="cls-35" points="472.45 480.73 476.2 480.73 476.2 489.4 473.14 487.68 472.45 480.73"/><polygon class="cls-66" points="472.76 490.43 472.76 493.64 476.2 493.64 476.2 491.5 472.76 490.43"/><path class="cls-82" d="M401.79,470.33c.34,0-.57-2.29-.57-2.29l-5.62-.8-6.08-2.41-6.42-2.75L377,457l-1.84-6.88-2.41-3.32v-5.62l3.56-2.87,6-.63,8.94-.86,3.44.86,1,3.5-2.52,6.31-1.26,2.06,2.52,4,3.79,1.49,3-.34.65-3.44,3.13-4.59V444l-3.55-5.62-.12-7.33L405,423.1l4.93-5.39,6.76-4.82,12.39-5,12.49-3.44,14.51-3.67,4.64.87,3.67,4.75,5.5,3.55,4.93,8.94,3.56,1.61v2l4,1.6,2.06,5.74v3.55l-2.18,5.62-6.53,3L458.6,445,449.71,450l-11,1-9.17,8.37-5.62,5.85.23.8v2l8.14-4.13,3.32,1.84,2.41,2.86v2.87L434.46,475s-.57,1.15.46,1.15,5.28-1.72,5.28-1.72l-.23,2.41L438.13,479l-.8,4.36-3.21,3.9-5.5-3.21v-4.47l-5.28-2.75L415.66,475h-5.39l-1-2.06,6-4.93,3.44-4.13,4.7-7.91-1.26-3.21-.46-6.19,2.3-4.93-2.53-3.33L415.32,444,412,447.4l.81,2.29L410,451l-8,6.76,2.18,2.41,1.14,1.72V464l.81,3.09Z"/><path class="cls-83" d="M409.43,418.25V423l-4,1.15-1.61,5.16,1,6.3,2.52,4.24,5-3.55h4.82l3.78-2.29,8.71-3.56,1.84.69-1.26,3.21-.8,7.45.8,5.39s-3.44,1.38-2.87,1.72,5.73-1.26,5.73-1.26l4-1.38,7.1-2.75,4.36.52,2.87-1.78,4.81-2.18,7-1.72,2.75,1.27s2.29-.92,3-1.27,4-3,4-3l-2-3-3.78.58-3.1-1.72-5.67-.35-3.73-5.39-8.71.23-3,2.07.23-3.33,11.46-3.9,5.16-2.32,1.38-3.41.34-5.39-4.13-1.95-4.24,1.61-4.7-3.56-.57,1.95-5.18-3.44-3.08,2.07-9.92,1.48-9.65,3.82Z"/><polygon class="cls-39" points="414.17 426.5 413.14 429.17 421.17 430.32 425.18 427.57 431.71 426.5 434.24 423.44 438.02 423.44 440.77 421.61 442.03 419.66 437.79 419.66 435.61 417.25 433.78 421.95 429.31 418.17 428.62 419.88 424.38 419.54 423.46 421.38 419.9 423.78 414.17 426.5"/><polygon class="cls-65" points="405.29 446.2 406.38 446.2 406.83 450.5 404.37 451.3 405.29 446.2"/><polygon class="cls-84" points="384.54 461.56 376.92 456.63 374.56 448.2 374.85 444.02 378.23 440.52 381.32 437.82 388.2 437.82 392.39 438.63 391.59 443.27 390.04 445.8 390.5 449.69 393.99 454.57 393.42 456.29 389.58 458.98 385.62 462.02 384.54 461.56"/><polygon class="cls-18" points="376.68 444.71 376.39 449.92 378.46 454.11 381.5 455.02 385.51 451.3 386.77 449.87 385.45 445.28 383.9 441.73 381.58 441.73 376.68 444.71"/><polygon class="cls-85" points="151.59 278.25 147.46 279.15 145.7 276.65 144.02 276.95 144.78 281.33 141.65 281.92 143.25 284.37 146.31 282 151.59 279.15 151.59 278.25"/><path class="cls-4" d="M147.46,286.43l-3.4-2.69-.58,3.92-1.14,1.91v4l-.69.54-.54,6,3.18,3.28-1.19,3.44,3.52.39,1.22,4a23.41,23.41,0,0,1,3.21-1.45,45.35,45.35,0,0,0,2.83,4.28l.61-4.13,4.66,1.84.84-2.45L157.55,306l3.67,2.6,1.22-3.14v-6.61l-2.52-6.07-.84-6.19-3.37-.08L153,281.85l-1.37,2.9-1.15-4.24L147,281.63Z"/><polygon class="cls-56" points="144.75 298.3 145.72 302.94 146.98 303.17 146.98 300.48 144.75 298.3"/><polygon class="cls-14" points="145.55 296.29 146.12 300.74 148.3 301.45 147.27 296.29 145.55 296.29"/><polygon class="cls-80" points="144.75 291.02 147.55 294.57 148.3 293.77 146.52 290.22 144.75 291.02"/><polygon class="cls-86" points="149.04 289.81 149.9 293.77 151.17 294.12 151.59 290.9 149.04 289.81"/><polygon class="cls-78" points="149.04 295.38 149.04 298.3 151.97 298.3 151.78 296.84 150.31 296.84 150.31 295.15 149.04 295.38"/><polygon class="cls-87" points="149.04 301.17 148.7 306 151.78 303.58 149.04 301.17"/><polygon class="cls-86" points="152.48 299.56 152.48 302.37 155.01 303.17 155.01 301.17 152.48 299.56"/><polygon class="cls-14" points="151.34 307.01 151.59 310.63 152.94 311.08 152.94 308.6 151.34 307.01"/><polygon class="cls-14" points="155.01 306.21 155.01 309.71 157.11 310.85 157.11 307.64 155.01 306.21"/><polygon class="cls-16" points="157.93 302.37 157.93 305.24 159.94 307.01 159.94 304.26 157.93 302.37"/><polygon class="cls-61" points="152.14 289.81 154.49 287.64 155.75 287.98 155.75 290.22 157.59 292.85 158.5 296.29 157.93 299.22 156.38 300.74 154.6 300.74 152.94 298.66 153.17 297.23 155.01 297.23 155.32 295.38 154.2 293.37 152.94 291.02 152.14 289.81"/><path class="cls-88" d="M155.32,291.36c.09.23,0,2.83,0,2.83l1.12,1.24.83-3Z"/><polygon class="cls-89" points="161.48 313.95 158.93 311.88 157.11 311.88 154.43 314.35 152.94 312.86 148.3 313.12 145.86 315.5 148.3 319.8 151.97 322.26 152.48 323.87 151.34 325.01 151.97 328.85 152.94 330.52 154.15 335.1 155.35 337.91 159.25 337.91 161.77 339.86 161.77 344.68 164.24 348.23 161.71 350.98 156.1 356.22 155.05 362.1 160.11 370.01 163.09 375.75 160.22 377.35 159.76 381.36 158.27 385.83 157.93 389.5 162.44 391.68 164.24 394.32 164.24 397.3 168.13 394.89 170.88 393.82 176.73 395.81 181.78 397.3 181.78 398.79 176.62 398.79 172.49 401.54 169.4 406.59 170.43 411.17 174.67 415.7 176.88 415.7 181.66 411.29 181.72 409.05 184.19 407.5 185.08 404.26 188.27 400.32 188.26 393.82 189.69 354.54 190.95 349.38 188.73 341.24 180.75 336.08 172.26 324.61 167.45 316.01 161.48 313.95"/><polygon class="cls-90" points="147.45 313.95 147.72 318.77 151.97 322.26 152.48 323.87 151.39 325.33 152.14 328.91 153.04 330.89 154.32 335.5 157.11 335.5 159.36 332.75 160.68 328.74 160.45 327.65 158.04 327.82 160.22 326.05 159.48 322.55 155.47 321.29 155.29 317.96 152.94 316.24 148.93 313.08 147.45 313.95"/><polygon class="cls-3" points="156.73 313.95 156.73 317.16 159.99 320.02 159.48 316.99 161.66 315.44 164.24 315.32 162.44 313.78 156.73 313.95"/><polygon class="cls-46" points="162.44 316.53 162.44 319.68 163.89 320.02 163.89 317.22 162.44 316.53"/><polygon class="cls-91" points="163.89 328.39 163.89 334.2 165.88 337.91 169.85 333.52 167.79 329.16 163.89 328.39"/><polygon class="cls-92" points="169.32 336.04 163.89 337.11 164.24 341.24 161.77 340.01 161.77 344.27 163.17 346.69 167.64 344.27 166.87 339.02 169.32 338.41 169.32 336.04"/><polygon class="cls-34" points="172.03 354.88 174.9 357.86 179.33 354.88 179.33 359.01 176.5 360.27 176.5 366.57 179.94 367.49 178.45 370.59 174.9 369.55 173.98 363.94 171 355.45 172.03 354.88"/><polygon class="cls-93" points="169.32 333.15 171.8 334.59 174.32 331.72 178.57 335.5 179.94 340.43 173.29 346.69 171 346.69 173.75 350.64 174.9 349.83 177.12 349.72 175.47 352.47 175.47 354.88 172.72 354.88 171 350.98 168.41 350.87 167.45 348.23 167.64 344.27 166.19 346.69 164.24 341.24 171.57 337.22 169.85 335.5 169.32 333.15"/><polygon class="cls-5" points="169.85 340.09 171 341.36 174.9 338.48 174.9 336.04 169.85 340.09"/><polygon class="cls-94" points="178.3 359.47 180.97 359.47 182.12 353.92 183.73 355.45 183.73 362.1 185.33 366.46 182.47 368.06 180.4 363.94 178.8 364.74 178.3 359.47"/><polygon class="cls-95" points="180.86 341.36 181.47 350.41 183.84 351.63 183.84 346.5 180.86 341.36"/><polygon class="cls-44" points="184.76 349.26 186.71 349.26 186.13 356.22 185.33 356.22 184.76 349.26"/><polygon class="cls-15" points="175.97 399.78 175.47 403.38 173.52 405.06 172.07 407.27 173.68 412.24 175.47 410.41 175.47 412.85 179.33 410.41 179.03 408.34 181.81 408.5 181.81 404.29 178.8 403.3 180.86 400.09 175.97 399.78"/><polygon class="cls-96" points="160.91 378.38 163.05 377.08 166.64 379.07 168.41 381.9 169.4 387.4 166.26 390.31 159.59 390.31 159.59 387.17 161.6 383.69 159.69 381.59 160.91 378.38"/><path class="cls-97" d="M175.13,377.81v4.7l-3.37.53,2.83,4.36.54-2.6,2.83-2.52.34.76h2.41l3.21,2.68,1.83-.69.31-3.67-1.38-1.83-5.77.15v-2.14l-1.34-1.76s-2.82.54-2.44.54S175.13,377.81,175.13,377.81Z"/><polygon class="cls-69" points="164.81 394.51 169.85 392.83 173.29 389.69 173.6 386.94 176.94 385.03 178.3 386.18 178.3 389.46 179.48 392.75 180.63 394.51 178.59 396.36 170.88 393.82 164.24 397.3 164.81 394.51"/><polygon class="cls-98" points="179.64 387.4 179.94 390.92 181.24 392.37 183.23 392.37 183.23 395.88 185.33 395.88 186.59 391.64 183.99 388.01 184.3 387.1 179.64 387.4"/><polygon class="cls-87" points="168.78 375.4 173.45 370.97 177.27 372.05 176.43 375.78 173.29 377.81 168.78 375.4"/><path class="cls-46" d="M161.77,353.08l5.1.23s4,3,4.13,3.52a43.6,43.6,0,0,1-1.61,5.27h4l-1.27,3.9L171,370.2l.76,3.14-4.21,2.75-4.89-1.18-7.61-12.81,1-5.88,3.49-3.48Z"/><path class="cls-99" d="M161.29,354.23l-2.75,6c-.84,2.67-1.14,4.05-.92,4.14s1.53-2,3.67-6.28l2.07-4.21Z"/><polygon class="cls-15" points="164.49 355.68 160.76 360.99 160.45 369.67 162.66 374.91 167.48 374.91 167.87 370.97 163.36 369.44 163.89 367.76 165.54 366.54 166.87 369.52 169.85 368.06 168.78 363.94 165.54 362.73 165.15 363.25 162.75 362.73 162.75 361.41 165.54 360.99 164.49 355.68"/><path class="cls-89" d="M189.19,358.05l-1.3,5.05-4,.84.92,3.82-3.27-1.65v-4l-2.58,8.49,2.91,1.75s1.94-.38,2,0,0,4.74,0,4.74l3.21,1.38.08,7.57,1.24,2Z"/><polygon class="cls-100" points="171.69 331.68 173.29 333.36 174.59 332.52 178.49 336.19 177.96 340.39 176.96 344.45 178.8 345.06 178.03 352.93 179.71 354 180.1 349.87 180.94 349.72 180.94 340.17 183.38 342.54 183.38 345.59 183.84 349.64 181.7 353.24 183.84 355.45 183.84 364.39 187.74 363.4 189.27 350.1 191.48 350.41 192.71 349.34 187.43 346.13 187.2 342.99 183.61 339.32 182.2 336.34 177.8 331.68 177.19 330.46 173.37 330 171.69 331.68"/><polygon class="cls-38" points="184.45 349.11 185.68 349.41 186.13 355.68 183.84 355.45 184.45 349.11"/></g></svg>