<svg xmlns="http://www.w3.org/2000/svg" viewBox="0 0 34.16 34.16"><g id="Layer_2" data-name="Layer 2"><g id="OBJECTS"><path d="M7.59,3.8A3.58,3.58,0,0,1,3.8,7.59,3.65,3.65,0,0,1,0,4,3.85,3.85,0,0,1,3.8,0,3.69,3.69,0,0,1,7.59,3.8Z"/><rect y="9.49" width="7.59" height="24.67"/><path d="M25.81,9.87a8.32,8.32,0,0,0-7.21,3.79h-.19L18,10.44H11.2c0,2.08.19,4.55.19,7.4V34.16H19V20.68a5.82,5.82,0,0,1,.19-1.89c.57-1.33,1.51-3,3.6-3,2.66,0,3.8,2.28,3.8,5.31v13.1h7.59v-14C34.16,13.09,30.55,9.87,25.81,9.87Z"/></g></g></svg>