<?xml version="1.0" encoding="utf-8"?>
<!-- Generator: Adobe Illustrator 25.1.0, SVG Export Plug-In . SVG Version: 6.00 Build 0)  -->
<svg version="1.1" id="Layer_1" xmlns="http://www.w3.org/2000/svg" xmlns:xlink="http://www.w3.org/1999/xlink" x="0px" y="0px"
	 viewBox="0 0 478.4 392.8" style="enable-background:new 0 0 478.4 392.8;" xml:space="preserve">
<style type="text/css">
	.st0{fill:#FFFFFF;}
</style>
<g>
	<g>
		<path class="st0" d="M167.2,235.1c-9.3,0-13-0.1-22.3,0c4.2-6.7,9.7-13.9,12.1-18.2c10.3-20,16.4-55.2-7.3-72.1
			c-18.8-15.2-77.6-19.4-115.2,21.8C18.9,184.2-0.6,221.2,0.1,243l44.2,9.1c-1.2-18.2,14.6-45.5,25.5-58.8
			c18.8-23.6,55.2-39.4,63.7-30.9c15.2,16.4-43,72.8-68.5,81.2l13.4,23.6c2.5,0,28.8,0.3,70.2,0.4c1.4-4.4,3.4-11.3,6.8-17.1
			C159.9,242.8,163.1,238.8,167.2,235.1z"/>
		<path class="st0" d="M269.3,235.2c-17.6,0.1-32.3,0.2-50,0.2c-3.7,3.4-8.5,7.5-12.4,13.5c-3.6,5.8-6.6,12-8.9,18.4
			c27.5,0.1,53.4,0.5,80.8,0.6c0.2-6.1-0.6-12.3-2.3-18.2C274.9,244.6,272.5,239.7,269.3,235.2z"/>
		<path class="st0" d="M323.9,250.1c5.7-4.9,9.9-8.2,15.7-13c0-46.7,7.9-237.1,7.9-237.1l-53.4,26.7c-1.5,60.3-2.9,120.5-4.4,180.8
			c7.4,4.2,13.9,9.7,19.3,16.3C317.8,234.6,322.6,244.1,323.9,250.1z"/>
	</g>
	<g>
		<path class="st0" d="M387,369.5l-21.5,17.6l-143.2-0.4v-21.5c64.5-10.8,83-130.3,36.5-140.2c-27.9-6-63.6,9.9-70.9,58.9
			c-3.9,26.2,3.4,73.5,18.5,89l-42.6,19.8c-7.7-9.5-24.5-68.4-15-109.2c13.3-56.8,66.6-86.4,115.7-77.8c68.4,12,77,113.9,34.8,157.8
			h51.2c3.9-52.9,4.7-110.1,3.9-143.6l37.9-17.2C392.2,210.9,387,335.6,387,369.5z"/>
		<path class="st0" d="M476,373.8l-40,14.6c0,0,4.7-107.1,6.5-163.8c0.9-38.3,1.7-83.8-21.9-83c-14.2,0.4-29.2,31.4-28.8,58.9
			l-33.5-22.3c8.6-34.4,36.5-55,61-55c40.4,0,61.1,42.6,58.9,93.7C476,270.2,474.3,341.2,476,373.8z"/>
	</g>
</g>
</svg>
