<svg id="Head" xmlns="http://www.w3.org/2000/svg" viewBox="0 0 597.2 861.36"><defs><style>.cls-1{fill:#452b24;}.cls-2{fill:#90a9cf;}.cls-3{fill:#bbcae5;}.cls-4{fill:#bccae3;}.cls-5{fill:#afb5b5;}.cls-6{fill:#9e9d87;}.cls-7{fill:#a2a8a2;}.cls-8{fill:#6d7c69;}.cls-9{fill:none;}.cls-10{fill:#666d61;}.cls-11{fill:#7c806a;}.cls-12{fill:#6b553c;}.cls-13{fill:#575a4b;}.cls-14{fill:#986532;}.cls-15{fill:#81724b;}.cls-16{fill:#17121a;}.cls-17{fill:#211619;}.cls-18{fill:#111019;}.cls-19{fill:#38261c;}.cls-20{fill:#644122;}.cls-21{fill:#271017;}.cls-22{fill:#25111a;}.cls-23{fill:#15111d;}.cls-24{fill:#1f1223;}.cls-25{fill:#161120;}.cls-26{fill:#12121d;}.cls-27{fill:#11111b;}.cls-28{fill:#281019;}.cls-29{fill:#8d552c;}.cls-30{fill:#3b231d;}.cls-31{fill:#4e2c1f;}.cls-32{fill:#915e37;}.cls-33{fill:#693c2f;}.cls-34{fill:#9b633d;}.cls-35{fill:#683a24;}.cls-36{fill:#7a4932;}.cls-37{fill:#754b32;}.cls-38{fill:#935d37;}.cls-39{fill:#4d2c1f;}.cls-40{fill:#3c231e;}.cls-41{fill:#66341f;}.cls-42{fill:#4e2317;}.cls-43{fill:#351614;}.cls-44{fill:#3e1c18;}.cls-45{fill:#ce9151;}.cls-46{fill:#d99f5f;}.cls-47{fill:#e4ac6a;}.cls-48{fill:#ae713d;}.cls-49{fill:#824a27;}.cls-50{fill:#703717;}.cls-51{fill:#9c642b;}.cls-52{fill:#5b2913;}.cls-53{fill:#51261a;}.cls-54{fill:#5d2b1f;}.cls-55{fill:#66351b;}.cls-56{fill:#aa703e;}.cls-57{fill:#c38a4e;}.cls-58{fill:#fed4a4;}.cls-59{fill:#744a25;}.cls-60{fill:#734d2a;}.cls-61{fill:#a0733c;}.cls-62{fill:#a26a34;}.cls-63{fill:#cb9959;}.cls-64{fill:#e8b578;}.cls-65{fill:#ce9658;}.cls-66{fill:#753f1a;}.cls-67{fill:#8e612d;}.cls-68{fill:#c19354;}.cls-69{fill:#815b32;}.cls-70{fill:#4f3021;}.cls-71{fill:#8d5c31;}.cls-72{fill:#8e592f;}.cls-73{fill:#7f5730;}.cls-74{fill:#7f5531;}.cls-75{fill:#7f572f;}.cls-76{fill:#6d4828;}.cls-77{fill:#694428;}.cls-78{fill:#5c3b24;}.cls-79{fill:#221316;}.cls-80{fill:#231410;}.cls-81{fill:#23110c;}.cls-82{fill:#321513;}.cls-83{fill:#2b1213;}.cls-84{fill:#201217;}.cls-85{fill:#221317;}.cls-86{fill:#695540;}.cls-87{fill:#3b221b;}.cls-88{fill:#4a3227;}.cls-89{fill:#422821;}.cls-90{fill:#5a3b1f;}.cls-91{fill:#5d381f;}.cls-92{fill:#1c1320;}.cls-93{fill:#2b1b1d;}.cls-94{fill:#26181b;}.cls-95{fill:#171219;}.cls-96{fill:#271b1d;}.cls-97{fill:#15131a;}.cls-98{fill:#1a1119;}.cls-99{fill:#523c2c;}.cls-100{fill:#191113;}.cls-101{fill:#2b1312;}.cls-102{fill:#695137;}.cls-103{fill:#a4723f;}.cls-104{fill:#cc9556;}.cls-105{fill:#c98e61;}.cls-106{fill:#88542a;}.cls-107{fill:#5c2917;}.cls-108{fill:#6b3c18;}.cls-109{fill:#b47b3c;}.cls-110{fill:#ebac68;}.cls-111{fill:#d19558;}.cls-112{fill:#a77436;}.cls-113{fill:#edb67a;}.cls-114{fill:#fdca8f;}.cls-115{fill:#fcc898;}.cls-116{fill:#af7841;}.cls-117{fill:#7d4c20;}.cls-118{fill:#875322;}.cls-119{fill:#975e26;}.cls-120{fill:#623219;}</style></defs><path class="cls-1" d="M0,206.5c7.86,14,8.71,28,16.58,42l17-1.37,3.84,49.64,21.95,12.35-49.1,24.68q-4.11,49-8.23,97.92L17.13,515.9l34.56,19.75L95,475.3l7.41,1.65,54.31-82.84,20.57.28a613.72,613.72,0,0,1-54.58,134.4,613.54,613.54,0,0,1-63.36,93.26L32.76,685.41,15.21,668.13l.54,54.58C9.08,693.63-1.41,668.83,0,634.56-.91,491.57.91,349.5,0,206.5Z" transform="translate(0.28)"/><path class="cls-2" d="M0,0H595.59l-.82,215L-.09,209.73C-.36,139.82.27,69.91,0,0Z" transform="translate(0.28)"/><path class="cls-3" d="M13,101.45,78.84,62.78l167,18.92L208,139.3l-93.81,21.4Z" transform="translate(0.28)"/><path class="cls-4" d="M381.65,81.7l107,4.12c36.48,11.79,66.89,23,103.37,34.83-40.86,7.95-75.66,16.46-116.53,24.41l-23-42Z" transform="translate(0.28)"/><path class="cls-5" d="M182.52,185.38c-69.94-37-111.26-64.85-181.2-101.88-.18,13.3.65,31.19-.18,44.09C71.91,151.72,111.75,161.25,182.52,185.38Z" transform="translate(0.28)"/><path class="cls-6" d="M383.3,128.61l146.47,54.3,37.85-33.73c13.44-38.4,14.22-76.8,27.66-115.2.27,46.9.12,96.27.39,143.17-17.55,18.66-22,34.84-39.57,53.49l-67.48-7.41Z" transform="translate(0.28)"/><path class="cls-7" d="M0,14.23c8.23,36.2,12.19,72.41,20.42,108.62l183.49,76.52L130.68,341.73C88.17,332,76.73,329.45,65.3,326.91l-9.92-2.2C31.46,319.37,12.49,315-.09,312.1c0-30.82.07-118.44.08-149.26C0,132.25,0,44.82,0,14.23Z" transform="translate(0.28)"/><path class="cls-8" d="M371.78,112.15l107.79,52.66,11.52,51.84,69.12,6.58c18.1-26,17-55.43,35.07-81.48.82,47.17.24,97.67,1.07,144.84-74.33-2.46-128-4.93-202.36-7.4Q382.89,195.67,371.78,112.15Z" transform="translate(0.28)"/><path class="cls-9" d="M-24,81.7" transform="translate(0.28)"/><path class="cls-10" d="M52.51,335.14l40.32-28.8c16.46-1.92,30-20.91,46.49-22.83,13.44-16.46,42.31-15.64,55.75-32.09,6.58,28.52.62,56.84,7.2,85.37q-28.34,3.66-58.42,6.58-32.59,3.13-63.36,4.94Z" transform="translate(0.28)"/><path class="cls-8" d="M377.54,107.21l99.56,52.66q7,29.63,14,59.25l68.3,2.47c16.18-19.75,19.7-40.22,35.89-60v51.67c-27.71,11.79-42.75,22-70.45,33.81l-88.05-25.51,23-6.58-49.37-65-29.62,18.1Q379.18,137.67,377.54,107.21Z" transform="translate(0.28)"/><path class="cls-11" d="M0,114.62c9.87,13.44,17.13,26.88,27,40.32L139.73,178.8l23.86-4.11L194,192.79l-13.17,37.85q-5.34-18.1-10.69-36.21L53.33,227.35l-27.15-14C16.58,180.45,9.6,147.53,0,114.62Z" transform="translate(0.28)"/><path class="cls-12" d="M0,108.86c11.79,32.64,21,65.28,32.76,97.92l21.39,12.34,92.16-28,235.34-17.28q1.65,44,3.29,88.05l-209.83,10.7-20.57,5.76,19.75,4.93-4.94,7.41q-32.41-2.82-32.91,0t28.8,10.7l-63.36,4.93-47.73,28,27.16,14,119.31-15.64L309.24,317C205.29,425.66,103.69,533.86-.26,642.48Q-.26,375.47,0,108.86Z" transform="translate(0.28)"/><path class="cls-13" d="M382.47,163.17l28.8-14q25.11,31.26,50.2,62.53l-24.69,12.35,92.16,19.75c38.68-20,28.73-35,67.41-55.06-1.07,94.24,1.71,178.38,0,268.17-11.52,11.79-13.92,22.22-25.44,34,1.09,18.57-.06,53.95-9.33,65.55-3.29-22.49-7.4-63.36-10.69-85.85-12.07-9.87-27.71-23.86-39.78-33.74,9.33,2.75,25.79,4.39,35.11,7.13,8.51-2.46,17,.55,25.51-1.92C518.79,414.41,463,394.94,410,367.23,399.89,302,392.62,228.45,382.47,163.17Z" transform="translate(0.28)"/><path class="cls-14" d="M59.37,375.74l32.64,6,40.59,48L101.33,477.5l-57.6-12.89,69.4-38.13Z" transform="translate(0.28)"/><path class="cls-15" d="M444.19,323.62,545.4,312.1,556.92,345l28,19.75q-6.18,35.37-12.35,70.76L487,386.16a144.55,144.55,0,0,1-42.79-62.54Z" transform="translate(0.28)"/><path class="cls-16" d="M558,684.45q5.25,26.32,10.49,52.66,4.11,50.51,8.23,101l13-38.05L577.9,741c-1.3-13.51.28-30.93-1-44.44-4.11-5.83-11.1-7.75-15.22-13.57Z" transform="translate(0.28)"/><path class="cls-17" d="M452.83,394.39a11.6,11.6,0,0,1,14.81-5.56A112.76,112.76,0,0,1,508,420.1c26.13,40.94,31.95,82.43,47.93,123.64,4.53,29.62,12.34,59.45,16.87,89.07.14,15,.48,29.83.62,44.85-3.23-8.64-10-17.28-13.17-25.92l-24.27-38.68-3.09.21c6.79,13.78,17.08,27.36,23.86,41.14,1.72,8.71-.06,17.62,1.65,26.33l6.38-2.26,7.2,11.73L567,689l-4.73-.2-15.64,1.64-25.92-97.92L554,606.27,544,544.77A354.88,354.88,0,0,0,485.54,431,346.14,346.14,0,0,0,452.83,394.39Z" transform="translate(0.28)"/><path class="cls-18" d="M0,641.52c5.33,20.87,9.06,41.26,14.38,62.13L14.66,667,31.53,681.7q17-37,34-73.92-1.1,22.85-2.2,45.67a40.22,40.22,0,0,0,7.41,16c.85,1.08,9,11.9,10.83,15.67.26.52.78,2.79,5.76,3.84,4.79,1,8.08,3.68,8.57,3.29,2.34,2,4,3.5,6.31,5.49,1.58-2.2,3.84-3.91,5.42-6.1,1.14,1.13,4.35,1.4,7.2,4.11,1.32,1.26,3.34.48,4.53.41,1.3,2.2,1.57,4.08,2.88,6.28.48-1.58,1.4-4,1.88-5.59,2.68,1.85,6.07,2.84,8.74,4.69.3-.57,1.74-1.46,5.22-2.5,4.82-1.44,8.68,2.11,8.84,2.26,2.63-3.08.89-5.09.55-6.37-.5-1.88-.27-2.34-1.78-4.53s-3.82-6.71-3.77-8.71c1.91,1.12,7.69,5.45,10.14,10.36,1.08,2.15,3.45,2.53,3.71,4.11-.08.87.53,1.46,1,1.42s.8-.5.85-1.14l1.23-2.82a20.9,20.9,0,0,1,.21-5.07c.5-3,1.79-6.68,3.15-8,3.34-3.28,14.37,0,26.06,9.53-.78,2.1-1.55,4.2-2.33,6.31a99.44,99.44,0,0,0-16,5.35c-8.11,3.51-12,6.52-21,9.6a85,85,0,0,1-9.88,2.74,107.58,107.58,0,0,1-1,19.27A106.79,106.79,0,0,1,135,748.22l6.58,14.4,31.27,36,12.55-16.46,9.87-2.47,14.2,10.9,12.34-.82,4.53-4.32,78.37-38.88,47.11-3.29,80-3.09q2.46-12.44,4.93-24.89l14.81-6.58-35.38-34.56L315,690.62l-27.15-17.28-50.2-28.8c-.14-4.87-1.58-13.1-1.71-18,3-5.14,7.33-6.92,10.35-12.07l26.33,4.94c5.28-4.87,8-9.39,13.31-14.26,0-3.64,1.64-6.93,1.64-10.56-3.77-1.85-6.65-4.39-10.42-6.24q3.18-11.83,6.38-23.66c7.92-6.64,15.4-16.59,24.34-29.62,5.7-8.33,12.08-15.89,15.15-22.84l.41-19.13c6-6.79,12.17-15.93,22-23.31a163.38,163.38,0,0,1,45-23.59c8.78-4.6,18.65-7.54,27.43-12.14q-6.32-1.86-6.38-3.91-.17-5.39,42.79-12.13l7.4-10.29,12.14,1.85,30.86,11.73q7,13.41,13.58,27.77c35,76.79,49,152.12,52.86,217.85l-24.06-48.75-18.72-12.35A97.94,97.94,0,0,1,538.2,625a95.51,95.51,0,0,1,3.7,11.94c1.79,2.12,3.57,4.25,5.35,6.37q3.63,11.78,7,24.28,1.5,5.59,2.88,11.11l31.47,122L595,657.91q-.32,101.73-.62,203.45L-.15,861.15C-.63,787.78.48,714.89,0,641.52Z" transform="translate(0.28)"/><path class="cls-19" d="M355.87,499.71q1.78-6.3,3.56-12.61l11-14.27L430.47,441q-.41,6.3-.82,12.61l9.6,11-7.95,2.74L434,477.77l23-3.29,22.49,10.15-6,16.46L446.93,517l-23,21.67-25.51,17.83-10.42,14a46.27,46.27,0,0,1-9.33-26.33c-.53-23.12,17.66-37.36,19.75-38.95L380,494.5l-11,23.59-2.19-15.63Z" transform="translate(0.28)"/><path class="cls-20" d="M415.11,495.6q-1.64,6.58-3.29,13.17l9.6,19.2,32.09-26.88-14.26-.55,7.68-12.07L445,476.13Z" transform="translate(0.28)"/><path class="cls-21" d="M449.67,577.61,445.29,590l20.29,10.43,3.57-13.17Z" transform="translate(0.28)"/><path class="cls-9" d="M415.39,647l20-6.59q.42-3.84.82-7.68L450,640.42l-.55,8.51,8,18.1L439.8,658.8l-2.47-8.5Z" transform="translate(0.28)"/><path class="cls-22" d="M141.27,807l8.34,10.9,5.14-3.91Z" transform="translate(0.28)"/><path class="cls-23" d="M81.93,738.65l-9.06-4-1.54,5-2-3.09-4,.62.72,3.6-8,5.56-.51,7,22.32-3.29Q80.89,744.36,81.93,738.65Z" transform="translate(0.28)"/><path class="cls-24" d="M73.8,727.23l18.82,11.42,7.2-4.63,5.76,3,2.68-1.55,10.28,6.38-14.5-.62-4.11,1.44-7.51-.31c-.59,1.72-1.17,3.43-1.75,5.15l-23.56.41q3.56-5.4,7.1-10.8C74.07,733.82,73.94,730.53,73.8,727.23Z" transform="translate(0.28)"/><path class="cls-25" d="M88,729.81a5.11,5.11,0,0,0,3.09,1.74c2.4.31,4.88-1.47,4.73-2.46s-2.17-1.3-3.6-1.24A6.59,6.59,0,0,0,88,729.81Z" transform="translate(0.28)"/><path class="cls-25" d="M77.81,718.49c-.92-1.31-1.28-3.38-.36-4.42,1.19-1.35,4-.38,4.53-.21a9.56,9.56,0,0,1,6,7.61c.37,2.57-.29,6-1.74,6.33a1.79,1.79,0,0,1-1.39-.41c-1.44-1.17.09-3.43-1-5.35C82.64,719.82,79.56,721,77.81,718.49Z" transform="translate(0.28)"/><path class="cls-9" d="M49.89,734c1.8.65,4.41-1.73,5.7-3.86s2.12-5.38,1-6.22c-.71-.52-2.19-.11-3.08.72-1.86,1.73-.32,4.49-2.16,6.12-1.13,1-2.56.72-2.73,1.54C48.48,732.89,49.14,733.7,49.89,734Z" transform="translate(0.28)"/><path class="cls-26" d="M59.25,732.58c.53.93,4.2.64,6.27-1.39,3-2.91,2.16-8.9.67-9.41a1.69,1.69,0,0,0-1.7.93c-.48.93.5,1.59.36,2.78-.2,1.71-2.44,1.88-4.58,4.78C59.6,731.18,59,732.07,59.25,732.58Z" transform="translate(0.28)"/><path class="cls-27" d="M34.41,771.93c-.89-1.16.49-3.92,2.05-5.51,3.18-3.22,8.68-3.16,9-2.26.25.69-2.39,2.37-3.44,3-2.22,1.41-2.9,1.21-3.81,2.37-1,1.33-.89,2.54-1.9,2.88A1.8,1.8,0,0,1,34.41,771.93Z" transform="translate(0.28)"/><path class="cls-27" d="M28.23,783.81c.05-1.09,3.63-1.71,3.91-1.75,4.4-.73,8.71.79,8.64,1.44-.05.46-2.26-.18-6.07,1-1.83.56-3,1.22-4.57.78C29.3,785,28.21,784.42,28.23,783.81Z" transform="translate(0.28)"/><path class="cls-28" d="M229.53,822.38q-3.15,14.5-6.28,29l15.74,6Q234.25,839.86,229.53,822.38Z" transform="translate(0.28)"/><path class="cls-29" d="M148.78,631.06c-1.92,2.88-6.17,7.58-8.09,10.46,3-.69,9.24-1.44,12.21-2.13C151.85,637.2,149.83,633.26,148.78,631.06Z" transform="translate(0.28)"/><path class="cls-30" d="M131.37,647.14l-10.43,17.42,6.45,10.7L137.26,648Z" transform="translate(0.28)"/><path class="cls-31" d="M150,636.58l-9.19,7.27q1.71,10.5,3.43,21l10.56-18.37Z" transform="translate(0.28)"/><path class="cls-32" d="M171.27,630.69a4,4,0,0,0-1.92-2.47c-4.61-2.76-14.9,3.55-19.61,11.79-4,7-5,17.28-.82,20.44.12.09,2.05,1.49,3.7.82,3-1.22.61-7.32,3-13.58C159.48,637.71,172.28,635.66,171.27,630.69Z" transform="translate(0.28)"/><path class="cls-33" d="M136.65,645.46c-3,3.4-4.53,7.46-5.56,9.64a92,92,0,0,0-3.7,9c-1,2.87-1.23,4.24-1.78,4.25-1.53,0-2.59-10.33-3.16-10.29-.21,0-.29,2.85.14,13.17a15.15,15.15,0,0,0,7.4-1c10.66-4.4,14.06-21.89,10.56-24.27A3.47,3.47,0,0,0,136.65,645.46Z" transform="translate(0.28)"/><path class="cls-33" d="M126.57,647.42a19.63,19.63,0,0,0-8.64,5.62c-8,9.21-4.57,24.24-2.2,24.55.83.11,2.28-1.49,4.94-10.15q5.55-9.87,11.11-19.75Z" transform="translate(0.28)"/><path class="cls-34" d="M133.7,624.93q-1.72-1.65-32.23,26.88,1.36,5.69,2.74,11.38Q135.54,626.68,133.7,624.93Z" transform="translate(0.28)"/><path class="cls-35" d="M74.45,648.1c.89,8.39.2,10.86,2.2,12.07,4.7,2.84,17.88-5.17,19.74-15.5.33-1.79,0-4.23-.82-9C93.72,624,92.79,618.2,90,616.42c-5.07-3.17-15.3.17-18.65,6.45C68.5,628.12,72.67,631.36,74.45,648.1Z" transform="translate(0.28)"/><path class="cls-36" d="M117.62,624c7.72-2.66,17.68-4.21,25.4-6.86L164,624l-11.94,18.92c-1.92-3-2.09-6-4-8.95-3.33,4.07-8.42,8.17-11.76,12.24l-7.68-.13q-2.81-9.4-5.62-18.79C122,626.53,118.67,624.7,117.62,624Z" transform="translate(0.28)"/><path class="cls-37" d="M93.79,638.09c-1.54-.88-4.64,1.27-6.17,3.7-2.06,3.27-2,8.15-.28,8.92,1.89.86,6.37-3.15,7.27-7.68C94.66,642.77,95.38,639,93.79,638.09Z" transform="translate(0.28)"/><path class="cls-38" d="M133.29,625.06l-32.51,27.71c.69,2.37,1.37,4.75,2.06,7.13l10.6-12.13Z" transform="translate(0.28)"/><path class="cls-39" d="M124.65,648.93l6.72-9.33-4.26-3.7-21.66,18.79Z" transform="translate(0.28)"/><path class="cls-9" d="M133.42,644" transform="translate(0.28)"/><path class="cls-40" d="M64.44,636.51c.6.1,1.52-5.93,5.14-13.78a67.78,67.78,0,0,1,8.85-14.19L86,606.89q-3.39,4-6.79,8l9.6-7.73L93,603.81l.83,3.08-3.71,2.88,30-8.43,10.9.61,11.11,7.2-19.54,13.38,20-3.09-3.91,4.73,2.27,2.47,16.86-5.35a22.58,22.58,0,0,1-1.64,7.82c-2.35,5.74-6.38,8.47-6,9s4.28-1.14,18.72-10.08v3.29l5.45.31a29.63,29.63,0,0,1,7.38-2.19,28.63,28.63,0,0,1,7.3-.24l13.82,1.09-14.2-4.93-13.78,1.64-24.28-11.93-6.17-12.34-32.71-6.38-44.84,9.87C64,630.9,63.88,636.42,64.44,636.51Z" transform="translate(0.28)"/><path class="cls-41" d="M407.85,682.53l3.73-1.17,15.19,5.28a.46.46,0,0,0,0-.21c-.25-.5-1.46-.26-1.46-1-2.42-.09-9.21-1.66-9.46-3.63-.2-1.54,4.6-3.42,7.41-4.39l7,2.37,8.23,8.19q-1.65,3.22-3.29,6.45Z" transform="translate(0.28)"/><path class="cls-41" d="M372.33,723.12l31.4-.14q-2.75,7-5.48,14Z" transform="translate(0.28)"/><path class="cls-42" d="M139.11,714.48q-2.25,16.35-4.52,32.71a18.33,18.33,0,0,0,.18,1.89v0a34,34,0,0,0,2.48,7.75,30.32,30.32,0,0,0,4.53,7.3,27.39,27.39,0,0,0,2.06,2.16c2.33,2.21,9.83,10.64,28.8,33.12l14-17.18,9.67-2a82.56,82.56,0,0,0,17.9,14.6c7.94,4.8,14.59,8.81,23.66,8.64A33.91,33.91,0,0,0,257,796.77l50.81-2.88-68.5,1.44L236,790.59l15-.82,2.06,1.85L289.49,789l19.13-5.14L290.31,783,272,788.13l-38.68-.21-2.88,1.85-8.43-.2,5.76-4.53q7.91-.33,16-.82,10.17-.62,20-1.44l15.63-4.12,33.12-.2-8.43-2.68,18.72-5.35-3.71-4.93-15.42-20.78a36.67,36.67,0,0,0,14.4,13.58c1.92,1,7.65,3.88,9.87,1.85s-.43-8.61,1.44-9.46c1.09-.5,2.56,1.45,3.7.82,1.32-.72.52-3.91,1.24-4.12.91-.26,2.12,5,4.32,5.15,2.71.24,4.07-7.46,7.61-7.61,1.79-.08,2.27,1.85,6,4.93,2.91,2.43,6.14,5.12,9.88,5.15,3.15,0,2.87-1.88,10.49-5.15,3.81-1.63,8.8-3.27,8.85-3.29L421.56,748l14.4-6.38-.21-14.4,9.67,2.88a7.18,7.18,0,0,0,5.15,1.44c3.42-.54,6.34-4.33,6.37-9.25l6.38-2.27-4.11-4.32a27.18,27.18,0,0,0-7.82-22l-19.13-13.37-3.71,3.7,5.56,4.53a54.45,54.45,0,0,1-22.63-4.73c-5.12-2.35-9.88-6.39-12.55-4.63-1.55,1-1.75,3.5-1.64,5.55l4.62,2.58a11.81,11.81,0,0,1,5.15.2c3.67,1,5,3.49,7.81,5.25,2.05,1.27,5.37,2.47,10.8,1.75l-20.46-7.1,2.16,6.17,10.38,10.8a2.94,2.94,0,0,1-.82,2.47,3,3,0,0,1-3.91-.31q-4.63-1.35-9.67-3.19a149.43,149.43,0,0,1-16-7l-9.05-2.16,1.95,8.53a28.1,28.1,0,0,0,2.06,7.72c2,4.67,4.34,6.48,8,12.55a67.36,67.36,0,0,1,3.29,6.07l-21.8-9.26-4.43.92-2.57.42c.21-2.06.41-4.12.62-6.18q-5.72-8-11.42-16l-12.34-6.79-5,.41c-2.09.94-3.66,2.65-3.7,4.42-.07,2.61,3.14,5.65,7.71,5.25l12.14,15.53a5.39,5.39,0,0,1-2.57,2.16c-2.46.92-5.68-.31-7.82-3.19-.27,2.13-.55,4.25-.82,6.38l-8.75-.82-50.6-29.21-6.28-.31q1.71,4.11,3.4,8.23l9.77,9,8.13,6.37,8.84,3-3.29,3a153.53,153.53,0,0,1,13.47,14.19c3,3.6,5.67,7.13,8,10.5l.72,7-32.81-18.21-32-24.48a21,21,0,0,0,1.54,4.43c2.62,5.48,6.82,8.11,10.18,10.8A52.9,52.9,0,0,1,283,739q3.81,4.89,7.61,9.77a3,3,0,0,1-.72,2c-3.65,4-20.1-5.68-25-8.64l-17.18-11.73c-.45-.12-2.51-.63-3.08.21s.39,2.14,1,3.08c4.57,6.74,10.06,10.19,9.36,12.24-.31.94-1.81,1.22-2.46,1.34-8,1.48-21.61-9.1-24.38-11.32l-5.66.42,2.37,9.36L219,748.94l-5.86,2.57-5.55,1.54a99.7,99.7,0,0,0-12.35,6.79,101.15,101.15,0,0,0-22.21,19.54l-6.69-2.26a25.34,25.34,0,0,0-8.23-14.4,24.68,24.68,0,0,0-10.39-5.25c-2.05-.06-3.08-1.78-5.14-1.85-1.44-3.36-3.91-5.07-5.35-8.43Q138.19,730.84,139.11,714.48Z" transform="translate(0.28)"/><path class="cls-43" d="M281.16,757.47l8.64,1.14.41,2-4.42,2.68Z" transform="translate(0.28)"/><path class="cls-44" d="M278,775.27l17.18-1.54-4.53-1.55-1.33-3.7-2.37.62.72,2.47-8.85-1.44C278.52,771.84,278.25,773.55,278,775.27Z" transform="translate(0.28)"/><path class="cls-45" d="M155.16,663.67c-1.37-6.27.6-12.42,1.23-14.2,4.44-12.47,16.43-17.63,19.14-18.72l7.61-1.85,44.23,8.44,41.76,19.54,38.46,30.45v16.86L278,690.62c-.75,1.3-1.51,2.6-2.26,3.91l39.91,42.17q-2.78,4.83-5.56,9.67l-48.55-35.59a517.81,517.81,0,0,1-50.4-14C163.19,680.82,156.72,670.78,155.16,663.67Z" transform="translate(0.28)"/><path class="cls-46" d="M201.86,655l-19.55.82a9.94,9.94,0,0,1-7.4.21c-4.07-1.67-6.65-6.54-6-11.93l10.91-12.76,13,9.46,9.25,2.27Q202,649.06,201.86,655Z" transform="translate(0.28)"/><path class="cls-47" d="M167.91,643.1l17.9-13.17,10.29,16.46c.9,4.47.13,6.58-1,7.61C190.59,658,176.49,649.09,167.91,643.1Z" transform="translate(0.28)"/><path class="cls-48" d="M178.61,630.34l-20,18.52L158,662.43a69.14,69.14,0,0,0,16.25,6.79c10,2.71,13.81,1.29,20.57,4.94,5.55,3,6.15,5.67,11.93,10.9a63.72,63.72,0,0,0,22,12.76l11.72,1a7.39,7.39,0,0,1,1.65-4.53,7.64,7.64,0,0,1,5.55-2.67c.34,1.57.69,3.15,1,4.73a32.36,32.36,0,0,0,19.54,5.76l1.44,7.61a17.35,17.35,0,0,0,17.08,4.11l-11.52-13-8.23-4.52-.41-10.91a14,14,0,0,1,5.14-1.85,14.74,14.74,0,0,1,9.26,1.85,15.75,15.75,0,0,1,4.52,4.32c2.37,2.92,7.19,6.05,18.11,6.59V686.5a52.81,52.81,0,0,0-12.55-11.72,54.26,54.26,0,0,0-28.39-8.85l-3.29-13-16.25-7-7.41,3.08-10.9-9.67A266.67,266.67,0,0,0,196,631.54c-4.88-1.06-10.44-2-15-2.77a117.6,117.6,0,0,1,21.91.34c15.28,1.78,27.27,6.5,49.78,17.9,13.87,7,31.11,16.26,50.6,28q8.44,13.07,16.87,26.13c-.87,2.3-2.45,5.25-5.35,6.38-5.09,2-11.74-2.68-18.51-7.41-7.11-5-10.18-8.78-15.84-8.64-1,0-3.69.09-4.53,1.65-1.29,2.4,2.56,7,7.41,11.93,15.7,16,24.58,18.12,32.09,30.44,1.68,2.76,6.28,10.31,4.32,12.35-2.62,2.72-16.89-4.48-59-37.44l-4.32.61,26.74,26.75-7.81,8.84-30.86-20.16-43.82-15.63q-6.78-10.6-13.57-21.19l-10.7-8.85-17.28-3.08a42.68,42.68,0,0,1-3.7-9,41.79,41.79,0,0,1-1.44-8l2.46-15,14.2-13.38Z" transform="translate(0.28)"/><path class="cls-49" d="M63.93,636.62c.23.76.75,2.38,1.64,2.47,2.1.2,4.64-8.25,6.48-15.54L85.63,618l2.26,5.76L77,630.55l8,.2-9.46,15.84,3.7,3.3,13-11.32L95.3,640,91,668.3l10.18.92,2-7.81-.41-9.47,30-26.33-6.7,7.67-13.26,15.17,13.79-11.11,3.9,2.47-6,9.05,12.75-.62c.35-.82.69-1.65,1-2.47l2.68.82c-.42,2.2-.83,4.39-1.24,6.59-.76,1.8-5.55,13.5.21,21a12.37,12.37,0,0,0,2.26,2.26l2.67,3.19,5.35,3.4,7.2-.62-.61-4.73,1.85,2.47,8.23,6.37L185.61,689l-.62,5.14L188.9,697l6.37,14.1,14.61,14.09q.15,8.33.31,16.66L194,751.71a103.65,103.65,0,0,0-18.21,12.76c-2,1.75-3.84,3.51-5.55,5.24l-.93-5.45a53.45,53.45,0,0,0,13.07-14.09l-7.51.52q-3.45,4-6.89,8l-2.16-.62.72-2.67,9.87-17.49L170.79,734l-7.2,1.65-4.73,4L154.23,744l-3.39-.62q9-11.31,18.1-22.63l-1.64-5.45a2.91,2.91,0,0,0-.93-1.33c-4.46-3.54-19.42,8.88-21.7,10.8l-4.94-4.12c1.1-2.67,2.2-5.35,3.29-8l28.19-13-32.3,14q-1.23,16.25-2.47,32.5l4.32,10.29,7,1.44q4.13,6.48,8.23,13l2.88-4.32q1.33,4.83,2.68,9.66,1.64,2.07,3.29,4.12l9.26.82,20.77-20,20-9.26,14-4.32q-2.07-5.36-4.12-10.7l3.7-.82a34.41,34.41,0,0,0,25.51,14.81l4.32-4.32-13.16-13.78c0-.66,0-2.08.82-2.47s2.21.66,2.67,1c6.22,5,13,9.37,19.34,14.19,10,7.58,23.69,9.16,25.3,6.38.48-.82-.08-2-2.67-5.76a123.13,123.13,0,0,0-13.17-16.25c-11.92-11.74-15.92-15.27-15.63-15.64s8.43,4.7,17.49,11.73c21.88,17,30.33,29.7,43.81,29.83,3.08,0,4.26-.62,4.73-1.44,2.39-4.17-9.65-19.44-18.1-26.54-.91-.76-4.12-3.4-3.5-5.35.54-1.67,3.49-1.42,3.71-2.47.48-2.27-13.09-4.5-23.66-14-5.19-4.66-9.57-11-8.43-12.35s7.94,2.53,14.81,6.59c10.06,5.93,23.95,14.3,40.93,25.09a5.9,5.9,0,0,0,8.44-7.81l4.11,5.34,8.85-2.26a53.24,53.24,0,0,0-3.09-10.08c-1.76-4.2-2.64-6.3-4.52-7.61-3.88-2.71-8.22-.69-9.67-3.09-.84-1.39-.17-3.37.62-4.93a26.53,26.53,0,0,1,13,4.11c12.15,7.89,12.53,23.32,12.54,24.89l10.08-2.47c2.36,1.08,10.25,4.64,16.46,7,1,.39,3,1.11,4.12.2s.76-3,.61-3.9c-1-6.17-10.52-17.78-13.37-21.19l-2.26-8.44a55.2,55.2,0,0,1,13,4.94c6.07,3.24,7.71,5.6,13,7.2,5,1.52,12.55,2.13,14-.62s-3.34-8.61-10.91-14.6l-.41-3.71,11.52,4.94-13.57-8.84-3.91,2a3.17,3.17,0,0,1-2.88-3.7,3.14,3.14,0,0,1,3.91-1.65L434.52,689l-16.46-7.2a5.76,5.76,0,0,1,2.47-2.67c4.25-2.22,9.91,2.9,10,2.94h0l.13.14c.76-.61,1.51-1.23,2.26-1.85l-10.28-5.55c-3.27-1.24-11.2-3.69-19.75-.62a25.9,25.9,0,0,0-5.35,2.67,24.09,24.09,0,0,0-14.6-.41,22.93,22.93,0,0,0-7,3.5l18.93,9.26-4.73,1.23c-1.92-1.1-4.09-2.31-6.52-3.56-3.11-1.62-4.94-2.44-6.79-1.79a4.5,4.5,0,0,0-1.23.69,27.72,27.72,0,0,0,8.5,5.28,22.35,22.35,0,0,0,6.65,1.64c0-.1-2.46-.83-13.85-3.7-1.59-.77-3.92-1.87-6.79-3.08-5-2.13-9.22-3.54-10.42-3.91-8.54-2.63-15.42,1.55-26.33,3.29A59.54,59.54,0,0,1,309.45,684l1.23-9.46-17.76-5.9,9.53,6.31-6-.41c4.24,4.2,7.54,7.41,9.46,9.26,6.24,6,8.92,8.5,10.28,13,.39,1.25,1.79,5.87-.2,7.61-1.47,1.29-4.34.6-10.08-2.06-13.18-6.11-22.18-13.68-28.8-12.75a4.72,4.72,0,0,0-3.29,1.64c-1.3,1.88-.09,4.79.41,6,3.15,7.52,30.88,30.35,34.76,33.53l.83,6.38-8.85.41a12.85,12.85,0,0,0-14.81-11.31L259.87,707.9l-7.82.82,24.69,24.69a5.83,5.83,0,0,1,2.47,6.78c-1.11,2.83-4.94,4.37-8.23,2.68l-27.16-19.54A103.43,103.43,0,0,1,207.21,711l-7-1.64-9.67-15.64a17.48,17.48,0,0,0-1.85-6.37,19.29,19.29,0,0,0-10.9-9.06l-13.17.42-8-10.29q-.32-8-.62-16a47.5,47.5,0,0,1,8.23-12.75A55.35,55.35,0,0,1,178,629c-2.47.48-6.21,1.72-8.68,2.2a59.94,59.94,0,0,0-6.58,5.55c-5.55,5.42-9.68,9.46-9.46,14.4.13,3,1.8,4.79.62,6.38a3.82,3.82,0,0,1-4.74.82c-1.58-1.13-1.88-4.63.62-7.82l-5.55,8.85q-.62-8.24-1.24-16.46l7.61-4.94-10.69,2.47L136,645.36l-6.17.62c1.09-2.68,2.19-5.35,3.29-8l10.49-8.84-2.26-1.44-9.88,8.84-3.29-2,10.7-9.67-18.31.41,21.81-16.05q-5.57-3.79-11.11-7.61l-11.52-.82L92,607.41l1-3.19-18.3,3.7C72.26,611.43,61.11,627.69,63.93,636.62Z" transform="translate(0.28)"/><path class="cls-50" d="M353.67,687.87A56.45,56.45,0,0,1,364.23,691c5.09,2.08,6.06,3.37,6.45,4.52.74,2.19-.45,4.45-1.1,5.49q-4.27-3.37-8.64-7Q357.21,690.95,353.67,687.87Z" transform="translate(0.28)"/><path class="cls-51" d="M349.56,698.33c3.22,0,3.22-5,0-5s-3.22,5,0,5Z" transform="translate(0.28)"/><path class="cls-52" d="M354.5,681.43l10.15.82c1.59-.62,3.63-1.35,6-2.06a80,80,0,0,1,8.78-2c10.94-1.78,20-.16,20.09-.62s-14.67-5.21-21.12,1.3a8.88,8.88,0,0,0-1,1.24l6.31,2.88,12.68,6.65-5.69,1.57-11.38-6c-1.81,0-2.77.14-2.88.55q-.4,1.5,14.4,7.13l.69,1.92-25-9Z" transform="translate(0.28)"/><path class="cls-53" d="M89.74,629.11l20-22.22,11.93,6.38Z" transform="translate(0.28)"/><path class="cls-54" d="M101.88,652.15l1.85-7.82,7.2-5.35q-.11-6-.2-11.93c-3.56,5.23-6.16,9-7.82,11.32A29.72,29.72,0,0,0,98,648.86c-.57,2.47-.45,3.63.21,4.11C99.34,653.82,101.72,652.26,101.88,652.15Z" transform="translate(0.28)"/><path class="cls-55" d="M153.58,734.09c5.53-4,7.3-7.59,8-9.46.79-2.28.27-2.88.13-3-1-1-3.93.58-4.38.82-4.27,2.27-8,7.58-6.45,10.15A3.62,3.62,0,0,0,153.58,734.09Z" transform="translate(0.28)"/><path class="cls-55" d="M160.71,756c2.69,1.08,9.41-6.19,10.56-13.57.12-.74.58-3.67-.41-4.12-.45-.2-1.15.14-2.47,1.37-4.46,4.2-3.48,6.93-7.26,11.25-.7.79-1.92,2.06-1.65,3.43A2.31,2.31,0,0,0,160.71,756Z" transform="translate(0.28)"/><path class="cls-56" d="M144.46,725a6.29,6.29,0,0,1-4.11-2.67c-1.47-2.44-.8-6.11,1.85-9l40.11-18.31,6.38.61A63.32,63.32,0,0,0,210.91,725l.41,18.1A145.27,145.27,0,0,0,167.5,775a15.78,15.78,0,0,1,0-4.94c.81-4.88,3.94-8.4,6.79-11.52,3.68-4,6.45-5.67,6-6.79-.38-.87-2.49-.82-4.32-.61a22.05,22.05,0,0,1-4.53,6.79c-1,1-4.59,4.65-6.38,3.7-1.14-.61-1.05-2.85-1-3.5.19-4.86,4.05-7.25,9.05-15.63,1.25-2.11,2.13-3.85,1.44-5.15-.86-1.6-3.64-1.63-4.32-1.64-4.45,0-8,3.2-9.67,4.73-3.12,2.91-3.35,4.69-5.76,5.35-1.91.52-4.54.16-5.35-1-1.36-2,1.37-7.77,17.69-23.66l-.62-6.37A36.14,36.14,0,0,0,156,718.8C151.17,721.83,148.09,725.55,144.46,725Z" transform="translate(0.28)"/><path class="cls-57" d="M155.37,732c-.7-1.5,9.7-3.61,14-13,2.34-5.1,1.71-9.82,6.38-15.84,1.25-1.61,2.44-2.76,4.12-3.09,3.5-.7,7.69,2.46,9.05,6.38a10.19,10.19,0,0,1-.41,7.2l6.78,2.67c3.52,5.28,4.31,10.3,2.27,12.34a3.81,3.81,0,0,1-2.27,1l-.2,6.59a4,4,0,0,1,2.47,2.05c1.14,2.65-2.06,6.34-4.53,8a12.53,12.53,0,0,1-8.64,1.85c2.1-3.41,2.31-7,.62-8.85-1.28-1.42-3.85-2.08-4.73-1.23s.2,3-.41,3.29-2.23-1.06-3.09-2.47c-3.47-5.68,4-15.35,2.47-16.46-.86-.61-3.29,2.3-7.41,4.94C164.53,732.11,156,733.3,155.37,732Z" transform="translate(0.28)"/><path class="cls-58" d="M264.81,300.38q1.63,15.25,3.29,30.51l-26.75,17.69-18.51,14.68-.27,9.05a47.33,47.33,0,0,0-12.21,7.13c-3.25,2.62-10.18,8.35-13.71,18.1-.81,2.23-5.64,16.27,1.92,30,6.51,11.8,19.77,18.89,34.14,18.51,1.4,1,3.59,2.5,6.38,4.12,36.31,21,80.58,7.55,95.86,2.67,19.28-6.15,17.9-9.26,45.88-21.19a407,407,0,0,1,67.27-22q-3.5-5.55-7-11.11a141.19,141.19,0,0,0-58.83,14.61H371q-.1-7.44-.61-15.22c-2.58-39.46-8.64-45.57-15.23-78-.62-3.05-2-10.26-8-15.5a23.91,23.91,0,0,0-5.07-3.29c-10-4.53-22.82,3.33-30.72,6.24C302,310.79,287.49,311.8,264.81,300.38Z" transform="translate(0.28)"/><path class="cls-59" d="M264.09,300.58a35.63,35.63,0,0,1,5.45.28c1.23.16,2.38.37,3.43.61.21,0,.52.07.89.14a28.12,28.12,0,0,1,4.68,1.49,18.78,18.78,0,0,0,4.16,1h.3a25.13,25.13,0,0,1,6.49,1.22c2.4.84,2.74,1.46,4.65,2.27,3.23,1.38,6.07,1.13,10.88.72a53.86,53.86,0,0,0,9.67-1.75c5.78-1.59,6.49-2.73,11.83-4.32s8.18-2.44,11.83-2c1,.13,10.46,1.55,13.88,9.78a16.51,16.51,0,0,1,0,11.93l6.18-.21v12.14l10.9,18.31a14.6,14.6,0,0,1-1.24,7.2,14.86,14.86,0,0,1-6.37,6.79l8.84-1.24,3.5,5.35,3.39,23.45a42,42,0,0,0,3.19-11.52c.94-7.36-.75-10-1-18.1s.85-21.61,5.66-22.84c2.48-.63,5.13,2.22,5.45,2.58,3.33,3.65,1.88,8.91,1.75,9.36-.72,13-.67,26.31-1.39,39.34-2.1,6.27-2.5,7.74-1.8,8.18s1.8-.51,4.63-1.55a30.1,30.1,0,0,1,6-1.44c2.9-.56,10.58-3.94,29.72-14.71l18.62,2.37a36.3,36.3,0,0,1-10.8,6.27A36.81,36.81,0,0,1,425.67,394l7.41,4.11a43.32,43.32,0,0,1,20.3-1.1A41.54,41.54,0,0,1,459,398.5v3.29a38.76,38.76,0,0,1-9.94,2,37.66,37.66,0,0,1-5.21,0l1.64,1a16.27,16.27,0,0,0,5.8.86c3.25-.12,4.9-1.21,6.75-.31a5.65,5.65,0,0,1,2.61,3.5c-1.69.53-4.09,1.28-7,2.12-4.78,1.39-8.34,2.29-11,2.95l-18.93,4.8c4.39-2.34,7.84-4.22,10.84-5.89a39.57,39.57,0,0,1,7.34-3.36c1.27-.43,2.35-.72,3.08-.9-.86.14-5.28.78-7.61-1.64a4.37,4.37,0,0,1-.82-1.17c-1.17-2.43.38-5.17.68-5.69l5.83.14,1-.34a120.72,120.72,0,0,0-22.56.65,122.67,122.67,0,0,0-38.33,11.28c-1.38.56-2.77,1.63-4.15,2.19-2.74,0-5.49-.44-8.23-.41a11.64,11.64,0,0,0,.79-3.77,11.12,11.12,0,0,0-.07-1.78,11.12,11.12,0,0,1-1.16.68,10.15,10.15,0,0,1-3,1,11,11,0,0,1,.14-2.6,11.21,11.21,0,0,1,1.71-4.32,12.21,12.21,0,0,0-.34-3.16c-1.48-6-7.24-8.9-8.71-9.6l1.71-12.2-1.75-.31q-.42-7.91-.85-15.81l1.37-.89-.62-10.63.41-4.15h-1.95l.2-8.12-4.76.61a31.56,31.56,0,0,0-.48-3.49,25.36,25.36,0,0,0-3.5-9.26,22.53,22.53,0,0,0-5.48-5.83,43.53,43.53,0,0,0-5.94,2.85c-4,2.29-5.36,3.92-9.08,6.13a47.37,47.37,0,0,1-7.27,3.43c-13,4.66-28.73-4.54-33.05-7.06a68.59,68.59,0,0,1-9.33-6.65,72.06,72.06,0,0,1-10.76-11.25l-1.1-.07c.56,5,.93,9,1.17,11.8.73,8.59.4,8.05.75,9.05a9.32,9.32,0,0,1,.41,4.8c0,.13-.36,1.8-.75,1.78s-.74-2.62-1.24-6.92c-.32-2.78-.74-5.55-1-8.33A183.65,183.65,0,0,0,264.09,300.58Z" transform="translate(0.28)"/><path class="cls-60" d="M234.57,355.1l-12,9.12.54,8.5-7.4-.27a76.89,76.89,0,0,0-23.32,35.82,9.63,9.63,0,0,1-2.46,7.72,8.8,8.8,0,0,1-4.32,2.36q1.74,9.15,3.49,18.28a44.85,44.85,0,0,0-17.28,25.23c-3.79,7.57-2.9,15.14,1.1,18.11s10,.63,12.34-.28c8.53-3.27,12.35-11,13.44-13.44q6.31,6.45,12.62,12.89l13.17-6.31q-.56,13.86-1.1,27.71L234.63,494l17.42,13.48,17.69-16.77,7.41,4.12,6.07-1.85a40.39,40.39,0,0,0-18,27.15,44,44,0,0,0,18.92-8.33,112.18,112.18,0,0,0,16.77-22.12l4.94,1.65,50.5-31.58-3.5-4.63c-1.75,1.22-4.28,2.92-7.4,4.84-6.57,4-14.16,8-14.4,7.61-.08-.12.54-.61,1.33-1.23a32.26,32.26,0,0,1,9.26-5,50.12,50.12,0,0,1,4.08-3.5c6.56-5.05,10.76-5.27,13.17-9.6a19.84,19.84,0,0,0,2.19-6.31l24.48-11.35-18.72,2.3-20.16,13.13-5.62.86c-5.49,3.47-12,7.29-17.52,10.76-.46,1.9.15,3.45-.31,5.35-2.39,4.05-3.35,5-3.7,4.84s.45-2-.42-3.5c-1-1.71-4.16-2.58-6.48-1.65-3.69,1.49-3.51,6.89-6.17,7.2-1,.12-1.63-.61-3.39-2-3.87-3.17-7.86-6.44-11.66-6.14-3.12.25-3.41,2.69-6.55,2.54s-3.84-2.42-6.27-2.47c-1.68,0-4,1-6.93,5.69h0l-1.18-.54c-3.54-1.57-5.79-2.23-7.53-2.89a33.66,33.66,0,0,1-6.58-3.39A7.93,7.93,0,0,1,252,462c-3.3-.05-4.75-2.6-7.51-2.06-2.16.42-3.34,2.38-3.5,2.23s.56-1.39,4.94-6.59l14.54,2.75c-.48,1.48-.59,2.89,0,3.29s2.43-.43,4.11-2.47l18.38-1.65c-20.46-4.25-35.54-7.15-47.62-9.29a77,77,0,0,1-15.74-4.52c-7.66-3.11-16.5-6.82-21.6-15.64a23.11,23.11,0,0,1-3.5-12.34c.18-7.45,4.37-12.67,5.86-14.5,4.37-5.36,6.79-4,13.17-10.19a49.86,49.86,0,0,0,9.15-12.34c2.62-4.86,2.55-6.59,5.42-12.51A79,79,0,0,1,234.57,355.1Z" transform="translate(0.28)"/><path class="cls-61" d="M280.17,324.38a43.27,43.27,0,0,1-8.58-12.48c-1.82-3.44-5.56-8.25-6.24-10.63,2.21,4,13.81,20.93,32.47,27.08,6.8,2.25,22.21,7.33,31.07.21,3.71-3,8.29-9.74,15.12-9.36a9.68,9.68,0,0,1,1.54.21,22.89,22.89,0,0,1,8.74,18.51l5-.41c0,2.71-.07,5.42-.1,8.12l1.44.21-.21,3.91.62.82v10.29l-1.13.72q.21,7.71.41,15.43a8.09,8.09,0,0,1,3.91.3,8.71,8.71,0,0,1,5.55,6.9c.09.54.65,4.6-1.44,5.76-1.71.95-4.89-.25-7.09-3.5a8.77,8.77,0,0,0,.92,3.08c1.52,2.95,3.77,3.09,5.76,5.76a10.94,10.94,0,0,1,2.06,6c.05,4.36-3.2,7.2-2.57,7.82.31.31,1.51-.07,5.14-2.78l-.82,7.1,7.3.2a112,112,0,0,1,19.85-8.84,114.5,114.5,0,0,1,43.61-5.56l1.75.11.1,1-5.55-.2-1.95,5.24,3.6,1,.2,1.24h6.79l.62,1.64a24.18,24.18,0,0,0-10,2.27,23.86,23.86,0,0,0-5.76,3.8L381.55,433a23.11,23.11,0,0,0-8.33-.41,24.44,24.44,0,0,0-8,2.67,137.93,137.93,0,0,0-19.74,12.86h-5l-13.79,8.74-2.26,1.44a3,3,0,0,0,4.73,3.6v2.27l-8.74,5.14-2.16-1.34c.07-.19.85-2.38-.31-3.91s-4.21-2-6.58-.1a14.94,14.94,0,0,1-2.37,4.63,15.94,15.94,0,0,1-8.95,5.66l.21-1.86a2.8,2.8,0,0,0,2.57-2.16,1.81,1.81,0,0,0-.31-1.13,23.56,23.56,0,0,1-3.39-1.23,24.47,24.47,0,0,1-7.31-5.14,10.76,10.76,0,0,0-3.29,2.67,10.91,10.91,0,0,0-1.95,3.6H284a6.23,6.23,0,0,0-.51-2.78c-1.36-3.05-4.8-3.81-5.25-3.91a10.14,10.14,0,0,0-4.42,3.3,9.6,9.6,0,0,0-1.44,2.67,29.44,29.44,0,0,1-6-1.75,28.49,28.49,0,0,1-4.94-2.36c-1.67-1.08-2.45-1.92-3.8-1.86-.91.05-1,.45-2.47,1-1.12.44-3.67,1.44-5.45.41-1-.58-.7-1.19-2-2-.13-.09-2.17-1.37-3.9-.62-1.3.56-1.58,1.88-2.47,1.8a1.57,1.57,0,0,1-1.08-.82l5.45-6.48,5.6,1h0a110.67,110.67,0,0,0,11.93,2.58c5.87.85,10.91.23,20.16-.93,4.62-.58,3.77-.7,6.37-.93,11.46-1,16.32,2.19,23.87,1,3.89-.6,6.54-2.05,13.26-6.48,7.75-5.09,18.32-12.43,30.86-22.32l.41-9.87c3.05-.68,5.35-2.39,5.76-4.53a3.28,3.28,0,0,0-.2-2.05c-1.18-2.52-5.54-2.09-5.62-2h-.06a.11.11,0,0,1-.08,0,2.45,2.45,0,0,1,.61-1.85c1.44-1.37,4.28,1,6.18-.11,2.6-1.49,1.1-8.1,1-8.43-.7-3-2.61-6.89-4.52-6.79-1.05.06-1.12,1.26-2.88,2-1.57.61-3.76.54-4.84-.62-.84-.92-.78-2.28-.54-4,1-7,3.32-9,3.15-13.31-.08-2.15-.66-1.39-1.65-5.76a32.83,32.83,0,0,1-.82-12.34c.75-5,2.33-5.17,2.2-8.78-.07-1.78-.54-3.83-3.57-8.91a83.38,83.38,0,0,0-8.64-11.9,57.56,57.56,0,0,1-7.37,3.46,58.28,58.28,0,0,1-10.32,2.92c-3.92.72-12.79,2.85-23.32.24A50.2,50.2,0,0,1,280.17,324.38Z" transform="translate(0.28)"/><path class="cls-62" d="M265.63,301.54q.75,14.88,1.51,29.76c-1.36,1-3.41,2.57-5.93,4.41-4.82,3.52-7.78,5.54-10.39,7.39-10.75,7.56-16.13,11.34-19.75,16a39.51,39.51,0,0,0-5.62,9.47c-1.19,2.88-1.14,3.81-2.34,7A48.63,48.63,0,0,1,217.63,386c-4.22,5.68-7.72,5.19-12.89,9.6-1.24,1.06-9.54,8.34-10.15,18.93-.64,11,7.32,20.73,15.63,25.1a28.25,28.25,0,0,0,9.88,3,34.47,34.47,0,0,1-13-6.72c-2.61-2.16-8.08-6.69-10.29-14.4a19,19,0,0,1-.41-9.87c.32-1.27,1.36-5.36,4.66-7.13.61-.33,2.2-1.18,3.3-.55.86.5.81,1.57,2,2.33.27.16,1.19.72,1.65.41,1-.7-1.44-5-.28-5.9.41-.31,1,0,2.61.42a18,18,0,0,0,4.25.82c3.82-.11,6.86-6.41,6.82-6.44s-.25.27-.37.4a25.55,25.55,0,0,1,.13-11.1A24,24,0,0,1,223,380c5.75-12.24,8.63-18.36,9.05-18.93,6-8.05,14.86-12,19.2-14s8.24-3,12.75-7a31.7,31.7,0,0,0,6.17-7.41Q267.9,317.12,265.63,301.54Z" transform="translate(0.28)"/><path class="cls-63" d="M256.89,346.15l10.38,1.06c2.05-1.63,4.2-3.47,6.38-5.55q2.19-2.1,4.05-4.12l.68.62a17.68,17.68,0,0,0,4.12,7.17,18.54,18.54,0,0,0,5.35,3.8,28.47,28.47,0,0,0,7.26,2.33c5.21.9,16.37.86,30.79-.89a49.27,49.27,0,0,0,8.23-2.78,50.32,50.32,0,0,0,6.1-3.18,4,4,0,0,1,3.3.13,3.72,3.72,0,0,1,1.5,1.51c.4,4,1,9.8,1.51,16.87,1.17,14.88,1.74,22.46,1.24,29.76-.56,8.12-1.5,8.79-2,18.07a142.94,142.94,0,0,0,.11,18,91.84,91.84,0,0,1-19.2,18,60.68,60.68,0,0,1-10.84,6.31,55.46,55.46,0,0,1-23.45,4.63c4.06.46,8.42.79,13.06.93,3.23.09,6.32.08,9.26,0a62.66,62.66,0,0,0,7.41-3c8-3.82,12.62-8.16,17.59-12.24a164.32,164.32,0,0,1,18.41-13.06c0-3.63.07-7.27.1-10.9a7.16,7.16,0,0,0,4.83-1.44c.26-.2,2.82-2.28,2.37-4.32S362,410.3,358.2,411a4.86,4.86,0,0,1,2.37-1.54c2.31-.62,3.65,1.23,5,.72,2.18-.81,2.68-6.75.82-11.32-.56-1.36-2.09-5.11-4.84-5.24a4.48,4.48,0,0,0-3.18,1.44l-4-.11a3.16,3.16,0,0,1,2.88-5,28.46,28.46,0,0,0,.11-10.9c-.58-3-1.09-2.9-1.85-6.38-.63-2.84-1.9-8.56-.11-14.29.48-1.52,1.87-5.29,1.85-5.25a42.62,42.62,0,0,0-5-12.65,43.19,43.19,0,0,0-8.94-10.6,57.7,57.7,0,0,1-27,7.41c-5.7.12-16.36.21-27.36-6.48a46.15,46.15,0,0,1-16.91-18.34c-1.25-2-2.51-4.07-3.77-6.11l-2.88-4.73q2.37,15.72,4.73,31.44a144.51,144.51,0,0,1-16.73,11.9c-.27.17-2.85,1.72-6.31,3.84-8.5,5.22-9.8,6.19-11.24,7.54a36.23,36.23,0,0,0-6,7.68,59.64,59.64,0,0,0-5.21,11.11c-.68,1.81-1.18,3.34-1.51,4.39a26.93,26.93,0,0,0-2.12,5.69,27.36,27.36,0,0,0-.31,11.62c1.85-4.05,3.47-7.28,4.63-9.49,2.13-4.1,3.62-6.58,4.94-10.7a44.28,44.28,0,0,0,1.23-4.8c.79-1.43,1.87-3.28,3.29-5.35a108.47,108.47,0,0,1,7.61-9.15,38.16,38.16,0,0,1,11.93-8.75Z" transform="translate(0.28)"/><path class="cls-64" d="M217.9,401.55a64.46,64.46,0,0,0,11.8-12.37c6.16-8.54,5.73-12.5,11.52-16.73,3.8-2.79,5.2-2,13.44-6a91.78,91.78,0,0,0,11.24-6.58,32.92,32.92,0,0,0,18.93,13.44c16,4,28.46-6.66,29.62-7.68l6.58-.82,5.22,6.58a202.29,202.29,0,0,1,2.19,43.34l2.74,6-.82,22.49c-5,7.28-10.62,9.93-13.44,11-3.55,1.31-6.73,1.54-12.21,1.92a94.52,94.52,0,0,1-13.57,0c-1.14-1.63-2.6-3.06-4.32-3.08-2,0-2.56,1.86-5.35,2.47a7.3,7.3,0,0,1-2.32.15c-.22,0-3.25-.35-3.65-1.8-.25-.91.77-1.5.62-2.06-.26-1-3.53-1.45-14-.2l-15-6.79c-.26-3.23-1.06-7.3-3.7-8.44s-5.27,1.18-8.84,2.68c-3.8,1.59-9.69,2.81-18.52.62a9,9,0,0,0-1-4.32c-2.1-4-6.55-4.83-7.2-4.94l.21-11.11,7.82-5.76v-9.87l-3.3,9.25L207.21,409l-4.94,3.91a37.4,37.4,0,0,0-.82,8.44,37.78,37.78,0,0,0,2.05,11.72,32.62,32.62,0,0,0,9.88,6.59c5.38,2.28,7.54,1.38,16.66,3.49a106.4,106.4,0,0,1,14.4,4.53,103.07,103.07,0,0,1,13.37,6.38,163.38,163.38,0,0,0,19.54,4.11c16.52,2.43,28.23,4.15,39.71-1.44,3.84-1.87,10.21-5.81,16-14.4a20.62,20.62,0,0,0,8.64-5.76,20.29,20.29,0,0,0,3.91-6.58l.21-21.6,3.08-6c-1.6-37.13-2.47-57.19-2.47-57.19s-2.73-1.05-3.29-1.23c-3.41-1.13-7.13,3-12.34,5.14-1.75.72-3.34,1.07-10.29,1.44-17.64.94-26.46,1.4-31.68-1.64-2.71-1.59-7.14-5-10.49-12.55l-10.9,10.28-10.9-.61c-1.87,1.32-4.65,3.31-8,5.76-4.85,3.51-7.28,5.27-7.81,5.76-2.47,2.21-8.45,7.59-10.29,15.63-.62,2.72-.33,3.83-1.44,6.79a28.28,28.28,0,0,1-4.73,7.82A38.59,38.59,0,0,0,217.9,401.55Z" transform="translate(0.28)"/><path class="cls-65" d="M220.78,397.06q-2.06,3.33-4.11,6.79c-.59,1-1.18,2-1.75,3L213,413.26l-4.94-3.6-4.94,3.79a43.67,43.67,0,0,0-.68,8.92c.1,4.24.19,7.37,1.5,10,2.67,5.33,9.5,6.88,20.3,9.32,8.18,1.85,10.38,1.25,16.46,3.71,1.7.68,3.65,1.67,3.65,1.67,3.83,1.8,6.52,3.26,6.91,3.47,2.61,1.38,9.72,3.78,29.52,8.23a52.09,52.09,0,0,1-29.11-2.37A48.5,48.5,0,0,1,243.1,452L237,449.11a133.3,133.3,0,0,1-15.53-4.63c-9.7-3.55-14.65-5.42-19.23-10.05-1.61-1.62-7.06-7.27-8-15.77-.24-2.33-.78-7.48,2.47-11.38.18-.21,3.65-4.23,7-3.43,2.34.57,3.52,3.25,4.09,2.93.75-.41-1.68-4.76-.25-6.07.87-.79,2.89-.18,3.43,0,1.63.5,1.78,1.24,2.74,1.2,1.21-.06,1.63-1.29,3.29-2.71A11.73,11.73,0,0,1,220.78,397.06Z" transform="translate(0.28)"/><path class="cls-66" d="M361.53,376.73l.78,8.3-2.05,1c.28.4,3.41,4.85,7.13,4.32a2.82,2.82,0,0,0,1.4-.52c2.24-1.69,1.73-7.64-1.5-10.76A9.13,9.13,0,0,0,361.53,376.73Z" transform="translate(0.28)"/><path class="cls-67" d="M363.65,429.57a2.49,2.49,0,0,1,.41-3.09l23.87-12.75c4.78-.89,7.36-.89,7.71,0q.35.87-2.16,2.88-5.73,3.09-11.73,6.17-7.35,3.77-14.5,7.2A2.51,2.51,0,0,1,363.65,429.57Z" transform="translate(0.28)"/><path class="cls-68" d="M372.74,429.91c-.34-.69,6.82-5.09,13.44-8.37a105.34,105.34,0,0,1,19.2-7.27l15.22-6.44a70.26,70.26,0,0,0,19.06.68,19.47,19.47,0,0,1-8,3.16,19.2,19.2,0,0,1-6.72-.14c-1.44.84-3.6,2-6.31,3.29-6.11,2.84-9,3.21-18.1,6-6.58,2-13.89,4.56-18.52,6.17C375.41,429.33,372.93,430.29,372.74,429.91Z" transform="translate(0.28)"/><path class="cls-69" d="M336.35,456.85a1.74,1.74,0,0,1,.94-.62l1.48-.59c1.09-.46,2.18-.93,3.26-1.43q3.15-1.47,6.16-3.19a1,1,0,0,0-1-1.73q-3.22,1.84-6.58,3.38c-1.1.5-2.21,1-3.32,1.42a4.74,4.74,0,0,0-2.66,1.75,1,1,0,0,0,1.72,1Z" transform="translate(0.28)"/><path class="cls-70" d="M340.16,457.52a104.25,104.25,0,0,1-10.18,7.3c-1.09.68-.09,2.41,1,1.72a106.9,106.9,0,0,0,10.58-7.61,1,1,0,0,0-1.41-1.41Z" transform="translate(0.28)"/><path class="cls-70" d="M323.32,473.7q6-3,12-5.94c1.16-.57.15-2.29-1-1.73-4,2-8,3.92-12,5.94-1.14.59-.13,2.32,1,1.73Z" transform="translate(0.28)"/><path class="cls-70" d="M323.22,473.79c4.08-.52,7.47-2.8,10.56-5.38a1,1,0,0,0,0-1.41,1,1,0,0,0-1.41,0c-2.63,2.19-5.67,4.34-9.15,4.79a1,1,0,0,0-1,1c0,.48.46,1.07,1,1Z" transform="translate(0.28)"/><path class="cls-71" d="M201.65,439.65c.2-.46,1.42-.64,5.56.3a24.88,24.88,0,0,0,2.57,1.65,26.58,26.58,0,0,0,6.37,2.57,12.14,12.14,0,0,1-5.34.82C205.59,444.6,201.2,440.69,201.65,439.65Z" transform="translate(0.28)"/><path class="cls-72" d="M221.5,453.53c1.41,1.42,8.16-2.77,7.82-3.91-.13-.44-1.26-.13-2.67-1.13-1.16-.81-1.19-1.57-1.75-1.64C223.3,446.62,220.25,452.27,221.5,453.53Z" transform="translate(0.28)"/><path class="cls-73" d="M243.21,473.28c-1.22-1.3.6-6.51,4.11-7.51,1-.28,2.75-.4,3.39.52,1,1.48-1,5.45-4.11,6.78C246.27,473.22,244,474.16,243.21,473.28Z" transform="translate(0.28)"/><path class="cls-74" d="M262.54,469.37c0,2.13.07,4.25.11,6.38,1.33.55,2.55.56,3,0s-.05-1.58-.62-2.78A14.12,14.12,0,0,0,262.54,469.37Z" transform="translate(0.28)"/><path class="cls-75" d="M272.21,468.34a27.47,27.47,0,0,0,6.48,1.13c3.13.17,5.35.3,6-.82,1-1.74-2.08-6.42-5.56-6.58a4.78,4.78,0,0,0-2.26.51C273.66,464,272.51,467.36,272.21,468.34Z" transform="translate(0.28)"/><path class="cls-75" d="M286.41,468.65l5.55-4.52,7.41,9.15,2.77-3.5-10.28-7.3Z" transform="translate(0.28)"/><path class="cls-9" d="M304.61,472.25l9.46-2.88-3.9,2.78,8.22-4.63-.51-3.7-6-.31Q308.27,467.88,304.61,472.25Z" transform="translate(0.28)"/><path class="cls-76" d="M280.23,493.44l5.76-2.57,6.18-7L287.64,482Z" transform="translate(0.28)"/><path class="cls-9" d="M278.79,494.67c0-3.36.07-6.72.11-10.08l-3.4-.82-2.88,7.51Z" transform="translate(0.28)"/><path class="cls-77" d="M198.46,466.59l6.59,6.07q1.84-4.94,3.7-9.87c-.1-2-.21-3.91-.31-5.86a9.5,9.5,0,0,0-10,9.66Z" transform="translate(0.28)"/><path class="cls-78" d="M214.51,477.6c3.39-1.71,6.2-2.67,9.6-4.39-1.2,2.64-1.82,4.53-3,7.17l2.78,3.6q2.1-7.41,4.22-14.81c-.28-2.34-.55-4.67-.83-7Z" transform="translate(0.28)"/><path class="cls-79" d="M415.66,293.18,433.9,335a27.34,27.34,0,0,1-21.39-17.56C408,305,414.9,294.32,415.66,293.18Z" transform="translate(0.28)"/><path class="cls-79" d="M404.28,336.38a20.63,20.63,0,0,0,.14,11.52c.54,1.69,1.77,5.55,4.11,5.89,2.06.31,3.33-2.34,5.21-1.78,1.6.48,1.3,2.58,3.16,3.57,2.21,1.17,4.15-1,5.48-.14,2.55,1.68-3.11,10.7.41,14.81,1.36,1.58,3.92,2.25,5.49,1.51s1.42-2.74,3.29-6.72c.13-.27,3.13-6.57,4.8-6.17,1.13.27.28,3.24,2.47,6.86.47.78,2.55,4.21,5.21,4a4.14,4.14,0,0,0,2.61-1.51q-2.69-7.33-5.35-14.67Z" transform="translate(0.28)"/><path class="cls-80" d="M396.05,395.62a47.26,47.26,0,0,0,7.1-1.64c4.62-1.46,5.45-2.52,5.76-3,1.19-1.77.07-2.69,1.13-5,1.27-2.81,3.55-2.42,4.94-5.34,1.17-2.47,1.53-5.73.51-6.28s-3,5.28-6.38,5.25a3.55,3.55,0,0,1-1.54-.41c2.64-5.15,2.47-10.15.52-11.94a10.29,10.29,0,0,0-3.3-1.85c-1.35-.45-2-.68-2.46-.41-1.77,1.1,1.54,7.91-.52,9.36-.56.4-.9,0-2.16.31-2.28.64-4.13,2.92-3.7,3.91.52,1.22,4.24,0,4.83,1.23.5,1.05-1.73,2.61-3.19,4.84C396.31,386.59,395.09,389.91,396.05,395.62Z" transform="translate(0.28)"/><path class="cls-81" d="M397.7,350.67a28.39,28.39,0,0,0-2.57,8.85c-.36,3-.42,7.49.3,7.61s1.85-2.58,4.94-15.32a1.54,1.54,0,0,0-.41-1.75A1.61,1.61,0,0,0,397.7,350.67Z" transform="translate(0.28)"/><path class="cls-81" d="M224.9,282c.43-1.71,2.15-2.72,4-3.81s3.92-2.31,5.66-1.54,2.21,2.89,3,5.93a11.23,11.23,0,0,1,.48,2.88,10.56,10.56,0,0,1-1,4.66,9,9,0,0,0,3.29,2.13,9.14,9.14,0,0,0,2.88.55l8.23-4.53a32.26,32.26,0,0,1,8.09,6.38,31.83,31.83,0,0,1,4.6,6.44,43.88,43.88,0,0,1,1.71,7.34,59,59,0,0,1,.48,8c.07,2.74.24,6.63.69,11.39a13.65,13.65,0,0,1-2.74,1.64,16.56,16.56,0,0,1-6.79,1.17c-3.56.27-4.73,3.16-14.33,13.57-4.33,4.69-5.62,5.77-7.68,6.52-.45.16-6.75,2.36-10.36-.89-3.22-2.91-2.36-8.42-1.71-12.48.93-5.9,2.86-7,4-12.35.54-2.44.78-5.08-.41-14.4-.7-5.48-1.83-12.85-3.77-21.6,4.08,1.91,5.39,2,5.69,1.58C229.76,289.52,224,285.64,224.9,282Z" transform="translate(0.28)"/><path class="cls-82" d="M217.35,305.52a2.48,2.48,0,0,1,2.2-1.23c3.24-.13,6.33,5.52,5.35,6.72-.65.78-3.15-.22-4.53-1.1S216.79,306.94,217.35,305.52Z" transform="translate(0.28)"/><path class="cls-83" d="M210.09,320.74c-1.86.27-2,10.34.13,18.79.91,3.65,1.66,4.73,2.61,4.94,1.74.39,4.3-2.12,4.39-4.53.07-1.91-1.5-2.26-2.88-4.8-2.76-5,.3-9.32-3-13.44C210.85,321.11,210.49,320.69,210.09,320.74Z" transform="translate(0.28)"/><path class="cls-84" d="M190.89,344.06c.93,1.8,2.29,3.66,4.11,3.84,2.61.25,4.75-3.13,5.49-2.61.56.4-.59,2.45-1.24,5.35-.77,3.46,0,4.35-.27,7.41-.68,7.06-5.41,7.46-5.08,13,.15,2.57,1.31,4.91-.13,7-.07.09-.9,1.28-1.51,1.1-1.22-.37.25-5.69-1.65-6.72-1.09-.59-2.11.86-3.7.54-2.44-.48-3.89-4.63-4.12-7.26-.62-7.35,7.43-12.78,8.23-13.31Z" transform="translate(0.28)"/><path class="cls-85" d="M157,406.46a22.69,22.69,0,0,1,6.58-11c3-2.61,4.46-2.31,8.51-5.49,2.59-2,6.31-5,8.36-9.87a21,21,0,0,0,.69-13.31,52.39,52.39,0,0,0,6.58,11.11,10.2,10.2,0,0,0,3.7,3.29,10.66,10.66,0,0,0,7.68.28v1.92l-12.48,2.19a6.71,6.71,0,0,1,.28,7.68,6.59,6.59,0,0,1-7,2.61c-1.26-.41-1.88-1.28-2.6-1-.93.4-.41,2.09-1.24,3.7s-2.25,1.6-5.89,3.29c-4.57,2.12-4.76,3.3-8,4.12A15.81,15.81,0,0,1,157,406.46Z" transform="translate(0.28)"/><path class="cls-86" d="M229,88.29l-22.63,36.2c-10.48,9.51-14.66,19-16.45,24.28-1.6,4.71-6.48,19.08-3.3,32.91.51,2.19,1.47,5.46.42,9.46-1.49,5.67-5.54,7.2-8.23,11.93-1.86,3.26-3.37,8.56-1.24,17.28C187.07,224,194,223.62,199,222,225.12,213.55,237.07,160,229,88.29Z" transform="translate(0.28)"/><path class="cls-87" d="M236.35,84.93c7.28,1.18,12.1-3.51,15-5.15,5.38-3,6.64-1.29,12.2-2.47,4.07-.85,6.89-.48,8,0,3.9,1.76,4.31.65,8,3.3,2.14,1.55,4.65,5.06,10,6,.37,3.93,2.65,4.92,3,8.85a32,32,0,0,0,10.76,8.84c4,2,5.08,1.41,8,3.29,1.88,1.2,4.37,3.31,9.73,14,4.39,8.74,4.06,10,6.72,13.85a36,36,0,0,0,10.63,10.08l.76,15.78a125.17,125.17,0,0,1,2.95,23,78.37,78.37,0,0,1-.62,14.4c-.78,5.13-1.58,6.23-3.64,13.78s-4.17,15.36-4.86,24.82c-.55,7.39.37,7.63-.55,13.65-1.41,9.19-3.28,13.43-5.35,16.25a29.81,29.81,0,0,1-4.08,4.42,39.57,39.57,0,0,1-10.18,6.83l5.14,2.74,1.78,2.74a87.57,87.57,0,0,1-13.23,6.86C301,293,295,295.49,286.75,296.13c-7.62.58-13.45-.71-18.58-1.86a81.69,81.69,0,0,1-16.94-5.76L264,300.58a101.92,101.92,0,0,1,15.09,2.75c8.12,2.11,11.16,4,16.18,5.21,4.63,1.13,14.67,3,24.14-1.37,4.39-2.05,3.91-3.27,7.95-4.67,1.45-.5,12.06-4.17,19.48,2.47,6.74,6,5.34,15.67,5.21,16.46l5.76,1.92a28.47,28.47,0,0,0,0,11.24,30.56,30.56,0,0,0,11.52,17.83,25.53,25.53,0,0,1-2.74,7.68,25.81,25.81,0,0,1-5.22,6.59l9.06-1.1a60.38,60.38,0,0,1,3.56,39,47.73,47.73,0,0,0,5.76-39.77c1.13-10.23,3.08-21.38,6.58-21.67a3.43,3.43,0,0,1,2.47,1.37c4.13,4.29,2.07,12.63,1.37,15.91-1.48,7-2.42,17.58,0,33.46A5.91,5.91,0,0,0,388,398.5c0,.21.23,3.33,2.47,4.12,1.76.61,4.11-.45,5.21-2.75a73.1,73.1,0,0,0,34.83-16.18,22,22,0,0,0,16.46,2.2,44.7,44.7,0,0,1-22.22,8.22,17.28,17.28,0,0,0,7.41,4.12c4.57,1.14,6.78-.56,14.54-.82,1.29-.05,10.85-.34,11.24,1.64.24,1.23-3.14,2.82-3.56,3-5.82,2.73-11.31.57-11.52,1.37s4.73,4.38,9.32,3.29c1.62-.38,2.94-1.29,4.94-.82,1.24.29,2.77,1.11,2.74,1.92-.05,1.5-5.51,2.45-7.13,2.74-14.4,2.6-28.13,8.28-42.51,11-11.61,2.18-29.45,7.45-49.92,20-1.56,3-1.74,5.76-3.29,8.77a135.85,135.85,0,0,0-30.72,20.57c7.46-3.72,13.38-7.1,17.55-9.6,4.91-2.94,8.81-5.5,9.6-4.66s-1.2,3.58-3,6L306,490.11,301,485.45c-2.22,6.19-7.06,16.66-17.55,24.69-5.83,4.45-14.85,9.27-16.46,7.4-1.24-1.44,1.58-7.26,18.38-25.78l-6.59,1.92-9.05-4.11L252.19,506l-17.83-13.44-11,7.68q.69-14.4,1.37-28.8L213,478.05,199,466,189.1,477.5A31.58,31.58,0,0,1,179,480c-3.13.22-4.73.33-6-.55-4.63-3.17-.75-16-.27-17.56,1.54-5.1,5.51-14.7,17-23.86q.42-9.47.82-18.93l-4.66.55q3.3-2.6,6.58-5.21a50.65,50.65,0,0,1,30.72-42c.1-2.84.19-5.67.28-8.51L267,332.13c1-2.82.55-4.05,0-4.67-2.33-2.61-11.76.86-17.83,6.31A28.43,28.43,0,0,0,242,343.92c-.33.65-2.73,5.24-7.95,6.31-3.66.75-8.45-.27-10.15-3.29-1.57-2.8.29-5.93,1.92-10.7,2.36-6.94,2.51-12.31,2.74-20.85A57.9,57.9,0,0,0,223.66,291l7.13.83q-2.73-4.8-5.48-9.6a9.74,9.74,0,0,1,4.11-3.84c.67-.33,3.37-1.64,5.21-.83,2.54,1.12,3.68,6.31,1.65,12.62a9.59,9.59,0,0,0,4.94,3.29c3.81,1,8.12-.75,11-4.39-4.85-4.71-9.94-10.09-15.09-16.18a226.12,226.12,0,0,1-15.08-20c-.74-3.37-1.81-8.41-3-14.54-2.79-14.19-4.46-22.85-5.26-33.55-.36-4.79-.51-9.58-.41-16.87.33-25.59,3.37-56.63,4.78-70.09a13.14,13.14,0,0,0-7.77,3.8c-3.49,3.82-1.7,7.7-4,13.85-2.77,7.55-7.16,6.24-10.69,14-.51,1.11-5.12,11.57-.55,18.93,3.15,5.07,8.76,5.62,8.5,8.23-.28,2.79-6.73,1.88-10.15,6-5.55,6.75,4.23,18-.27,26.88-1.65,3.26-5.7,7.14-16.73,8.78a81,81,0,0,0-1.38,28.8c1.16,8.59,3.12,23,11.52,26.33,2.18.85,5.37,1.17,5.49,2.47s-3.58,1.9-6.31,4.39c-6.42,5.83-4.59,20.1-1.1,21.12,2,.57,4.35-3.22,5.49-2.47s-1.37,4.59-.55,9.6c.48,2.92,1.68,3.72,3,6.58,1.79,3.83,3.85,11.41.82,16.46-2.91,4.85-10.29,7-18.1,5.48-.68.07-5,.54-7.41,4.12s-2,9,1.37,12.89q-1.38,12.62-2.74,12.62-2.1,0-4.11-30.18a26.71,26.71,0,0,0-14.54,3,23.7,23.7,0,0,0-11,11.25c-4.25,9.7.4,19,1.1,20.29,2.95-8.2,4.3-10.3,4.93-10.14,1.22.29-1.4,8.68,3,13.16,2.15,2.18,4,1.44,5.21,3.57,1.74,3-1,6.2-1.64,11.52a21.33,21.33,0,0,0,2.46,12.07l-49.64,73.5,1.92,32.92,19.2,7.13c-6,9.9-16,26.44-28.8,46.9C69.58,602,63.86,609.26,61.29,625.06c-3.27,20.07-1.1,51.55,18.37,63.36a34,34,0,0,0,15.64,4.67l7.4,5.48c1.22-2.41,3.12-5.19,5.76-5.48,5.77-.64,10.67,11,14,9.87.81-.29,1.71-1.4,1.92-5.21l9.6,5.76c1.22-2.09,2.95-4.18,5.21-4.39,3.64-.33,6.22,4.45,8.23,3.57,1.64-.72,1.43-4.53,1.37-5.49-.43-7.87-6-13.55-5.76-13.71s4.28,3.51,9,10.14c1.83,2.54,3.05,4.54,4.67,4.39s2.83-2.23,3.29-3.84c.63-2.22-.3-3.45,0-4.39.63-1.93,6.56-2.64,25,.28-1.74.24-12.84,1.6-21.94-6.31a27.46,27.46,0,0,1-8.78-15.36c1.65,7.11.9,12.58-1.65,13.71-3.07,1.38-8-3.89-8.5-4.38-8.92-9.46-5.41-26.08-4.11-31.27a44.84,44.84,0,0,1-9.88,19.2c-1.79,2-4.31,4.75-6,4.11-2.73-1-1.73-9.84-1.37-12.62q-3,9.6-6,19.2c-.59-1.42-4-9.92.28-18.65a21.82,21.82,0,0,1,8-8.77c-1-.4-8.45-3.27-15.63.82a18.44,18.44,0,0,0-8.78,18.38l-7.13-1.38q.54-13.44,1.09-26.88A23.41,23.41,0,0,1,87.07,653a22.66,22.66,0,0,1-8.5,4.66c.74-4.22,1-8.65-1.1-9.87-1.12-.66-2.26,0-2.74-.55-.81-.91.82-4.51,10.14-15.36-7.47.79-8.35-.36-8.5-.82C76,630,78.46,628,80.21,627c4.39-2.53,8-1.24,8.78-3,.66-1.45-.9-4.15-3-5.22-4.35-2.18-10.72,2.71-13.44,5.49a22.6,22.6,0,0,0-6,13.17,29.37,29.37,0,0,1,2.74-18.93c7.07-13.31,22.17-15.21,23.59-15.36l-3.57,6.31a133.82,133.82,0,0,1,26.06-6.58c11.49-1.7,16.59-.88,20.85,1.64a20.92,20.92,0,0,1,6,5.49l-22.77,14L143,618.48,138.91,624l2.47,2.74,16.18-4.12-7.41,17.28a24.29,24.29,0,0,1,8.78-8.22,24.85,24.85,0,0,1,10.7-2.75c12.88-.83,20.41-1.32,28.25-.27,14.46,1.93,40.56,10.51,71,27.7,3.19-2.31,3.82-3.61,3.57-4.39,0,0-.26-.8-6.31-2.19a6.28,6.28,0,0,1-.55-4.66c.74-2.16,2.71-2.38,2.74-3.57.07-2.36-7.53-6.45-12.89-4.11-3.41,1.48-3.06,4.32-6.31,5.21-3.54,1-8-1.33-10.15-4.67a10.86,10.86,0,0,1-1.64-6c0-8.71,8.84-14.77,10.15-15.63l25.23,3.56a26.65,26.65,0,0,0,15.91-25.23L278,588c1.56-7.58,6.26-13.25,7.82-20.84,8.32-7,15.14-18.88,24.27-32.37,4.85-7.16,14.36-15.29,17.28-21.53.92-6.86-3.93-12.48-3-19.34a114,114,0,0,1,22.21-22.76c15.1-11.63,31.82-18.32,38.95-21.12,14.87-5.85,33.51-11.08,32.92-15.36-.21-1.49-2.67-2.29-2.47-4.12.23-2.19,4-3.51,6-4.11,14.46-4.32,41.1-2.33,42-5.76.41-1.64-5.27-3.87-4.67-6,.66-2.37,7.82-1.2,9.33-4.67.87-2-1-3.7,0-4.93,1.78-2.32,10.09,1.25,10.15,1.09s-25.14-7.2-24.69-12.61c.19-2.28,5-4.67,8.51-3.84,2.3.53,2.19,2,4.93,3.29,4.64,2.21,7.68-.65,11,1.64,1.84,1.28,1.39,2.51,3.3,5.21,2.86,4.07,6.87,5.54,9.05,6.59,4.94,2.38,8.23,6.89,14.81,15.91a154,154,0,0,1,12.94,20.9c7.49,15,20.63,50.47,34.51,98.41q25.86,124.68,18.38,126.72-5,1.35-24.41-50.74l-16.74-10.15c3.27,19,8.16,27,12.35,30.72a31.31,31.31,0,0,1,5.48,6,34.45,34.45,0,0,1,5.21,12.89c2.9,13.38-.67,14.74,1.92,21.12,3.8,9.35,12.17,8.21,17,17.83,3.79,7.53,2.17,15.19,1.65,18.65-1.79,11.78-.07,35.32,15.36,87q3.63-64.85,5.48-132.75c2-74.22,2-146,.55-215l-28.25,36.48q.31,51.39-2.47,51.56-3.3.21-11-71.86l-31.27-26.88c1.48.18,3.79.51,6.58,1.1a81.84,81.84,0,0,1,14.27,4.39c4.92,1.9,14.21,2,33.46-6.86l-91.61-43.61-26.61-49.92-27.7-21.67c-1.67-18-4.06-37.08-7.41-57.05a782.83,782.83,0,0,0-18.92-84.21,156.75,156.75,0,0,0-1.92-17.28C399.36,149.43,391,99.77,349,74.57c-32.13-19.27-65.63-13.24-70.22-12.34C258.43,66.21,243.84,79.06,236.35,84.93Z" transform="translate(0.28)"/><path class="cls-88" d="M199,201.84l-21.81,14.81A81.56,81.56,0,0,0,185,268.49l-5.35,3.29,7,32.92q4.13,9.26,8.23,18.51-2.67,8-5.35,16.05,4.74-8.85,9.47-17.69l-11.93-36.21q3.28-5.76,6.58-11.52Q196.3,237.84,199,201.84Z" transform="translate(0.28)"/><path class="cls-89" d="M131.91,429l-6.58-7.41q6-24.27,11.93-48.55l1.65-35a10.19,10.19,0,0,0,5.35,5.35c4.72,1.72,11.25-1.21,14.81-7.82l2.88,3.71,2.49,9.07c.15.8.28,1.62.39,2.45a54.87,54.87,0,0,1-1.24,20.57l8.23-15.22c-6-6.31-6.61-13.63-3.7-16.46,2.17-2.11,6.06-1.51,7.41-1.24l10.28-.41,8.64-8.64q.21-6.58.41-13.16l-6.58-6.59,23-6.58-10.7,33.74L181.29,347.9l-5.76,38.67Z" transform="translate(0.28)"/><path class="cls-90" d="M154.54,391.41c1.55.16,2-6.33,6-7.72,1.41-.49,3.5-.43,4.32.62.43.55.22,1,.51,1.54,1.1,2,7.41,1.89,8.33-.2,1.06-2.41-4.12-9.32-10.18-9.26-6.33.06-11.08,7.7-10.28,12.55C153.36,389.9,153.83,391.33,154.54,391.41Z" transform="translate(0.28)"/><path class="cls-91" d="M156.7,391.61l-.29,7.17h0c.24-7,0,.34,0,.34.12.18,5.47-3.26,10.39-6.48l-.1-3.7Z" transform="translate(0.28)"/><path class="cls-79" d="M415.66,293.18,433.9,335a27.34,27.34,0,0,1-21.39-17.56C408,305,414.9,294.32,415.66,293.18Z" transform="translate(0.28)"/><path class="cls-79" d="M404.28,336.38a20.63,20.63,0,0,0,.14,11.52c.54,1.69,1.77,5.55,4.11,5.89,2.06.31,3.33-2.34,5.21-1.78,1.6.48,1.3,2.58,3.16,3.57,2.21,1.17,4.15-1,5.48-.14,2.55,1.68-3.11,10.7.41,14.81,1.36,1.58,3.92,2.25,5.49,1.51s1.42-2.74,3.29-6.72c.13-.27,3.13-6.57,4.8-6.17,1.13.27.28,3.24,2.47,6.86.47.78,2.55,4.21,5.21,4a4.14,4.14,0,0,0,2.61-1.51q-2.69-7.33-5.35-14.67Z" transform="translate(0.28)"/><path class="cls-80" d="M396.05,395.62a47.26,47.26,0,0,0,7.1-1.64c4.62-1.46,5.45-2.52,5.76-3,1.19-1.77.07-2.69,1.13-5,1.27-2.81,3.55-2.42,4.94-5.34,1.17-2.47,1.53-5.73.51-6.28s-3,5.28-6.38,5.25a3.55,3.55,0,0,1-1.54-.41c2.64-5.15,2.47-10.15.52-11.94a10.29,10.29,0,0,0-3.3-1.85c-1.35-.45-2-.68-2.46-.41-1.77,1.1,1.54,7.91-.52,9.36-.56.4-.9,0-2.16.31-2.28.64-4.13,2.92-3.7,3.91.52,1.22,4.24,0,4.83,1.23.5,1.05-1.73,2.61-3.19,4.84C396.31,386.59,395.09,389.91,396.05,395.62Z" transform="translate(0.28)"/><path class="cls-81" d="M397.7,350.67a28.39,28.39,0,0,0-2.57,8.85c-.36,3-.42,7.49.3,7.61s1.85-2.58,4.94-15.32a1.54,1.54,0,0,0-.41-1.75A1.61,1.61,0,0,0,397.7,350.67Z" transform="translate(0.28)"/><path class="cls-82" d="M217.35,305.52a2.48,2.48,0,0,1,2.2-1.23c3.24-.13,6.33,5.52,5.35,6.72-.65.78-3.15-.22-4.53-1.1S216.79,306.94,217.35,305.52Z" transform="translate(0.28)"/><path class="cls-83" d="M210.09,320.74c-1.86.27-2,10.34.13,18.79.91,3.65,1.66,4.73,2.61,4.94,1.74.39,4.3-2.12,4.39-4.53.07-1.91-1.5-2.26-2.88-4.8-2.76-5,.3-9.32-3-13.44C210.85,321.11,210.49,320.69,210.09,320.74Z" transform="translate(0.28)"/><path class="cls-84" d="M190.89,344.06c.93,1.8,2.29,3.66,4.11,3.84,2.61.25,4.75-3.13,5.49-2.61.56.4-.59,2.45-1.24,5.35-.77,3.46,0,4.35-.27,7.41-.68,7.06-5.41,7.46-5.08,13,.15,2.57,1.31,4.91-.13,7-.07.09-.9,1.28-1.51,1.1-1.22-.37.25-5.69-1.65-6.72-1.09-.59-2.11.86-3.7.54-2.44-.48-3.89-4.63-4.12-7.26-.62-7.35,7.43-12.78,8.23-13.31Z" transform="translate(0.28)"/><path class="cls-85" d="M157,406.46a22.69,22.69,0,0,1,6.58-11c3-2.61,4.46-2.31,8.51-5.49,2.59-2,6.31-5,8.36-9.87a21,21,0,0,0,.69-13.31,52.39,52.39,0,0,0,6.58,11.11,10.2,10.2,0,0,0,3.7,3.29,10.66,10.66,0,0,0,7.68.28v1.92l-12.48,2.19a6.71,6.71,0,0,1,.28,7.68,6.59,6.59,0,0,1-7,2.61c-1.26-.41-1.88-1.28-2.6-1-.93.4-.41,2.09-1.24,3.7s-2.25,1.6-5.89,3.29c-4.57,2.12-4.76,3.3-8,4.12A15.81,15.81,0,0,1,157,406.46Z" transform="translate(0.28)"/><path class="cls-92" d="M142.06,433.34q-.34,11.58-.68,23.17l14.4-15.77V432.1l-2.61.41L151.94,437Z" transform="translate(0.28)"/><path class="cls-93" d="M152.35,410.43c-1.44,1-1.36,5,.68,5.9,1.8.81,4.58-1,4.67-2.74C157.8,411.48,153.89,409.4,152.35,410.43Z" transform="translate(0.28)"/><path class="cls-94" d="M123.82,482.57l-12.34,19.2L124.37,517l6.72-31.81-6.58,14.53Z" transform="translate(0.28)"/><path class="cls-95" d="M158.25,472.15c.05,0,.27,4.52,1.09,26.33q-2,11.31-4,22.63l-15.64-11.8-17,8.78,8.09-33.46,19.47.68a11.28,11.28,0,0,0,5.9-3.84C159.16,477.53,158.19,472.15,158.25,472.15Z" transform="translate(0.28)"/><path class="cls-96" d="M82.13,568.56l10.29-6.86q.75,4.6,1.51,9.19Z" transform="translate(0.28)"/><path class="cls-97" d="M148.23,534.69l5.35-6.72,14.13,21.66-6,5.22Z" transform="translate(0.28)"/><path class="cls-98" d="M76.23,604.63l18.24-13.17,57.6-5.89,5.49,20,11,1.51,10.29-24.83-6.45-21.94,10.84-9.87,17,4.11q3.78-4.86,7.54-9.74L209.4,535h2.06a69,69,0,0,1,2,15.09c.14,5.72-.55,8.15,1,12.48.79,2.24,2,4.37,4.53,8.64,1.69,2.88,3.18,5.22,4.25,6.85a68.88,68.88,0,0,1-8.23,38.4l-13.3-2.88a38.17,38.17,0,0,1-11.52,9.19,35.72,35.72,0,0,1-14,4.12c-14.38.83-24.84-10.17-26.6-12.07L144,602.43l-32.91-6Z" transform="translate(0.28)"/><path class="cls-99" d="M276.26,528.45l31.81-26.61.07-3.43-2.95.55-26.6,23.79Q277.42,525.6,276.26,528.45Z" transform="translate(0.28)"/><path class="cls-100" d="M237.86,84.27a93.33,93.33,0,0,1,43.81-21.9c32.52-6.4,58,7.09,65,11.1q-.21,6.8-.41,13.58l-16-7-4.52,3.29a5.23,5.23,0,0,0,.2,4.11c1.36,2.3,5.39,3.22,9.47,1.24l-7.62,5.55c.84,1.07,2.06,2.63,3.5,4.53,2.32,3,3.48,4.57,3.91,5.35,1,1.82,2.17,5.4,0,11.93l14,13.78h3.29l-.62,3.29-5.35.82q-.09,4.85-.2,9.67a13.25,13.25,0,0,0,10.15,4.32l-.55,4.25a15.5,15.5,0,0,1-10.29-6.44,37.78,37.78,0,0,0,3.16,10.42A37.38,37.38,0,0,0,356,166.59l-5.35,2.2a6.21,6.21,0,0,1,3.56,2.88,6.58,6.58,0,0,1-.13,6c.41-.28,4.2-2.79,8.22-1.23a7.43,7.43,0,0,1,4.12,3.7c.29.65,1.43,3.13.14,4.8-1.08,1.4-3.5,1.79-5.76.69l-1,5.48-5.08-2a18.22,18.22,0,0,1-2.06,5.21,17.71,17.71,0,0,1-3.15,4l-.27,8.1-3.57.82.55,4.25a3.84,3.84,0,0,1,1.78,1.1,4.2,4.2,0,0,1,0,5.48,3.38,3.38,0,0,1-1.64.83l.13,19.74a31.1,31.1,0,0,1-7.27,39.09l6,1.51a14.77,14.77,0,0,1,3.84,5.35c1.35,3.29.4,4.69,1.78,6.17,2.48,2.65,7.25,0,9.19,2.6,1,1.33.88,3.52,0,4.12-1.37.93-4.09-2.41-5.35-1.65-1.55,1,.2,7.55,3.43,13,3,5.17,7.33,9.25,8.64,8.5,1.07-.6-.6-4,1.23-5.62a2.85,2.85,0,0,1,3.43-.27c1,.88.44,2.9.14,4-.72,2.62-1.95,2.87-2.47,5.22-.21.94-.6,2.72.28,4.11,1.35,2.15,4.3,1.08,5.62,3s-.79,4.48.14,5.62,4.27.57,13.57-4.39c1.74,1.46,2.9,1.51,3.57,1.37,2.93-.62,4.74-6.71,4.52-15.36l5.63-5.76a17.32,17.32,0,0,0-.83,9.74,17.1,17.1,0,0,0,2.75,6.31l.27,14.4,39.91,21.8-11.73-28.8c-2.27-1.25-12.86-7.41-16.45-20.36a32.89,32.89,0,0,1,0-17.28L408,275.69c-.11-11-.38-26.71-1-45.67-.91-26.75-1.37-40.12-2.67-51.22-3.31-28.24-6.07-51.7-21.19-73.85-2.89-4.24-29.92-42.41-74.88-45.67a96.37,96.37,0,0,0-41.66,6.62A93.61,93.61,0,0,0,237.86,84.27Z" transform="translate(0.28)"/><path class="cls-101" d="M315,76.15l3.84,5.14,4.46,1.24c.13-1.49.27-3,.41-4.46Z" transform="translate(0.28)"/><path class="cls-101" d="M353.11,178.8c-.32,0-.59,2.09-1.39,4.37a19.9,19.9,0,0,1-1.65,3.55l5.82-1.65c.54-1.77.28-2.63-.11-3.08-.54-.63-1.3-.45-1.95-1.24S353.33,178.82,353.11,178.8Z" transform="translate(0.28)"/><path class="cls-102" d="M213.51,145.61c.45-6.66,1-12.23,1.38-16.18l2.19-3.57v-7.13l-6.58,2.74a122.66,122.66,0,0,1,6.31-14.53c2.77-5.43,4.57-9,7.68-12.62a42.5,42.5,0,0,1,15.9-11.52,8.3,8.3,0,0,0,4.39,0,10.24,10.24,0,0,0,4.12-2.74c1.63-1.42,4.45-2.84,9.6-2.75a26.27,26.27,0,0,0,4.66-7.4,13.61,13.61,0,0,1,6.31,1.1,14.06,14.06,0,0,1,4.94,3.84c2.14,2.39,6,5.36,13.71,7.68a15.73,15.73,0,0,1,4.11,7.4,15.31,15.31,0,0,1,.28,5.49c2.09,1.39,5.41,3.55,9.6,6,9.16,5.43,12.6,6.58,15.91,10.7a23.79,23.79,0,0,1,4.66,10.42,43.41,43.41,0,0,0,16.46,22.77l.27,17.28c.89,3.07,1.73,6.37,2.47,9.87,1,4.77,1.72,9.28,2.19,13.44v8.5c-.71,2.37-1.76,5.89-3,10.15-3.58,12.14-5.38,18.28-6,21.67a72.34,72.34,0,0,0-.55,23.59,38.15,38.15,0,0,1-20.84,28.53l6.31,2.19,1.09,3.29c-2.54,1.58-5.28,3.15-8.22,4.66a119.28,119.28,0,0,1-21.4,8.51,80.7,80.7,0,0,1-36.48-5.76,117.8,117.8,0,0,1-12.62-11c-3.74-3.76-6.35-6.91-9.05-10.15-4-4.8-7.11-9-9.32-12.07-1-2.17-2.41-5.37-3.84-9.33-3.23-8.94-5.57-19-6.86-47.72A494.07,494.07,0,0,1,213.51,145.61Z" transform="translate(0.28)"/><path class="cls-103" d="M265.35,80.06a23.21,23.21,0,0,1-3.56,9.87c-3.32,4.92-8,7.23-10.7,8.5-8.7,4.14-12.35,1.43-18.92,6-2.7,1.89-4.25,3.86-6.59,6.86-2.53,3.24-6.17,7.88-7.68,14.81a30.8,30.8,0,0,0,0,12.89l-3.56,7.4V189l-.76,2.4.21,14.19c.73,4.21,1.78,10.15,3.08,17.28,2.68,14.6,3.38,17.53,4.12,20.16a107.28,107.28,0,0,0,7.82,20l11.72,12.13c12.63,13.09,13,13.48,14.2,14.2.56.33,1.06.58,1.32.72,9.48,4.8,27.51.12,40.64-8.33a67.89,67.89,0,0,0,24.07-27.77c.21-3.78.41-7.55.62-11.32a170.86,170.86,0,0,1,6.17-16.87c5.57-13,9.06-16.72,10.28-24.27.84-5.13.74-12.76-4.11-22.84a24,24,0,0,1-6.38,4.12c-1.6.7-3.55,1.34-8.64,2.06a112.06,112.06,0,0,1-11.93,1,11.69,11.69,0,0,1-2.26,4.94c-3.68,4.66-9.71,4.65-10.6,4.63a14.45,14.45,0,0,0,8.95,1.95c7.38-.89,10.94-7.54,11.27-8.17a34.16,34.16,0,0,1,5.81-2.32,26.23,26.23,0,0,1,7.2-1.23,21.12,21.12,0,0,1,5.55.62l-.51,7.5a17.63,17.63,0,0,0-4.32,7.51c-.63,2.34-.28,3.26-1.13,6.69a26.82,26.82,0,0,1-2.27,6.27c-1.58,3-2.66,3.38-4.93,6.69a41.88,41.88,0,0,0-3.71,6.89A63.76,63.76,0,0,0,311.71,239a51.55,51.55,0,0,0-1.57,18.77,27.58,27.58,0,0,1-5.43,6.84c-4,3.53-6.06,3.37-11.1,7.2-3.8,2.89-3,3.23-8,7.41-4,3.31-6.31,5.23-10.08,6.79a33.6,33.6,0,0,1-9.87,2.26c-3.76.38-5.63.57-7.61,0-3-.87-4.82-2.83-10.91-10.9-2.19-2.91-4.53-6.07-7-9.47a38,38,0,0,1-9.87-13.06,38.49,38.49,0,0,1-3.3-19.44,41.33,41.33,0,0,1-7-10.08c-3.48-7.1-3.91-13.38-4.39-19.06a69.68,69.68,0,0,1,.69-17.14,5.62,5.62,0,0,1,2.26-1.86c1.36-.58,2.17-.21,3.5-.41,2.76-.4,3-2.57,5.14-3.08,2.5-.62,3.55,2.12,7.61,3.7,5.84,2.27,11.63-.29,12.34-.62a16.64,16.64,0,0,0,6.59-5.55l-7.82-10.7a25.36,25.36,0,0,0-7.82-2.47c-10.32-1.47-18.41,4-20.77,5.76.14-1.2.35-2.86.61-4.83.36-2.69,1.28-9.66,2.47-17,2.58-15.79,3.32-14.21,3.19-18.62-.16-5.34-1.26-7.77.21-12.24A24.06,24.06,0,0,1,228.7,113a27.9,27.9,0,0,1,6.89-5.66c.74-.48,1.75-1.13,3-1.85,2.15-1.26,3.9-2.12,4.42-2.36,4.92-2.35,7.4-.93,11.31-3.09a19.07,19.07,0,0,0,5.56-4.73C265.4,88.64,265.55,80.1,265.35,80.06Z" transform="translate(0.28)"/><path class="cls-104" d="M234.5,107.76c4.1-2.88,7.53-4.2,12.75-6.17,6.79-2.56,10.19-3.84,14.54-4,1.88-.06,5,.51,11.11,1.65,7.7,1.42,13.18,2.91,15.49,3.56,2.59.73,4.75,1.41,6.31,1.92.83,1.65,1.65,3.29,2.47,4.94a32.64,32.64,0,0,1,9.88,27.15,15.35,15.35,0,0,0,3.29,4.8c2.12,2.09,4,2.63,6.31,3.84,2.58,1.35,8.75,4.55,9.32,8.37.65,4.34-5.46,9.27-9.32,11.18-10.91,5.39-23.35.64-27.3-1a22.64,22.64,0,0,0-15.63,3.84,22.09,22.09,0,0,0-7.41,9.19v15.22c.15.64,1.19,5,3.57,5.49s6.06-3,7.68-9.47a14.49,14.49,0,0,1,9.19-5.76,14,14,0,0,1,7.54,1.1c3.44,1.6,3.89,3.74,6.86,4.66a9.81,9.81,0,0,0,6.58-.55,20.78,20.78,0,0,1-4.52,4.53,21.18,21.18,0,0,1-8,3.57,14.51,14.51,0,0,0,12.07-.14,14.35,14.35,0,0,0,7.13-8.5,32.62,32.62,0,0,1,11.93-2.2c4.66.05,5.83,1.14,6.31,1.78,1.24,1.65.72,4,.41,5.35-.83,3.73-2.86,4.59-4.39,8.23-1.16,2.78-.85,4.36-1.23,7-.81,5.6-3.58,8-7.27,14-2.47,4-7.33,11.9-8.78,21.67-1.2,8.13,1.11,9.7-1.37,15.09-2.87,6.25-8.82,10.29-10,11.11-3.76,2.56-5.66,2.63-9.6,5.89-3.13,2.6-3.8,4.12-5.9,6.31-5.43,5.7-15.68,10.94-24.54,8.23a20.14,20.14,0,0,1-8.51-5.48c-3.21-3.47-5.33-8.37-9.46-13l-1.1-1.24c-2.59-2.92-4.67-5.3-5.07-5.76-2.74-3.15-6.27-8-8.5-11.11q-.56-8.84-1.1-17.69a32,32,0,0,1-5.76-6.58c-2.56-3.89-4.22-8.32-5.49-18-1.69-12.88-2.88-22-.13-32.36a113.59,113.59,0,0,0,3.42-15.22c.53-3.6.48-4.69,1-8.1a95.31,95.31,0,0,1,3.71-15.9V122a30.05,30.05,0,0,1,4.8-8.23A31.58,31.58,0,0,1,234.5,107.76Z" transform="translate(0.28)"/><path class="cls-103" d="M214.3,174.79c2.85-1.22,7-2.88,12.14-4.53,6.73-2.15,10.15-3.22,13.06-2.57,5.07,1.13,8,5,11.93,10.08,1.42,1.85,1.76,2.82,1.65,3.81-.47,4.27-9.59,6.06-10.18,6.17a17.9,17.9,0,0,0,3.08-2.68c1.14-1.24,1.63-1.86,1.75-2.57.31-1.8-3.36-3.86-5.45-5-2.85-1.6-4.27-2.4-6.17-2.57-3.89-.34-8.59,1.6-9.16,4.32-.4,1.95,1.58,3.07.93,5-.55,1.67-2.49,2.42-3.7,2.88-4.39,1.68-8.75.38-10.8-.41Q213.85,180.75,214.3,174.79Z" transform="translate(0.28)"/><path class="cls-105" d="M227.26,178.59c-.11-1.46,3.63-2.86,5.76-3.39,1.62-.4,5.39-1.34,6.79.51a2.71,2.71,0,0,1,.41,2.37c-.84,2.75-6.58,3.76-10.59,2.26C228.8,180,227.33,179.48,227.26,178.59Z" transform="translate(0.28)"/><path class="cls-106" d="M245,174.48a31.12,31.12,0,0,0-8.12-1.75,27.21,27.21,0,0,0-14.2,2.57c-2.45,1.22-4.24,2.14-4.73,4-.59,2.27.95,5,3.81,7.2a19.24,19.24,0,0,0,3.08-.82c2.67-.95,3.36-1.84,4.63-1.95s3,.49,5.35,3.7a5.22,5.22,0,0,0,1.65,1c1.05.4,2,.35,4.11,0,2.91-.48,4.37-.72,4.94-1.24a4.65,4.65,0,0,0,1.44-4c-.47-3-4.34-4.43-6.69-4.73a9.76,9.76,0,0,0-6.07,1.34c-.55.18-4.85,1.58-6.68-.31a1.46,1.46,0,0,1-.52-1c.06-1.29,2.9-2.11,4.12-2.47a25.54,25.54,0,0,1,11.72-.31Z" transform="translate(0.28)"/><path class="cls-107" d="M237.14,179.73l.1,3.49h7.2a10.64,10.64,0,0,0-7.3-3.49Z" transform="translate(0.28)"/><path class="cls-108" d="M294.58,179.42c.52-1.13,1.94-1.41,4.37-1.85,2.78-.51,4.24-.83,4.94.1a3.18,3.18,0,0,1,.41,2.57,1.79,1.79,0,0,1,2.06.1c.66.61.36,1.76,0,2.37-.17.28-.69,1-3.5,1.54-2.65.48-4.36.79-6.07-.2a4.71,4.71,0,0,1-2.26-2.78A2.87,2.87,0,0,1,294.58,179.42Z" transform="translate(0.28)"/><path class="cls-108" d="M306.26,174.17q4.88,5.1,9.77,10.18a10.55,10.55,0,0,0,5.86-2.67c.93-.86,3.33-3.07,2.88-5.14-.69-3.19-7.84-4.67-13.27-3.91A18.8,18.8,0,0,0,306.26,174.17Z" transform="translate(0.28)"/><path class="cls-109" d="M233.85,193.2c.6-.94,2.56.18,4.32-1,1-.67.85-1.34,1.85-1.75a3,3,0,0,1,2.77.31c1.31,1,1.39,3.22.62,4.53-1.55,2.65-7.24,2.57-9,.2C233.91,194.87,233.45,193.81,233.85,193.2Z" transform="translate(0.28)"/><path class="cls-110" d="M287.88,182.57c.46,0,.7.81,2.13,1.78a8.36,8.36,0,0,0,1.44.79,23,23,0,0,0,5.65,1.61,29,29,0,0,1-5.91,1.58,29.65,29.65,0,0,1-5.54.34C286.56,183.8,287.31,182.57,287.88,182.57Z" transform="translate(0.28)"/><path class="cls-111" d="M285.79,177a25,25,0,0,1,9.67-3.53c1.88-.27,7.89-1.11,9.25,1.44a2.28,2.28,0,0,1,0,2.33c-.73.91-2.36.35-5.66.31a37.48,37.48,0,0,0-4,.2c-5.69.61-8.62,3.52-9.64,2.54C285,180,284.82,179.22,285.79,177Z" transform="translate(0.28)"/><path class="cls-112" d="M231.69,104.13c0-.18,9.4,0,18.3-5.15,8.11-4.65,12.91-12,15.84-18.31q.53,6.58,1,13.17a58.57,58.57,0,0,0,8.64,3.09c9.64,2.59,12.16.58,17.69,3.08,1.28.58,5,4.37,12.35,11.93,6.69,6.88,7.87,8.36,8.84,10.91,1.86,4.87.16,6.3,2.47,10.49,1.23,2.21,3.58,4.32,8.23,8.43,4.84,4.28,5.28,4.11,6.38,5.56,2,2.65,3.66,7.3,1.64,16a44.53,44.53,0,0,1-9.25,4.73c-9.16,3.41-17.18,2.94-24.07,2.47a82.53,82.53,0,0,1-16.67-2.88,17.18,17.18,0,0,0-9.46,4.32c-4.78,4.52-6.79,12.33-4.52,14.4a4.44,4.44,0,0,0,2.67.82,6.49,6.49,0,0,0,4.11-1.44c3.33-2.43,2.81-5.66,4.94-8.22,1.47-1.76,4.38-3.43,10.7-3.09l-3.7,2.88c-1,1.52-1,2.07-.83,2.26.56.59,3-2,5.15-1.23,1.41.48,1.52,2,2.94,4a13.62,13.62,0,0,0,5.49,4.38,14.23,14.23,0,0,1-8.64-1.16,13.58,13.58,0,0,1-3.91-2.88q-2.76,1.35-5.76,2.67c-1.32.58-2.63,1.13-3.91,1.65a11.85,11.85,0,0,1-.82,6.17c-.42,1-2.52,5.85-6.07,5.66-2.18-.12-4.2-2.12-5.14-4.84-.58-1.3-4-9.39-.1-18a21.88,21.88,0,0,1,10.28-10.39c4.49-2.19,8.5-2.2,12.76-2.16,11.66.12,13.43,4.25,20.77,3.19,8.25-1.19,16-7.84,15.43-12.44-.26-2-3.12-4-8.84-7.92-6.12-4.22-7.74-4.4-9.33-6.72s-2.82-6.11-1-13.24c-1.16-2.11-2.35-4.24-3.57-6.37q-4.41-7.75-8.91-15l-27.15-7a25.11,25.11,0,0,0-9.47,0,25.44,25.44,0,0,0-6,2.06C242,104.28,231.72,104.31,231.69,104.13Z" transform="translate(0.28)"/><path class="cls-113" d="M216.46,192c2.46-1.45,5.33,3.06,14.81,5.55,4.43,1.16,9.14,2.41,14.2.41,4.06-1.6,8.58-5.34,9.87-10.49,2.42-9.64-7.72-19.17-15.43-23a30.24,30.24,0,0,0-14.4-3.09V147.12q1.76-4.63,3.5-9.26-.3-8.54-.62-17.07a17.48,17.48,0,0,1,13.17-9.67,10.9,10.9,0,0,0-4.73-1.85,11,11,0,0,0-2.88,0,27.79,27.79,0,0,1,4.52-3.7c15.37-10.11,35.46-1.49,37.86-.42,7.51,3.36,20.41,11.45,19.54,19.34-.35,3.2-2.69,3.86-4.12,9.88-.81,3.45-2.07,8.78.62,12.13,2.49,3.1,6.35,2,8,5.56.66,1.37,1,3.41,0,4.52-1.39,1.62-4.86.6-6.78.21-13.87-2.84-27.25,10.58-29.63,13-2.07,2.08-3.61,4.22-3.29,6.58a6.36,6.36,0,0,0,2.47,3.91v26.95l2.88,3.5c.21,3.29.41,6.58.62,9.87a5.72,5.72,0,0,0-2.47,2.88c-.38,1.08-.11,1.59-.62,2.47-.9,1.54-2.71,1.59-2.67,2.06s2.83,1.28,5.55.61a7.19,7.19,0,0,0,4.53-2.83,7,7,0,0,0,1-5,28.13,28.13,0,0,0,4.32,3.08A27.11,27.11,0,0,0,281,226a10.46,10.46,0,0,0-6.74-11.83l-.21-2.88a9.89,9.89,0,0,0,4.53-2.88,10.88,10.88,0,0,0,2.26-8.84q10.29-1.34,21-2.47,7.5-.8,14.82-1.44c1.4.39,1.89,1,2.05,1.44.66,1.94-3.65,3.56-5.55,8.23-1.24,3,.13,3.43-1,7.4s-2.89,4.69-4.53,8.64a22.66,22.66,0,0,0-1.64,8.85,31.14,31.14,0,0,0-14.61,10.08l-9.25-3.91-.83,5.55a6.54,6.54,0,0,0,3.5,3.3c1.63.56,2.79,0,5.76,0a22.27,22.27,0,0,1,4.11.41c-.13,2.19-.27,4.39-.41,6.58L285,256.35l-1.24,12.76-24.89.41c-.21-2.06-.41-4.11-.62-6.17.62.19,6.81,2,10.29-1.44.57-.56,1.41-1.4,1.23-2.26-.58-2.86-11.71-3.38-12.13-1.86-.2.7,1.89,1.61,1.64,2.27-.37,1-5-1-7,.82-1.36,1.3-1.41,4.49,0,6.58,2.08,3.12,6.11,1.94,15.43,5.35,3.73,1.37,4.59,2.11,4.93,3.09,1,2.83-2.62,7.19-6.37,8.84-4.69,2.06-10.72.4-15.64-3.91v-9.66L244,266l1.23-9.25,4.73-1.65c-.94-6.76-3.43-9.9-5.55-11.52-2-1.51-3.52-1.64-5.35-3.91-2.27-2.82-1.68-4.9-3.7-6.58-1.08-.9-3-1.75-6.58-1.24a63,63,0,0,1-10.7-19.13C216.07,206.86,212.68,194.19,216.46,192Z" transform="translate(0.28)"/><path class="cls-114" d="M240.63,130.25c-3.88-3.52-2.08-14.41,3-16.66,2.18-1,5.32-.5,5.86-.41,2.58.41,3.49,1.4,5.66,1.44,2.54,0,2.77-1.47,5-1.65a8.25,8.25,0,0,1,7.81,5c.91,2.33.25,4.48-.3,6.28-.41,1.3-1.54,5-4.63,6.78-2.53,1.48-4.19.46-11.11,0C243.55,130.52,242.33,131.78,240.63,130.25Z" transform="translate(0.28)"/><path class="cls-115" d="M232.71,202.39c1.62-.09,1.88,2.5,4.67,3.43s4.7-1,5.76,0c1.29,1.23-.09,5.54-2.75,8.23-.46.47-4.37,4.42-7.95,2.88-3.39-1.46-3.42-6.54-3.43-7.14C229,206.4,230.77,202.5,232.71,202.39Z" transform="translate(0.28)"/><path class="cls-115" d="M255.62,202.66a2.69,2.69,0,0,1,2.33.14l.27,19.34-3.56,4.66c-.27-7.69-.41-11.79-.41-11.79h0l1.23-1.1C253.75,208.09,253.77,203.63,255.62,202.66Z" transform="translate(0.28)"/><path class="cls-115" d="M288.12,204.17a14.66,14.66,0,0,1,3.43-2.19c1.32-.61,5.23-2.41,7.54-.69a3.65,3.65,0,0,1,1,1.1l3.57-.55a7.81,7.81,0,0,1,1,4.94,8.44,8.44,0,0,1-8.51,6.72C291.72,213.27,288,209.2,288.12,204.17Z" transform="translate(0.28)"/><path class="cls-116" d="M246.57,225.57a8.93,8.93,0,0,0-.42,6.72c1.63,4.51,6.46,5.55,6.72,5.6a15.13,15.13,0,0,0,4.89-1.23,15.54,15.54,0,0,0,6.5-5.47l13-.14,1,1.1,2,.44a13.06,13.06,0,0,1-2.12,6.28,13.91,13.91,0,0,1-9.7,5.76c-7.4.84-12.29-4.9-12.66-5.35l-2.74.14a12.64,12.64,0,0,0,3.57,6,7.46,7.46,0,0,1,2.74,3.57,5.24,5.24,0,0,1,.14,2,11.39,11.39,0,0,1-3,.69,13.45,13.45,0,0,1-9.33-3.15l-4.8-.69-4.93,5.21c1.8.46,4.23,1.05,7.13,1.65A122.62,122.62,0,0,0,258,257c2.46.24,4.92,1.28,7.37.93a3.17,3.17,0,0,1,2.37.41,2.52,2.52,0,0,1,.72.92c.49.44.7.82,1.2,1.26a10.14,10.14,0,0,1-5.88,3.27,11.06,11.06,0,0,1-5.46-.51c.16,2.1.31,4.21.47,6.32q2.33-.09,4.68-.15,10.74-.3,21-.11l1-12.34L294.7,252l.14-6.3a17.28,17.28,0,0,0-3.84-.55c-2.66-.09-3.66.46-5.28.13a7.48,7.48,0,0,1-4.46-3.22,47.32,47.32,0,0,0,.89-5.83c.32-3.49.55-5.93-.06-7.95-1.57-5.2-8.55-7.31-10.43-7.82a6.26,6.26,0,0,1-.27,4.39,6.76,6.76,0,0,1-6.58,3.55,14.82,14.82,0,0,1-3,3.44c-.84.7-3.69,3-6.58,3C251.72,234.87,248.13,231,246.57,225.57Z" transform="translate(0.28)"/><path class="cls-104" d="M246.65,225.7s.63,4,3.62,5.49a6.83,6.83,0,0,0,4.52.27c1.94-.41,3.25-1.41,5.8-3.39a44.56,44.56,0,0,0,3.39-2.92l2.42,2.46a23.31,23.31,0,0,1-6.58,5.7c-3.37,1.94-5,1.72-5.66,1.6a7,7,0,0,1-2.93-1.54A13.61,13.61,0,0,1,246.65,225.7Z" transform="translate(0.28)"/><path class="cls-117" d="M252.87,237.77a17,17,0,0,0,10.84-7h15l2.33,2.33a12.72,12.72,0,0,1-2.2,6.17c-3.78,5.42-10.66,5.59-11.79,5.62C258.7,245.11,253.5,238.58,252.87,237.77Z" transform="translate(0.28)"/><path class="cls-118" d="M260.55,256.42a12,12,0,0,1,6.86-4.66c1.92-.38,2.22.19,5.08,0,4.14-.28,5.11-1.61,9.18-2.06,4.53-.49,5.28-.24,5.63.14,1,1.06.65,3.12-.14,4.39-1.17,1.88-3.82,2.75-6.58,2.06a4.34,4.34,0,0,1-1.92,1.92A5.07,5.07,0,0,1,273,256.7Z" transform="translate(0.28)"/><path class="cls-119" d="M242.86,251.62a21.54,21.54,0,0,1,4.67.14,22.16,22.16,0,0,1,9.6,3.84,18.07,18.07,0,0,1-8.37-.69A17.78,17.78,0,0,1,242.86,251.62Z" transform="translate(0.28)"/><path class="cls-120" d="M264.39,237.77a8.31,8.31,0,0,0,2.34-2.19,8.53,8.53,0,0,0,1.37-3.16,8.13,8.13,0,0,1,6.17.14,7.31,7.31,0,0,1,2.47,1.92,11.24,11.24,0,0,1-4.39,3.15A11.7,11.7,0,0,1,264.39,237.77Z" transform="translate(0.28)"/></svg>