<svg xmlns="http://www.w3.org/2000/svg" version="1.1" xmlns:xlink="http://www.w3.org/1999/xlink" width="512" height="512" x="0" y="0" viewBox="0 0 512 512" style="enable-background:new 0 0 512 512" xml:space="preserve" class=""><g><path d="M256.008 504c-8.829 0-16.592-4.843-20.765-12.956L117.067 258.719l-.046-.091c-4.493-8.985-2.5-19.755 4.96-26.8 7.123-6.806 17.489-8.33 26.343-3.823l107.683 54.734 107.662-54.737c8.804-4.481 19.155-2.981 26.365 3.825 7.502 7.166 9.438 17.951 4.882 26.897l-118.14 232.257c-4.209 8.175-11.96 13.018-20.769 13.018zM153.579 264.33l102.415 201.34 102.412-201.337-95.601 48.605a14.997 14.997 0 0 1-13.595 0l-95.632-48.609zm102.429-38.172c-60.161 0-109.106-48.933-109.106-109.079S195.847 8 256.008 8s109.079 48.933 109.079 109.079-48.933 109.079-109.079 109.079zm0-188.158c-43.619 0-79.106 35.475-79.106 79.079s35.487 79.079 79.106 79.079 79.079-35.475 79.079-79.079S299.612 38 256.008 38z" fill="#ffffff" opacity="1" data-original="#000000" class=""></path></g></svg>