<svg xmlns="http://www.w3.org/2000/svg" viewBox="0 0 15.59 21.91"><g id="Layer_2" data-name="Layer 2"><g id="ELEMENTS"><path d="M12.05,0H3.55A3.55,3.55,0,0,0,0,3.55V18.37a3.55,3.55,0,0,0,3.55,3.54h8.5a3.55,3.55,0,0,0,3.54-3.54V3.55A3.55,3.55,0,0,0,12.05,0ZM2.3,3.55A1.25,1.25,0,0,1,3.55,2.3h8.5a1.25,1.25,0,0,1,1.24,1.25V18.37a1.25,1.25,0,0,1-1.24,1.24H3.55A1.25,1.25,0,0,1,2.3,18.37Z"/><path d="M8.84,18.38H6.75A1.15,1.15,0,0,1,5.6,17.23h0a1.16,1.16,0,0,1,1.15-1.15H8.84A1.15,1.15,0,0,1,10,17.23h0A1.14,1.14,0,0,1,8.84,18.38Z"/></g></g></svg>