<?xml version="1.0" encoding="utf-8"?>
<!-- Generator: Adobe Illustrator 25.1.0, SVG Export Plug-In . SVG Version: 6.00 Build 0)  -->
<svg version="1.1" id="Layer_1" xmlns:svgjs="http://svgjs.com/svgjs"
	 xmlns="http://www.w3.org/2000/svg" xmlns:xlink="http://www.w3.org/1999/xlink" x="0px" y="0px" viewBox="0 0 512 512"
	 style="enable-background:new 0 0 512 512;" xml:space="preserve">
<style type="text/css">
	.st0{fill:#FEC80B;}
</style>
<g>
	<path class="st0" d="M256,0C114.9,0,0,114.8,0,256c0,141.2,114.8,256,256,256c141.2,0,256-114.8,256-256C512,114.8,397.2,0,256,0z
		 M412.2,340.7c-7.3,7.3-19.1,7.3-26.4,0c0,0,0,0,0,0L256,211L126.2,340.7c-7.3,7.3-19.2,7.3-26.5,0c-7.3-7.3-7.3-19.2,0-26.5
		l143-143c7.3-7.3,19.2-7.3,26.5,0l143,143C419.6,321.6,419.6,333.4,412.2,340.7z"/>
</g>
</svg>
